<svg version="1.1" xmlns="http://www.w3.org/2000/svg" xmlns:xlink="http://www.w3.org/1999/xlink" width="30px" height="30px" viewBox="0,0,256,256"><g fill="#000000" fill-rule="nonzero" stroke="none" stroke-width="1" stroke-linecap="butt" stroke-linejoin="miter" stroke-miterlimit="10" stroke-dasharray="" stroke-dashoffset="0" font-family="none" font-weight="none" font-size="none" text-anchor="none" style="mix-blend-mode: normal"><g transform="scale(8.53333,8.53333)"><path d="M6.98047,8.99023c-0.2598,0.00774 -0.50638,0.11632 -0.6875,0.30273l-4.91211,4.91211c-0.24753,0.18864 -0.39314,0.48176 -0.3939,0.79298c-0.00077,0.31122 0.1434,0.60505 0.39,0.79491c0.00195,0.00131 0.0039,0.00261 0.00586,0.00391l4.91016,4.91016c0.25082,0.26124 0.62327,0.36647 0.97371,0.27511c0.35044,-0.09136 0.62411,-0.36503 0.71547,-0.71547c0.09136,-0.35044 -0.01388,-0.72289 -0.27511,-0.97371l-3.29297,-3.29297h23.58594c0.36064,0.0051 0.69608,-0.18438 0.87789,-0.49587c0.18181,-0.3115 0.18181,-0.69676 0,-1.00825c-0.18181,-0.3115 -0.51725,-0.50097 -0.87789,-0.49587h-23.58594l3.29297,-3.29297c0.29576,-0.28749 0.38469,-0.72707 0.22393,-1.10691c-0.16075,-0.37985 -0.53821,-0.62204 -0.9505,-0.60988z"></path></g></g></svg>