<?xml version="1.0" encoding="utf-8"?>
<svg viewBox="325.394 146.559 113.759 89.95" xmlns="http://www.w3.org/2000/svg">
  <defs>
    <clipPath id="clippath0" transform="">
      <path d="M 0 104 L 142 104 L 142 0 L 0 0 Z" style="fill: none; clip-rule: nonzero;"/>
    </clipPath>
  </defs>
  <g class="page-1" transform="matrix(1, 0, 0, -1, 311.30167553727824, 243.1508251175528)">
    <g transform="">
      <path d="M 0 104 L 142 104 L 142 0 L 0 0 Z" style="fill: none;"/>
    </g>
    <g style="clip-path: url('#clippath0');">
      <g transform="translate(76.6084 44.2669)">
        <path d="M 0 0 C -0.723 0 -1.329 -0.25 -1.814 -0.75 C -2.301 -1.25 -2.543 -1.862 -2.543 -2.584 C -2.543 -3.308 -2.301 -3.92 -1.814 -4.42 C -1.329 -4.92 -0.723 -5.17 0 -5.17 C 0.722 -5.17 1.334 -4.92 1.834 -4.42 C 2.334 -3.92 2.585 -3.308 2.585 -2.584 C 2.585 -1.862 2.334 -1.25 1.834 -0.75 C 1.334 -0.25 0.722 0 0 0" style="fill: rgb(44, 46, 53); fill-opacity: 1;"/>
      </g>
    </g>
    <g style="clip-path: url('#clippath0');">
      <g transform="translate(83.9053 44.2669)">
        <path d="M 0 0 C -0.723 0 -1.329 -0.25 -1.814 -0.75 C -2.301 -1.25 -2.543 -1.862 -2.543 -2.584 C -2.543 -3.308 -2.301 -3.92 -1.814 -4.42 C -1.329 -4.92 -0.723 -5.17 0 -5.17 C 0.722 -5.17 1.341 -4.92 1.856 -4.42 C 2.369 -3.92 2.627 -3.308 2.627 -2.584 C 2.627 -1.862 2.369 -1.25 1.856 -0.75 C 1.341 -0.25 0.722 0 0 0" style="fill: rgb(44, 46, 53); fill-opacity: 1;"/>
      </g>
    </g>
    <g style="clip-path: url('#clippath0');">
      <g transform="translate(99.2907 17.9149)">
        <path d="M 0 0 L 0 18.139 C -0.14 18.193 -0.424 18.284 -0.855 18.409 C -1.286 18.534 -1.752 18.596 -2.252 18.596 C -3.892 18.596 -4.712 17.859 -4.712 16.387 L -4.712 4.127 L -9.715 4.127 L -11.008 4.127 L -11.842 4.127 C -12.926 4.127 -13.788 4.246 -14.426 4.482 C -15.066 4.718 -15.553 5.066 -15.886 5.525 C -16.219 5.983 -16.435 6.56 -16.532 7.256 C -16.63 7.95 -16.678 8.756 -16.678 9.674 L -16.678 18.139 C -16.818 18.193 -17.102 18.284 -17.533 18.409 C -17.964 18.534 -18.43 18.596 -18.93 18.596 C -20.57 18.596 -21.39 17.859 -21.39 16.387 L -21.39 9.674 C -21.39 8.728 -21.446 7.908 -21.557 7.213 C -21.669 6.519 -21.891 5.942 -22.224 5.483 C -22.557 5.024 -23.044 4.683 -23.684 4.461 C -24.324 4.239 -25.171 4.127 -26.227 4.127 L -27.061 4.127 L -28.311 4.127 L -29.772 4.127 C -30.661 4.127 -31.377 4.239 -31.919 4.461 C -32.461 4.683 -32.885 5.024 -33.191 5.483 C -33.497 5.942 -33.706 6.511 -33.816 7.193 C -33.928 7.873 -33.983 8.672 -33.983 9.59 L -33.983 18.139 C -34.122 18.193 -34.4 18.284 -34.817 18.409 C -35.234 18.534 -35.707 18.596 -36.235 18.596 C -37.875 18.596 -38.695 17.859 -38.695 16.387 L -38.695 8.756 C -38.695 7.256 -38.965 6.073 -39.508 5.213 C -40.049 4.35 -40.988 3.92 -42.323 3.92 C -43.657 3.92 -44.63 4.329 -45.241 5.15 C -45.853 5.97 -46.159 7.131 -46.159 8.631 L -46.159 18.139 C -46.298 18.193 -46.575 18.284 -46.992 18.409 C -47.409 18.534 -47.882 18.596 -48.41 18.596 C -50.05 18.596 -50.87 17.859 -50.87 16.387 L -50.87 8.756 C -50.87 7.172 -51.182 5.97 -51.809 5.15 C -52.434 4.329 -53.4 3.92 -54.706 3.92 C -56.041 3.92 -56.979 4.35 -57.52 5.213 C -58.063 6.073 -58.334 7.256 -58.334 8.756 L -58.334 18.139 C -58.417 18.193 -58.64 18.277 -59.001 18.389 C -59.362 18.499 -59.78 18.555 -60.252 18.555 C -61.142 18.555 -61.836 18.394 -62.337 18.076 C -62.837 17.756 -63.087 17.193 -63.087 16.387 L -63.087 3.67 C -63.087 0.472 -63.72 -1.862 -64.985 -3.336 C -66.25 -4.808 -67.98 -5.545 -70.176 -5.545 C -72.511 -5.545 -74.277 -4.816 -75.471 -3.357 C -76.667 -1.897 -77.264 0.138 -77.264 2.752 C -77.264 3.53 -77.188 4.364 -77.034 5.254 C -76.883 6.143 -76.653 7.324 -76.347 8.799 C -76.514 8.909 -76.812 9.062 -77.243 9.256 C -77.675 9.451 -78.154 9.549 -78.682 9.549 C -79.238 9.549 -79.724 9.444 -80.141 9.236 C -80.558 9.027 -80.913 8.659 -81.204 8.131 C -81.497 7.603 -81.719 6.886 -81.872 5.983 C -82.025 5.08 -82.101 3.947 -82.101 2.586 C -82.101 0.75 -81.858 -0.924 -81.372 -2.439 C -80.885 -3.954 -80.148 -5.254 -79.161 -6.338 C -78.175 -7.422 -76.952 -8.263 -75.493 -8.861 C -74.032 -9.458 -72.33 -9.758 -70.384 -9.758 C -68.716 -9.758 -67.188 -9.513 -65.798 -9.027 C -64.408 -8.541 -63.206 -7.84 -62.19 -6.922 C -61.177 -6.004 -60.356 -4.871 -59.731 -3.523 C -59.106 -2.175 -58.737 -0.639 -58.626 1.084 C -58.181 0.694 -57.632 0.354 -56.979 0.062 C -56.326 -0.229 -55.471 -0.375 -54.414 -0.375 C -53.247 -0.375 -52.128 -0.111 -51.057 0.416 C -49.988 0.944 -49.134 1.681 -48.493 2.627 C -47.854 1.653 -46.992 0.91 -45.908 0.396 C -44.824 -0.118 -43.63 -0.375 -42.323 -0.375 C -40.766 -0.375 -39.501 -0.104 -38.528 0.438 C -37.555 0.98 -36.708 1.737 -35.985 2.711 C -35.456 1.959 -34.748 1.32 -33.858 0.793 C -32.969 0.263 -31.829 0 -30.439 0 L -28.311 0 L -27.061 0 L -26.686 0 C -25.88 0 -25.095 0.021 -24.329 0.062 C -23.565 0.104 -22.85 0.215 -22.182 0.396 C -21.515 0.576 -20.911 0.855 -20.368 1.23 C -19.827 1.605 -19.361 2.14 -18.971 2.836 C -17.971 0.944 -16.262 0 -13.843 0 L -11.008 0 L -9.715 0 Z" style="fill: rgb(44, 46, 53); fill-opacity: 1;"/>
      </g>
    </g>
    <g style="clip-path: url('#clippath0');">
      <g transform="translate(99.0407 14.9965)">
        <path d="M 0 0 C -0.723 0 -1.334 -0.25 -1.835 -0.751 C -2.336 -1.252 -2.586 -1.862 -2.586 -2.586 C -2.586 -3.308 -2.336 -3.92 -1.835 -4.42 C -1.334 -4.921 -0.723 -5.171 0 -5.171 C 0.722 -5.171 1.334 -4.921 1.834 -4.42 C 2.334 -3.92 2.585 -3.308 2.585 -2.586 C 2.585 -1.862 2.334 -1.252 1.834 -0.751 C 1.334 -0.25 0.722 0 0 0" style="fill: rgb(44, 46, 53); fill-opacity: 1;"/>
      </g>
    </g>
    <g style="clip-path: url('#clippath0');">
      <g transform="translate(91.7437 14.9965)">
        <path d="M 0 0 C -0.723 0 -1.334 -0.25 -1.835 -0.751 C -2.336 -1.252 -2.586 -1.862 -2.586 -2.586 C -2.586 -3.308 -2.336 -3.92 -1.835 -4.42 C -1.334 -4.921 -0.723 -5.171 0 -5.171 C 0.722 -5.171 1.334 -4.921 1.834 -4.42 C 2.334 -3.92 2.585 -3.308 2.585 -2.586 C 2.585 -1.862 2.334 -1.252 1.834 -0.751 C 1.334 -0.25 0.722 0 0 0" style="fill: rgb(44, 46, 53); fill-opacity: 1;"/>
      </g>
    </g>
    <g style="clip-path: url('#clippath0');">
      <g transform="translate(120.0976 14.9541)">
        <path d="M 0 0 C -0.722 0 -1.341 -0.257 -1.855 -0.771 C -2.37 -1.285 -2.627 -1.876 -2.627 -2.543 C -2.627 -3.238 -2.37 -3.843 -1.855 -4.357 C -1.341 -4.871 -0.722 -5.129 0 -5.129 C 0.723 -5.129 1.341 -4.871 1.856 -4.357 C 2.37 -3.843 2.627 -3.238 2.627 -2.543 C 2.627 -1.876 2.37 -1.285 1.856 -0.771 C 1.341 -0.257 0.723 0 0 0" style="fill: rgb(44, 46, 53); fill-opacity: 1;"/>
      </g>
    </g>
    <g style="clip-path: url('#clippath0');">
      <g transform="translate(123.9548 36.3235)">
        <path d="M 0 0 C -0.431 0.125 -0.896 0.188 -1.397 0.188 C -3.037 0.188 -3.857 -0.549 -3.857 -2.022 L -3.857 -14.281 L -8.902 -14.281 L -10.153 -14.281 L -15.24 -14.281 L -15.24 13.906 C -15.38 13.962 -15.658 14.059 -16.074 14.198 C -16.492 14.337 -16.964 14.406 -17.492 14.406 C -18.27 14.406 -18.875 14.219 -19.306 13.844 C -19.737 13.469 -19.952 12.891 -19.952 12.113 L -19.952 -18.409 L -10.153 -18.409 L -8.902 -18.409 L 0.855 -18.409 L 0.855 -0.27 C 0.716 -0.215 0.431 -0.125 0 0" style="fill: rgb(44, 46, 53); fill-opacity: 1;"/>
      </g>
    </g>
    <g style="clip-path: url('#clippath0');">
      <g transform="translate(40.54 56.731)">
        <path d="M 0 0 C 1.028 -1.056 2.3 -1.869 3.816 -2.438 C 5.33 -3.009 7.047 -3.293 8.965 -3.293 L 20.307 -3.293 L 20.307 16.637 C 20.307 18.111 20.641 19.173 21.307 19.828 C 21.975 20.48 22.835 20.807 23.893 20.807 C 24.531 20.807 25.164 20.703 25.789 20.494 C 26.415 20.285 26.951 19.945 27.395 19.473 C 27.784 19.807 28.117 20.14 28.395 20.473 C 28.673 20.807 28.813 21.21 28.813 21.683 C 28.813 22.238 28.611 22.71 28.208 23.1 C 27.805 23.49 27.311 23.809 26.728 24.059 C 26.144 24.31 25.539 24.498 24.914 24.623 C 24.289 24.748 23.753 24.81 23.309 24.81 C 20.557 24.81 18.576 24.046 17.367 22.517 C 16.158 20.988 15.553 18.792 15.553 15.928 L 15.553 0.959 L 9.09 0.959 C 6.672 0.959 4.823 1.668 3.545 3.086 C 2.265 4.504 1.627 6.491 1.627 9.049 C 1.627 10.605 1.96 12.62 2.627 15.095 C 2.461 15.206 2.161 15.359 1.73 15.553 C 1.3 15.747 0.819 15.845 0.293 15.845 C -0.209 15.845 -0.667 15.755 -1.084 15.574 C -1.5 15.393 -1.87 15.046 -2.189 14.531 C -2.509 14.017 -2.752 13.308 -2.918 12.406 C -3.086 11.501 -3.168 10.341 -3.168 8.924 C -3.168 7.032 -2.898 5.338 -2.356 3.836 C -1.813 2.336 -1.028 1.057 0 0" style="fill: rgb(44, 46, 53); fill-opacity: 1;"/>
      </g>
    </g>
    <g style="clip-path: url('#clippath0');">
      <g transform="translate(47.2955 50.5605)">
        <path d="M 0 0 C -0.723 0 -1.335 -0.25 -1.835 -0.75 C -2.336 -1.252 -2.586 -1.862 -2.586 -2.586 C -2.586 -3.308 -2.336 -3.92 -1.835 -4.42 C -1.335 -4.92 -0.723 -5.17 0 -5.17 C 0.722 -5.17 1.334 -4.92 1.834 -4.42 C 2.334 -3.92 2.585 -3.308 2.585 -2.586 C 2.585 -1.862 2.334 -1.252 1.834 -0.75 C 1.334 -0.25 0.722 0 0 0" style="fill: rgb(44, 46, 53); fill-opacity: 1;"/>
      </g>
    </g>
    <g style="clip-path: url('#clippath0');">
      <g transform="translate(52.757 49.8103)">
        <path d="M 0 0 C -0.5 -0.501 -0.75 -1.112 -0.75 -1.835 C -0.75 -2.558 -0.5 -3.169 0 -3.67 C 0.5 -4.17 1.112 -4.42 1.835 -4.42 C 2.558 -4.42 3.17 -4.17 3.67 -3.67 C 4.17 -3.169 4.42 -2.558 4.42 -1.835 C 4.42 -1.112 4.17 -0.501 3.67 0 C 3.17 0.5 2.558 0.75 1.835 0.75 C 1.112 0.75 0.5 0.5 0 0" style="fill: rgb(44, 46, 53); fill-opacity: 1;"/>
      </g>
    </g>
    <g style="clip-path: url('#clippath0');">
      <g transform="translate(67.5597 57.8151)">
        <path d="M 0 0 L -1.209 -3.586 C -1.043 -3.669 -0.799 -3.773 -0.48 -3.899 C -0.161 -4.024 0.214 -4.134 0.646 -4.231 C 1.076 -4.328 1.556 -4.419 2.084 -4.503 C 2.612 -4.586 3.154 -4.628 3.711 -4.628 C 4.711 -4.628 5.684 -4.503 6.629 -4.252 C 7.574 -4.002 8.408 -3.565 9.131 -2.94 C 9.854 -2.313 10.438 -1.479 10.883 -0.438 C 11.327 0.605 11.549 1.918 11.549 3.503 L 11.549 5.213 L 16.637 5.213 L 17.887 5.213 L 27.645 5.213 L 27.645 23.351 C 27.505 23.406 27.221 23.496 26.79 23.621 C 26.359 23.746 25.893 23.809 25.393 23.809 C 23.753 23.809 22.932 23.072 22.932 21.599 L 22.932 9.34 L 17.887 9.34 L 16.637 9.34 L 11.549 9.34 L 11.549 23.351 C 11.41 23.406 11.16 23.496 10.799 23.621 C 10.438 23.746 9.979 23.809 9.424 23.809 C 8.617 23.809 7.985 23.628 7.526 23.267 C 7.067 22.906 6.838 22.335 6.838 21.558 L 6.838 3.044 C 6.838 2.294 6.734 1.682 6.526 1.21 C 6.317 0.737 6.039 0.362 5.692 0.084 C 5.343 -0.193 4.955 -0.382 4.524 -0.479 C 4.093 -0.576 3.655 -0.625 3.211 -0.625 C 2.571 -0.625 1.959 -0.563 1.375 -0.438 C 0.792 -0.313 0.334 -0.166 0 0" style="fill: rgb(44, 46, 53); fill-opacity: 1;"/>
      </g>
    </g>
    <g style="clip-path: url('#clippath0');">
      <g transform="translate(76.8584 84.2096)">
        <path d="M 0 0 C 0.722 0 1.334 0.257 1.834 0.771 C 2.334 1.285 2.585 1.89 2.585 2.586 C 2.585 3.28 2.334 3.884 1.834 4.399 C 1.334 4.913 0.722 5.17 0 5.17 C -0.723 5.17 -1.349 4.913 -1.877 4.399 C -2.405 3.884 -2.669 3.28 -2.669 2.586 C -2.669 1.89 -2.405 1.285 -1.877 0.771 C -1.349 0.257 -0.723 0 0 0" style="fill: rgb(44, 46, 53); fill-opacity: 1;"/>
      </g>
    </g>
    <g style="clip-path: url('#clippath0');">
      <g transform="translate(93.1192 59.358)">
        <path d="M 0 0 C -0.5 -0.5 -0.75 -1.111 -0.75 -1.834 C -0.75 -2.557 -0.5 -3.168 0 -3.669 C 0.501 -4.17 1.112 -4.42 1.835 -4.42 C 2.558 -4.42 3.17 -4.17 3.67 -3.669 C 4.17 -3.168 4.42 -2.557 4.42 -1.834 C 4.42 -1.111 4.17 -0.5 3.67 0 C 3.17 0.501 2.558 0.751 1.835 0.751 C 1.112 0.751 0.501 0.501 0 0" style="fill: rgb(44, 46, 53); fill-opacity: 1;"/>
      </g>
    </g>
    <g style="clip-path: url('#clippath0');">
      <g transform="translate(89.4919 55.6894)">
        <path d="M 0 0 C 0.5 0.5 0.75 1.112 0.75 1.834 C 0.75 2.558 0.5 3.168 0 3.669 C -0.5 4.17 -1.112 4.42 -1.834 4.42 C -2.558 4.42 -3.168 4.17 -3.67 3.669 C -4.17 3.168 -4.42 2.558 -4.42 1.834 C -4.42 1.112 -4.17 0.5 -3.67 0 C -3.168 -0.501 -2.558 -0.751 -1.834 -0.751 C -1.112 -0.751 -0.5 -0.501 0 0" style="fill: rgb(44, 46, 53); fill-opacity: 1;"/>
      </g>
    </g>
    <g style="clip-path: url('#clippath0');">
      <g transform="translate(104.6284 95.3426)">
        <path d="M 0 0 C -0.14 0.056 -0.418 0.153 -0.834 0.291 C -1.252 0.431 -1.724 0.5 -2.252 0.5 C -3.03 0.5 -3.635 0.313 -4.066 -0.063 C -4.497 -0.438 -4.711 -1.015 -4.711 -1.793 L -4.711 -32.315 L 0 -32.315 Z" style="fill: rgb(44, 46, 53); fill-opacity: 1;"/>
      </g>
    </g>
  </g>
</svg>