<?xml version="1.0" encoding="utf-8"?>
<svg viewBox="60.274 95.845 775.679 269.773" xmlns="http://www.w3.org/2000/svg">
  <g transform="matrix(1, 0, 0, 1, -91.87448393924478, -311.81482862874327)">
    <path class="cls-1" d="M485.13,504.63a30.23,30.23,0,0,1-12.36-2.77,49.53,49.53,0,0,1-12.66-8.42l-12.21,23a66.08,66.08,0,0,0,38.54,12.34,55.89,55.89,0,0,0,18-2.69,38.44,38.44,0,0,0,13.36-7.55,32,32,0,0,0,8.3-11.71,39.64,39.64,0,0,0,2.83-15.27c0-8.32-2.16-15.09-6.47-20.26s-11.13-9.34-20.43-12.45c-2.32-.76-4.67-1.5-7.06-2.17a38.57,38.57,0,0,1-6.39-2.4A15.26,15.26,0,0,1,484,451a6.85,6.85,0,0,1-1.75-4.82,8.17,8.17,0,0,1,3.5-6.83,14.66,14.66,0,0,1,9-2.62,24.75,24.75,0,0,1,9,1.84,34.92,34.92,0,0,1,9.31,5.6l11.34-22.26a74.38,74.38,0,0,0-17-6.6,69.25,69.25,0,0,0-17-2.27,45.24,45.24,0,0,0-15.77,2.62A33.46,33.46,0,0,0,462.67,423a32.64,32.64,0,0,0-7.57,11.33,38.9,38.9,0,0,0-2.69,14.75q0,8.16,2.55,13.46a26.13,26.13,0,0,0,6.69,8.8,34.14,34.14,0,0,0,9.45,5.6c3.54,1.41,7.14,2.68,10.83,3.85q4.65,1.6,7.92,2.91a23.64,23.64,0,0,1,5.31,2.82,9.41,9.41,0,0,1,2.91,3.36,9.9,9.9,0,0,1-2.55,11.55Q492.1,504.63,485.13,504.63Z" style="fill: rgb(22, 106, 58); fill-rule: evenodd;"/>
    <path class="cls-1" d="M572.69,506.59h40.86l6.56,19.1H650.6l-41.87-110H577.51l-41.87,110h30.49Zm20.43-58.36L606,484.84H580.29Z" style="fill: rgb(22, 106, 58); fill-rule: evenodd;"/>
    <path class="cls-1" d="M706.69,528.75q24.36,0,36.12-11.8t11.74-37.5V415.69H726.11v59.83c0,3.19-.13,6.5-.38,9.84a26.13,26.13,0,0,1-2.25,9.12,15.84,15.84,0,0,1-5.77,6.63c-2.58,1.71-6.24,2.56-11,2.56s-8.46-.85-11.09-2.56a15.26,15.26,0,0,1-5.75-6.63,26.78,26.78,0,0,1-2.19-9.12c-.24-3.34-.37-6.65-.37-9.84V415.69H658.7v63.76q0,25.68,11.82,37.5T706.69,528.75Z" style="fill: rgb(22, 106, 58); fill-rule: evenodd;"/>
    <path class="cls-1" d="M874,470.69a53.14,53.14,0,0,0-4.23-20.92,55.81,55.81,0,0,0-11.59-17.52,57.32,57.32,0,0,0-17.21-12,50,50,0,0,0-21.09-4.54h-42.3v110h42.3a50.29,50.29,0,0,0,21.22-4.51,56.84,56.84,0,0,0,17.23-12.11,56.13,56.13,0,0,0,11.52-17.57A53.75,53.75,0,0,0,874,470.69ZM842,483a27.19,27.19,0,0,1-6.11,9.7,28.14,28.14,0,0,1-9.86,6.4,35,35,0,0,1-13.26,2.34h-6.57V439.91h6.57a35.21,35.21,0,0,1,13.12,2.34,27.46,27.46,0,0,1,16,16.2,33.84,33.84,0,0,1,2.19,12.24A34.57,34.57,0,0,1,842,483Z" style="fill: rgb(22, 106, 58); fill-rule: evenodd;"/>
    <rect class="cls-2" x="892.26" y="415.69" width="28.59" height="110" style="fill: rgb(22, 106, 58);"/>
    <polygon class="cls-1" points="538.34 557.32 516.52 615.75 494.55 557.32 466.34 557.32 447.7 666.93 476.08 666.93 485.54 603.84 510.13 666.93 521.46 666.93 547.36 603.84 556.82 666.93 585.19 666.93 566.56 557.32 538.34 557.32" style="fill: rgb(22, 106, 58); fill-rule: evenodd;"/>
    <path class="cls-1" d="M642.6,557.32,600.88,667h30.39l6.53-19.06h40.71L685.05,667h30.38L673.71,557.32Zm2.77,68.93,12.79-36.5L671,626.25Z" style="fill: rgb(22, 106, 58); fill-rule: evenodd;"/>
    <path class="cls-1" d="M816.39,573.83a57.2,57.2,0,0,0-17.14-12,49.87,49.87,0,0,0-21-4.5H736.08V667h42.16a50,50,0,0,0,21.14-4.51,56.41,56.41,0,0,0,17.16-12.07A55.53,55.53,0,0,0,828,632.86a53.82,53.82,0,0,0-.08-41.59A55.49,55.49,0,0,0,816.39,573.83Zm-16.14,50.61a27.44,27.44,0,0,1-6.1,9.67,28.16,28.16,0,0,1-9.81,6.38,35,35,0,0,1-13.22,2.33h-6.56V581.46h6.56a35.14,35.14,0,0,1,13.07,2.32,27.42,27.42,0,0,1,16,16.16,33.63,33.63,0,0,1,2.18,12.2A34.6,34.6,0,0,1,800.25,624.44Z" style="fill: rgb(22, 106, 58); fill-rule: evenodd;"/>
    <polygon class="cls-1" points="920.85 581.46 920.85 557.32 858.49 557.32 858.49 666.96 920.85 666.96 920.85 642.83 886.97 642.83 886.97 623.92 918.96 623.92 918.96 599.78 886.97 599.78 886.97 581.46 920.85 581.46" style="fill: rgb(22, 106, 58); fill-rule: evenodd;"/>
    <path class="cls-1" d="M159.15,666.83H412.82V413.13H159.15ZM208.1,496.16s1.67-1.18,4.81-3A112.08,112.08,0,0,1,227.72,486a153.64,153.64,0,0,1,25.47-7.56c-.28-.21-6.54-5.25-9-6.84-11.4-7.36-15.88-5-15.88-5a85.79,85.79,0,0,1,17.08-9.76,10.22,10.22,0,0,1,2.59-.93,20.7,20.7,0,0,1,8.52.06c4.26.83,16.48,6.55,16.69,6.67,0-.19.59-5.68.78-7.62.59-5.7,1.85-5.35,2.84-5.44H295c1,.09,2.25-.26,2.84,5.44.2,1.94.77,7.43.79,7.62.2-.12,12.42-5.84,16.68-6.67a20.75,20.75,0,0,1,8.53-.06,10.43,10.43,0,0,1,2.59.93,86.35,86.35,0,0,1,17.08,9.76s-4.49-2.38-15.89,5c-2.46,1.59-8.72,6.63-9,6.84A153.21,153.21,0,0,1,344.11,486a111.7,111.7,0,0,1,14.82,7.19c3.14,1.84,4.81,3,4.81,3a170.59,170.59,0,0,1,7.48,23s-1.79-1-5.12-2.56a145.15,145.15,0,0,0-15.85-6.25,213,213,0,0,0-27.44-6.82c3.69,4.14,18.41,20.79,24.5,28.8a333.68,333.68,0,0,1,21.46,31.44q-7.08,12.36-15.84,26.46a413.39,413.39,0,0,0-23.65-34.18c-7.64-10.05-27.22-32.46-27.52-32.79,0,.45,0,97.91.05,107.11l-.05,0v.12H270c.06-9.19,0-106.76.05-107.21-.3.33-19.88,22.74-27.52,32.79a412.27,412.27,0,0,0-23.66,34.18q-8.76-14.09-15.83-26.46a332.14,332.14,0,0,1,21.45-31.44c6.09-8,20.82-24.66,24.5-28.8a212.34,212.34,0,0,0-27.43,6.82,145.15,145.15,0,0,0-15.85,6.25c-3.34,1.56-5.12,2.56-5.12,2.56A169.19,169.19,0,0,1,208.1,496.16Z" style="fill: rgb(22, 106, 58); fill-rule: evenodd;"/>
  </g>
</svg>