<?xml version="1.0" encoding="utf-8"?>
<svg viewBox="49.818 -102.75 742.865 741.308" xmlns="http://www.w3.org/2000/svg">
  <g transform="matrix(1.0000000000000002, 0, 0, 1.0000000000000002, -118.4655720730293, -272.99915364382105)">
    <g>
      <path class="cls-1" d="M771.31,452.21C767,440.8,758,430.62,747.18,423.29,715.82,403.38,668,402,635.74,420c-17.62,9-29.2,26.77-32.81,45.07-6.53,30.07-4.85,65.86,18.32,88.4,27,23.69,66.35,28.92,101.32,19.2A45.26,45.26,0,0,0,733.13,569l1-.43a71.48,71.48,0,0,0,28.94-21.83C781,520.7,782.17,481.59,771.31,452.21Zm-56.94,67.54c-1.21,5.7-5.06,11.62-11.11,13.76-9.63,4.24-22.66,3.07-31.58-1.89-7.48-5.23-8.45-14-9.41-22.28-.74-16.35-1.91-33.65,2.66-48.61,3.59-9.26,13.49-11.63,22.43-12.32,9.41,0,18.55,1.42,24.37,9,3.61,5.44,3.38,12.56,4.09,19C715.57,489.89,716.79,506,714.37,519.75Z" style="fill: rgb(115, 112, 111);"/>
      <path class="cls-1" d="M428.5,534.48c-7.95-.49-16.88.21-24.59-.74l.23-83.21.48-.7,23.88-.23c.26-13.5.49-28-.25-40.3l-90.92-.25-15,.25c-.24,12.56-.24,27.24,0,40.05,8.21.25,15.92,0,23.88.74v80.59L346,534l-23.89.49c-.5,13.25-.5,26.06,0,39.1H428.5Z" style="fill: rgb(115, 112, 111);"/>
      <path class="cls-1" d="M696.27,591.35a185.11,185.11,0,0,1-36.88,39.34c-.5.73-2,.46-2.41-.23-6.06-3.78-12.56-6.87-18.36-10.65,7.72-9.24,15.2-18.48,21-28.71h-7.5c-6,8.8-12.28,18-20.25,25.85-10.62-4.26-20.26-8.06-31.12-10.92l-1.2-.9c1.68-4.79,4.81-9.28,5.78-14h-6.51l-6.51,12.81c-14.22-3.09-29.91-4.75-44.38-5.69-.74-2.12.23-5.21-.74-7.12h-6.26c-.5,2.86.72,5-.73,7.37a278.76,278.76,0,0,0-43.42,5.23l-6.53-12.6c-2.39,0-5.06-.46-6.74.25l6,14-.72.69A305,305,0,0,0,457,617.19l-1-.49a187.77,187.77,0,0,1-18.59-23.44c-1.2-4-6-1.68-8.67-2.16,5.77,10.44,13.5,19.68,21.21,29.17-6.51,3.8-13,8-19.79,11.15a173.75,173.75,0,0,1-38.09-40.07,28.19,28.19,0,0,0-7.73,0c17.37,27,44.4,50.72,72.63,64.71a.22.22,0,0,1,.25-.21c.21,0,.69.44.21.69a199.3,199.3,0,0,0,60.8,18.74C592.31,685,663,653.47,704,591.35A39.9,39.9,0,0,0,696.27,591.35ZM595.69,612.69l.71-.48a135.16,135.16,0,0,1,29.45,10.18c-7.73,8.76-17.63,16.36-26.78,22.75-5.55,3.32-11.11,6.91-16.91,9.72l-10.35-4.49.71-1.64A283.37,283.37,0,0,0,595.69,612.69Zm-47.53-7.12a188.53,188.53,0,0,1,40.28,4.75l.25.71a242.68,242.68,0,0,1-24.36,36.74c-4.11.48-8-1.16-12.06-1.41l-4.11-.49C547.67,631.89,547.42,619.56,548.16,605.57Zm-46.54,4.26c12.53-2.37,25.56-4.26,39.06-4.26l.25,40.1c-5.08,1.15-10.63,1.15-15.46,2.37a212.23,212.23,0,0,1-25.07-37.26Zm-38.86,12.82a158.15,158.15,0,0,1,29.42-10.44l1,.25c7,13,15.67,25.35,24.35,37.68-3.37,1.91-7.48,3.06-10.84,5a162.68,162.68,0,0,1-43.92-31.78Zm31.13,40.53a171.24,171.24,0,0,1-56.46-26.55v-.73c5.8-3.53,11.59-7.33,17.85-10,13.76,13.55,28,23.73,43.44,33.44A19.1,19.1,0,0,1,493.89,663.18Zm89.49,3.06c-25.56,5.49-54,5.7-79.6-.45-.48-1.18,1.19-1.43,1.93-2.12,22.43-14.48,57.4-14.48,79.37,1.15C585.8,666.24,583.86,665.79,583.38,666.24Zm23.16-6.61-11.34,3.55a26.79,26.79,0,0,1-5.31-3.8l.48-.72a214.78,214.78,0,0,0,42.7-32.95,95.25,95.25,0,0,1,18.59,10.19C638.16,646.61,622.47,653.69,606.54,659.63Z" style="fill: rgb(115, 112, 111);"/>
      <path class="cls-1" d="M391.6,391a220.23,220.23,0,0,1,19.54-23.46c6.25-5.93,12.05-11.62,18.81-15.9,6.28,4,13.28,7.39,19.3,11.17-7.47,9.2-15.18,18.48-20.75,28.42,1.68.73,4.84.5,7.25,0,6-8.76,12.54-17.54,20.27-25.35,10.35,3.8,20.5,7.81,31.12,10.67l.95.94-6,13.74a21.92,21.92,0,0,0,7,0c2.16-4,3.84-8.51,6.25-12.56A236.63,236.63,0,0,0,539,383.91c1.93,1.68.48,5.23,1.2,7.35h6.51c.71-2.33-.23-5,.71-7.08,14-.74,28.71-2.16,42.26-5.48l1.18.25,6.51,12.31c2.18,0,5.06.5,6.76-.48l-6-13.72.51-.48c11.07-2.86,21.46-7.12,32.07-11.37a222.18,222.18,0,0,1,20.77,26.05c2.64,0,5.29.25,7.23-.48a97.44,97.44,0,0,0-10.38-14.94,103.22,103.22,0,0,0-10.63-12.77v-1.22l16.89-9.7,2.44-.94a175.6,175.6,0,0,1,38.09,39.57c2.9,0,5.32,1,7.73-.22a191,191,0,0,0-143.28-83.9l-.25.46-.49-.46a110.41,110.41,0,0,0-21.48-.28,56.11,56.11,0,0,0-8.93.28c-57.88,4.47-111.19,34.13-144.5,84.6C386.29,391,389.19,392,391.6,391Zm100.12-20.84-1,.21a192.24,192.24,0,0,1-28.71-9.7l.46-1.43c13.27-12.56,27.26-23,42.7-31,3.63,1.43,7.24,2.6,10.85,4.28l-.71,1.85C506.17,345.77,499,358.07,491.72,370.19Zm48,6.39c-6.74.94-12.77-.21-19.55-.74-6.49-.94-14.7-1.64-21.21-3.8a210.67,210.67,0,0,1,25.1-37.15l15.43,2.1C540.2,349.29,539.71,363.53,539.71,376.58Zm7.48.25c-.48-12.6-.23-26.57,0-39.61,4.83-.7,10.12-1.43,15-2.12,9.4,11.82,18.58,24,24.86,36.94A171.21,171.21,0,0,1,547.19,376.83Zm77-16.62c-9.43,4-19.09,7.82-29.45,10a400.34,400.34,0,0,0-24.87-37.26c3.39-1.84,7.5-3.27,11.11-5.16a170,170,0,0,1,43.67,31.71Zm-30.9-40.53A172,172,0,0,1,650,346.23l-.48.94-16.64,9.24h-1.21a210.56,210.56,0,0,0-42.94-32.7C589.18,322.05,591.59,320.86,593.27,319.68Zm-9.64-2.37v.48c-21,15.14-55,16.57-77.19,2.58-1.23-.94-3.63-1.41-3.88-3.06C528.14,311.4,558.28,310.92,583.63,317.31Zm-147.17,29.4a173.48,173.48,0,0,1,50-25.12c.73-.73,1.2-1.43,2.16-1.43v.49c1.93.46,3.38-1.69,5.06-.28,1.45,1.22,3.15,2.17,4.35,3.34a244,244,0,0,0-43.18,33.4,79.48,79.48,0,0,1-18.34-9.94Z" style="fill: rgb(115, 112, 111);"/>
      <path class="cls-1" d="M540,536.32c-22.69,6.18-47.3,1.47-63.7-15.62-1.92-2.38-3.13-5.19-5.07-7.56l-32.55.23c-.51,19.19-.74,41.24,0,60.21l36.16-.23L475.3,562c4.11,1.89,8.21,4.26,12.31,6.38,25.09,10.44,57.4,12.82,82.24,0,18.11-9.93,27.77-29.13,25.1-49.8-2.64-20.12-21.94-38.39-41.48-43.34l-58.39-16.85-4.32-2.14c-1.94-1.64-3.15-3.76-2.67-6.39,4.58-7.81,15.21-5.44,23.16-5.23,16.89,2.38,34.26,8.07,44.15,23.49,10.61,0,22.92.21,34.49-.26.48-19.42-.21-36.48-.48-56.16-10.86-.25-24.13-.25-35,.25-.49,2.82.46,6.83-.74,9.69l-11.09-5.93c-26.55-11.13-63.7-12.3-87.81,5-15.69,11.36-20.5,31.78-16.4,49.78,3.13,17.05,19.53,29.61,35.22,35.53,21.46,7.59,43.9,13.07,65.63,20.4,2.16,1,5,3.11,4.58,5.71C543.83,534.2,541.65,535.42,540,536.32Z" style="fill: rgb(115, 112, 111);"/>
    </g>
    <g>
      <path class="cls-2" d="M418.57,763.07v-7l7.2-6.64c14.3-13.28,21-20.57,21.13-28.62,0-5.42-2.9-10.19-10.85-10.19-5.33,0-9.91,2.71-13,5l-3.36-8.13a30,30,0,0,1,18.7-6.27c13.47,0,20,8.51,20,18.42,0,10.66-7.67,19.27-18.23,29.09l-5.33,4.58v.18h25v9.54Z" style="fill: rgb(0, 75, 145);"/>
      <path class="cls-2" d="M468.68,763.07v-7l7.2-6.64c14.31-13.28,21-20.57,21.14-28.62,0-5.42-2.9-10.19-10.85-10.19-5.33,0-9.91,2.71-13,5l-3.36-8.13a30,30,0,0,1,18.7-6.27c13.46,0,20,8.51,20,18.42,0,10.66-7.67,19.27-18.24,29.09L485,753.35v.18h25v9.54Z" style="fill: rgb(0, 75, 145);"/>
      <path class="cls-2" d="M561.72,732.31c0,19.54-7.66,31.79-22.16,31.79-14,0-21.51-12.72-21.6-31.23,0-18.89,8-31.61,22.25-31.61C554.9,701.26,561.72,714.35,561.72,732.31Zm-32.17.56c-.09,14.77,4,22.44,10.38,22.44,6.74,0,10.29-8.23,10.29-22.82,0-14.12-3.37-22.44-10.29-22.44C533.76,710.05,529.46,717.63,529.55,732.87Z" style="fill: rgb(0, 75, 145);"/>
      <path class="cls-2" d="M611.84,732.31c0,19.54-7.67,31.79-22.16,31.79-14,0-21.51-12.72-21.6-31.23,0-18.89,8-31.61,22.25-31.61C605,701.26,611.84,714.35,611.84,732.31Zm-32.17.56c-.09,14.77,4,22.44,10.38,22.44,6.74,0,10.29-8.23,10.29-22.82,0-14.12-3.37-22.44-10.29-22.44C583.88,710.05,579.58,717.63,579.67,732.87Z" style="fill: rgb(0, 75, 145);"/>
      <path class="cls-2" d="M662,732.31c0,19.54-7.67,31.79-22.16,31.79-14,0-21.51-12.72-21.61-31.23,0-18.89,8-31.61,22.26-31.61C655.13,701.26,662,714.35,662,732.31Zm-32.17.56c-.09,14.77,4,22.44,10.38,22.44,6.73,0,10.29-8.23,10.29-22.82,0-14.12-3.37-22.44-10.29-22.44C634,710.05,629.7,717.63,629.79,732.87Z" style="fill: rgb(0, 75, 145);"/>
    </g>
    <path class="cls-1" d="M540,815.57C388.05,815.57,264.43,692,264.43,540S388.05,264.43,540,264.43,815.57,388.05,815.57,540,692,815.57,540,815.57Zm0-542.84c-147.37,0-267.27,119.9-267.27,267.27S392.63,807.27,540,807.27,807.27,687.37,807.27,540,687.37,272.73,540,272.73Z" style="fill: rgb(115, 112, 111);"/>
    <path class="cls-3" d="M540,906.13c-201.89,0-366.13-164.24-366.13-366.13S338.11,173.87,540,173.87,906.13,338.11,906.13,540,741.89,906.13,540,906.13Zm0-723.68c-197.15,0-357.55,160.4-357.55,357.55S342.85,897.55,540,897.55,897.55,737.15,897.55,540,737.15,182.45,540,182.45Z" style="fill: rgb(0, 75, 143);"/>
    <g>
      <path class="cls-2" d="M208.65,480.27,214.83,453l6.7,1.52-4.37,19.26,8.78,2,3.85-17,6.7,1.52-3.85,17,16.6,3.76-1.81,8Z" style="fill: rgb(0, 75, 145);"/>
      <path class="cls-2" d="M260.2,446.24q-2.31,6.7-7.63,8.91c-3.4,1.41-7.38,1.33-11.91-.24s-7.74-4-9.59-7.25-2-7.14-.47-11.61,4.08-7.44,7.62-8.92,7.38-1.32,11.92.24,7.72,3.95,9.54,7.15S261.74,441.77,260.2,446.24Zm-23.41-8.06a5.94,5.94,0,0,0,1.11,6,12.58,12.58,0,0,0,11.55,4,6.16,6.16,0,0,0,3.45-10,12.63,12.63,0,0,0-11.56-4A6,6,0,0,0,236.79,438.18Z" style="fill: rgb(0, 75, 145);"/>
      <path class="cls-2" d="M272.29,416.45q-3,6.41-8.54,8-5.31,1.53-11.83-1.54t-8.74-8.25q-2.22-5.18.8-11.59t8.55-8q5.31-1.54,11.82,1.53t8.7,8.14Q275.32,410,272.29,416.45ZM249.9,405.89a6,6,0,0,0,.45,6.06,12.56,12.56,0,0,0,11.06,5.21,6.17,6.17,0,0,0,4.51-9.57,12.62,12.62,0,0,0-11.05-5.21A6,6,0,0,0,249.9,405.89Z" style="fill: rgb(0, 75, 145);"/>
      <path class="cls-2" d="M259.55,355.38l34,20.87-4,6.47L287,381.09a9.49,9.49,0,0,1-.39,8.68,11,11,0,0,1-4.66,4.77,12.17,12.17,0,0,1-6.76.8,22.17,22.17,0,0,1-8.19-2.4,20.55,20.55,0,0,1-7.14-6.62q-3.93-5.69-.4-12.18c2-3.63,4.73-5.24,8.3-4.86l-12.14-7.44Zm6.59,20.45a5.49,5.49,0,0,0,.14,6.13,12.56,12.56,0,0,0,4.24,4.14,12.43,12.43,0,0,0,5.62,1.9,5.59,5.59,0,0,0,5.35-8.72,13.34,13.34,0,0,0-9.85-6A5.43,5.43,0,0,0,266.14,375.83Z" style="fill: rgb(0, 75, 145);"/>
      <path class="cls-2" d="M304.18,318.85l-5,5.81a5.2,5.2,0,0,0-5.35-1.17,10.77,10.77,0,0,0-4.77,3.25q-4.57,5.1-1.28,8.46a4.05,4.05,0,0,0,2.14,1.4,4.61,4.61,0,0,0,2.51-.69q1.13,0,8.41-5.94c3-2.43,5.59-3.88,7.83-4.35q4.35-.93,8.26,2.47a13.84,13.84,0,0,1,3.59,4.85,10.15,10.15,0,0,1,1,5.85q-.68,4.75-6.06,11.21a16.76,16.76,0,0,1-3.42,3,15.45,15.45,0,0,1-5.08,2.53A13.22,13.22,0,0,1,295.52,353l5.22-6a5.61,5.61,0,0,0,5.84,1.1,11.67,11.67,0,0,0,5-3.8q5-6,1.08-9.39a4.61,4.61,0,0,0-5.07-.65,21.14,21.14,0,0,0-4.7,3q-5.94,4.67-7.12,5.37-6.66,3.83-11.92-.75-4.62-4-4.41-9.32.19-5,4.77-10.23,6.19-7.12,12.63-6.8a10.69,10.69,0,0,1,6.68,2.62A3.23,3.23,0,0,1,304.18,318.85Z" style="fill: rgb(0, 75, 145);"/>
      <path class="cls-2" d="M347.59,316l-5.93,5.48a4.18,4.18,0,0,1-2.6-1.61q-.4,6.17-3.89,9.38-6.9,6.36-12.83-.63-5.13-6,0-12.66a26.44,26.44,0,0,0,4.72-6.22q1-1.89-.85-3.74a2.42,2.42,0,0,0-2.88-.39,8.68,8.68,0,0,0-2.62,1.83q-3.37,3.42-.43,6.93L315,319.27q-6.91-7.65,2-15.86T332.33,302l10.94,11.86a4.58,4.58,0,0,0,3.62,1.42Zm-14.87-2.91-1.14-1.24a10.4,10.4,0,0,1-1.87,3.28c-.7.79-1.41,1.61-2.11,2.46a4.9,4.9,0,0,0-1.12,2.88,3.38,3.38,0,0,0,.93,2.46,3.33,3.33,0,0,0,2.56,1.21,3.94,3.94,0,0,0,2.67-1.17,8.44,8.44,0,0,0,1-1Q337,317.69,332.72,313.11Z" style="fill: rgb(0, 75, 145);"/>
      <path class="cls-2" d="M334.34,296.23l-3.14-4,3.27-2.56-2.13-2.7q-4.54-5.81,1.12-10.24l3.73-2.93,3.5,4.46-2.13,1.67c-.86.68-.88,1.55-.05,2.61l1.92,2.45,3.6-2.83,3.13,4-3.6,2.83,14.75,18.79-6,4.68L337.6,293.67Z" style="fill: rgb(0, 75, 145);"/>
      <path class="cls-2" d="M379,278.37l-16.35,10.87a6.71,6.71,0,0,0,3.4,3.44,6.08,6.08,0,0,0,5.82-.6,7.06,7.06,0,0,0,2.33-2.6,4.13,4.13,0,0,0,.49-3.4l6.27-4.17a11.49,11.49,0,0,1-.51,8.59,14.58,14.58,0,0,1-5.39,6.86,14,14,0,0,1-8.16,2.41,11.86,11.86,0,0,1-7.79-2.94,17.47,17.47,0,0,1-2.44-2.7,24.11,24.11,0,0,1-3.28-5.42q-5-11.2,4.38-17.45,6.32-4.2,12.59-1.36a17.82,17.82,0,0,1,7.48,6.62C378.17,277,378.56,277.62,379,278.37ZM359.82,285l9.76-6.49q-3.29-5-7.89-2.22a5.84,5.84,0,0,0-3,3.89A6,6,0,0,0,359.82,285Z" style="fill: rgb(0, 75, 145);"/>
      <path class="cls-2" d="M373.37,262.64l3.29-1.84-3.91-7,6.63-3.69,3.9,7L387,255l2.47,4.43-3.76,2.1,8.1,14.53c.83,1.5,1.63,2,2.39,1.61l2.62-1.47,2.55,4.57a12.28,12.28,0,0,1-2.88,2.42q-6.22,3.85-10-1.15l-9.38-16.82-3.29,1.84Z" style="fill: rgb(0, 75, 145);"/>
      <path class="cls-2" d="M390.06,252.49l7.68-3.52,14.75,16.89-3.34-22.11,7.14-3.27,3.44,37.66a8.31,8.31,0,0,1-.46,4.35q-1,2.73-8.21,6l-2.59-5.65q.57-.21,1.11-.45,4.86-2.24,3.13-6a4.91,4.91,0,0,0-.92-1.37Z" style="fill: rgb(0, 75, 145);"/>
      <path class="cls-2" d="M468.25,255,460.33,257l-14.95-29.37,8.09,31.15-7.92,2.06-10-38.48,11.56-3L462,247.08l-.5-31.43,11.56-3,10,38.48-7.91,2.06L467,222Z" style="fill: rgb(0, 75, 145);"/>
      <path class="cls-2" d="M513.43,247.33l-8,1a4.24,4.24,0,0,1-1.19-2.81c-2.59,3.19-5.45,5-8.59,5.4q-9.3,1.22-10.11-7.92-.69-7.89,7.3-10.36a26.26,26.26,0,0,0,7.45-2.34c1.27-.64,1.76-1.82,1.46-3.55a2.4,2.4,0,0,0-2.13-2,8.48,8.48,0,0,0-3.19,0c-3.15.56-4.61,2.36-4.36,5.41l-7.14.93q-1.21-10.24,10.79-11.8,12.18-1.59,13.38,7.72l2.08,16a4.62,4.62,0,0,0,2.13,3.25Zm-10.45-11-.21-1.67a10.43,10.43,0,0,1-3.43,1.6c-1,.24-2.08.5-3.14.79a4.89,4.89,0,0,0-2.58,1.7,3.41,3.41,0,0,0-.66,2.54,3.37,3.37,0,0,0,1.39,2.48,4.06,4.06,0,0,0,2.86.58,9.21,9.21,0,0,0,1.39-.29Q503.79,242.55,503,236.36Z" style="fill: rgb(0, 75, 145);"/>
      <path class="cls-2" d="M517.64,247l-.72-29.56,7.58-.18.11,4.47q2.39-5,7.26-5.14,11.37-.28,11.63,10l.48,19.79-7.58.19-.44-18.1a8.62,8.62,0,0,0-.76-4q-1.22-2-5-1.63c-3.73.39-5.57,2.09-5.49,5.1l.46,18.87Z" style="fill: rgb(0, 75, 145);"/>
      <path class="cls-2" d="M575.06,248.63l-8-.64a4.21,4.21,0,0,1-.58-3q-4.8,3.88-9.53,3.5-9.35-.75-8.24-9.85,1-7.86,9.28-8.62a26.44,26.44,0,0,0,7.78-.74c1.37-.36,2.1-1.42,2.16-3.16a2.41,2.41,0,0,0-1.67-2.38,8.53,8.53,0,0,0-3.12-.69q-4.8-.17-5.38,4.39l-7.18-.58q.93-10.26,13-9.3,12.24,1,11.49,10.33L573.74,244a4.64,4.64,0,0,0,1.41,3.62Zm-7.94-12.9.14-1.68a10.23,10.23,0,0,1-3.68.85c-1.06,0-2.14.07-3.24.12a5,5,0,0,0-2.88,1.13,3.44,3.44,0,0,0-1.18,2.36,3.36,3.36,0,0,0,.86,2.7,4,4,0,0,0,2.67,1.17,8.41,8.41,0,0,0,1.42,0Q566.63,241.95,567.12,235.73Z" style="fill: rgb(0, 75, 145);"/>
      <path class="cls-2" d="M603.22,223.59l7,1.3-5.54,29.82a9.92,9.92,0,0,1-6.18,7.9q-4.57,1.86-12.16.07a13.48,13.48,0,0,1-6.55-3.6q-3.24-3.16-2.3-6.7l7.88,1.46c-.38,1.63.91,3,3.85,4a6.5,6.5,0,0,0,1,.28,6.83,6.83,0,0,0,4.7-.82,5.11,5.11,0,0,0,2.73-3.62l.75-4.08a18.89,18.89,0,0,1-3.84,2.45,8.4,8.4,0,0,1-4.77.33,13.19,13.19,0,0,1-4.44-1.49,10.07,10.07,0,0,1-3.33-3.28q-3.21-4.82-1.82-12.32,1.5-8,6.61-11.7a10.43,10.43,0,0,1,8.8-2,8.47,8.47,0,0,1,4.53,2.51,38.39,38.39,0,0,1,2.29,3.81Zm-7.87,5a5.91,5.91,0,0,0-5.71,2,11.4,11.4,0,0,0-2.66,5.74,11.28,11.28,0,0,0,.43,6.31,6.08,6.08,0,0,0,10.32,1.91,12.75,12.75,0,0,0,2.24-12A5.91,5.91,0,0,0,595.35,228.62Z" style="fill: rgb(0, 75, 145);"/>
      <path class="cls-2" d="M638.63,250.76l-18.83-5.57a6.75,6.75,0,0,0-.46,4.82,6.12,6.12,0,0,0,4.2,4.08,7.08,7.08,0,0,0,3.49.12,4.16,4.16,0,0,0,2.92-1.8l7.22,2.13a11.52,11.52,0,0,1-6.91,5.12,14.62,14.62,0,0,1-8.73.26,14,14,0,0,1-7.08-4.71,11.91,11.91,0,0,1-2.74-7.86,17.65,17.65,0,0,1,.5-3.61,24.4,24.4,0,0,1,2.06-6q5.37-11,16.19-7.83,7.27,2.15,9.12,8.78a17.8,17.8,0,0,1-.28,10C639.14,249.24,638.91,249.94,638.63,250.76Zm-17.37-10.48,11.24,3.32c1.13-3.8,0-6.29-3.36-7.48a5.86,5.86,0,0,0-4.9.22A6,6,0,0,0,621.26,240.28Z" style="fill: rgb(0, 75, 145);"/>
      <path class="cls-2" d="M645.8,266.56l-6.94-3.06,11.95-27,6.94,3.06-1.79,4q5.37-3.1,9.06-1.48a9.41,9.41,0,0,1,4.48,3.65,20.36,20.36,0,0,1,1.47,3.81,12.21,12.21,0,0,1,4.59-1.68,9.16,9.16,0,0,1,4.63.93,16.24,16.24,0,0,1,2,1.05q6.48,3.94,3,11.76l-8.28,18.72L670,277.26l8.21-18.56q1.14-2.59-2.26-4.4a5,5,0,0,0-4.2-.33,5.2,5.2,0,0,0-3.08,3l-7.3,16.52-6.94-3.06,8.21-18.57c.42-2-.45-3.55-2.61-4.54A4.83,4.83,0,0,0,656,247a5.46,5.46,0,0,0-2.86,3Z" style="fill: rgb(0, 75, 145);"/>
      <path class="cls-2" d="M709.8,286,693,275.84a6.63,6.63,0,0,0-1.67,4.54,6.06,6.06,0,0,0,3,5,7,7,0,0,0,3.35,1,4.15,4.15,0,0,0,3.28-1l6.44,3.9a11.59,11.59,0,0,1-8,3.19,14.63,14.63,0,0,1-8.5-2,14.08,14.08,0,0,1-5.65-6.37,12,12,0,0,1-.64-8.3,17.77,17.77,0,0,1,1.41-3.36,24.13,24.13,0,0,1,3.51-5.26q8-9.3,17.66-3.45,6.48,3.94,6.58,10.83A17.9,17.9,0,0,1,711,284.2C710.68,284.69,710.29,285.31,709.8,286Zm-14.12-14.57,10,6.09q3.09-5.08-1.34-8.09a5.82,5.82,0,0,0-4.79-1A6,6,0,0,0,695.68,271.46Z" style="fill: rgb(0, 75, 145);"/>
      <path class="cls-2" d="M706.84,299l17.91-23.53,6,4.6-2.71,3.55q5-2.42,8.88.53Q746,291,739.79,299.2L727.8,315l-6-4.59,11-14.41a8.7,8.7,0,0,0,1.89-3.57c.19-1.53-.75-3-2.85-4.35q-4.74-3.06-7.48.54l-11.43,15Z" style="fill: rgb(0, 75, 145);"/>
      <path class="cls-2" d="M749.84,295.92l2.8,2.52L758,292.5l5.62,5.09-5.39,5.94,3.2,2.9L758,310.19l-3.19-2.89-11.17,12.33c-1.14,1.26-1.4,2.19-.75,2.77l2.23,2-3.51,3.87a12.43,12.43,0,0,1-3.22-1.94q-5.64-4.68-2.12-9.87l12.92-14.27-2.79-2.53Z" style="fill: rgb(0, 75, 145);"/>
      <path class="cls-2" d="M795.83,346.39l-4.93-5.91a5.19,5.19,0,0,0,2-5.09,10.87,10.87,0,0,0-2.45-5.23q-4.31-5.32-8.15-2.62a4.17,4.17,0,0,0-1.72,1.9,4.57,4.57,0,0,0,.28,2.59q-.15,1.11,4.52,9.25c1.92,3.33,2.94,6.14,3,8.42q.23,4.44-3.75,7.76a13.9,13.9,0,0,1-5.37,2.77,10,10,0,0,1-5.92,0q-4.6-1.42-10.11-7.77a17,17,0,0,1-2.43-3.86,15,15,0,0,1-1.68-5.42,13.19,13.19,0,0,1,4.31-10.84l5.1,6.12a5.61,5.61,0,0,0-2,5.59,11.68,11.68,0,0,0,3,5.57q5.16,5.85,9.09,2.57a4.63,4.63,0,0,0,1.46-4.91,21.62,21.62,0,0,0-2.21-5.12q-3.66-6.6-4.17-7.89-2.71-7.17,2.65-11.65c3.12-2.6,6.43-3.56,9.9-2.86q4.86,1,9.34,6.35,6,7.25,4.69,13.55a10.61,10.61,0,0,1-3.65,6.18A3.68,3.68,0,0,1,795.83,346.39Z" style="fill: rgb(0, 75, 145);"/>
      <path class="cls-2" d="M800.82,350l4.68,7L791.13,374.2l21.31-6.76,4.35,6.54-36.66,9.29a8.43,8.43,0,0,1-4.37.22q-2.85-.54-7.25-7.17l5.18-3.44c.19.35.4.7.62,1q3,4.45,6.41,2.16a5,5,0,0,0,1.21-1.13Z" style="fill: rgb(0, 75, 145);"/>
      <path class="cls-2" d="M800.66,387.75l3.53,6.65a5.11,5.11,0,0,0-1.73,3.7,12.29,12.29,0,0,0,1.14,4.14,5.42,5.42,0,0,0,1.85,2.54,2.64,2.64,0,0,0,3,.16A2.51,2.51,0,0,0,809.9,402l-2.07-9.65q-1.33-6.35,3.38-9a8.62,8.62,0,0,1,8.2-.58,13.7,13.7,0,0,1,6,5.95,16.13,16.13,0,0,1,2.37,9.12,8.66,8.66,0,0,1-4.89,7.54l-3.46-6.51a4.51,4.51,0,0,0,1.9-1.72,4.07,4.07,0,0,0,.11-2.52,10,10,0,0,0-.91-2.76,6.31,6.31,0,0,0-2-2.3,2.44,2.44,0,0,0-2.76-.32,2,2,0,0,0-.89,2.51l2.51,11.14a7.26,7.26,0,0,1-.5,4.74,7.12,7.12,0,0,1-3.22,3.47,10.5,10.5,0,0,1-6,1.25,9,9,0,0,1-5.48-2.46,20.93,20.93,0,0,1-4.29-6.06,17.68,17.68,0,0,1-2-6.27Q795.44,390.7,800.66,387.75Z" style="fill: rgb(0, 75, 145);"/>
      <path class="cls-2" d="M832.82,405.81l1.49,3.46,7.36-3.19,3,7-7.36,3.18,1.71,4-4.65,2-1.72-3.95-15.26,6.61q-2.35,1-1.83,2.22l1.19,2.76L812,431.91a12.18,12.18,0,0,1-2.13-3.1q-3.21-6.58,2.14-9.87l17.67-7.66-1.5-3.45Z" style="fill: rgb(0, 75, 145);"/>
      <path class="cls-2" d="M834.08,455.58,827.73,437a6.68,6.68,0,0,0-4.19,2.41,6.09,6.09,0,0,0-.91,5.78,7.19,7.19,0,0,0,1.92,2.93,4.17,4.17,0,0,0,3.17,1.33l2.43,7.13A11.57,11.57,0,0,1,822,453.9a14.75,14.75,0,0,1-5.26-7,14.1,14.1,0,0,1-.25-8.5,11.9,11.9,0,0,1,4.83-6.78,17.49,17.49,0,0,1,3.23-1.68,24.61,24.61,0,0,1,6.08-1.79q12.12-2,15.76,8.69,2.45,7.17-1.89,12.51a17.82,17.82,0,0,1-8.31,5.55C835.61,455.12,834.91,455.33,834.08,455.58Zm-1.49-20.24,3.78,11.1q5.63-1.92,4.16-7.06a5.85,5.85,0,0,0-3-3.88A6,6,0,0,0,832.59,435.34Z" style="fill: rgb(0, 75, 145);"/>
      <path class="cls-2" d="M825.33,470.59l-1.5-7.43,29-5.83,1.5,7.43-4.33.87q5.64,2.6,6.43,6.55a9.31,9.31,0,0,1-.4,5.75,20.11,20.11,0,0,1-2.26,3.41,12,12,0,0,1,4,2.78,9.12,9.12,0,0,1,1.92,4.31,18,18,0,0,1,.28,2.23q.53,7.57-7.86,9.26L832,504l-1.49-7.43,19.89-4q2.79-.56,2.29-4.38a5,5,0,0,0-2.15-3.62,5.21,5.21,0,0,0-4.18-.81l-17.71,3.57-1.5-7.44,19.89-4q2.86-1.24,2.21-4.76a4.82,4.82,0,0,0-2.14-3.45A5.4,5.4,0,0,0,843,467Z" style="fill: rgb(0, 75, 145);"/>
    </g>
    <g>
      <path class="cls-2" d="M442.35,845.24l8.34,3.15a16.42,16.42,0,0,1-4,5.77,15.43,15.43,0,0,1-6,3.66q-6.34,2-13.91-.58A17.91,17.91,0,0,1,416.52,849a21.46,21.46,0,0,1-2.3-13.08,33,33,0,0,1,2-7.67,30.37,30.37,0,0,1,4-7.68q9.46-12.39,23.49-7.1a20.61,20.61,0,0,1,10,7.53,14.86,14.86,0,0,1,2,14l-8.22-3.1a9,9,0,0,0-.38-5.79q-1.71-4.19-7.32-5.85a9.36,9.36,0,0,0-5.82.21,12.17,12.17,0,0,0-5.08,3.44,25.15,25.15,0,0,0-4,6.63,21.87,21.87,0,0,0-2,9.23,10.69,10.69,0,0,0,3.66,8.41,10.05,10.05,0,0,0,2.65,1.52,12.6,12.6,0,0,0,3.79.91c2.88.26,5.14-.34,6.78-1.78A12.59,12.59,0,0,0,442.35,845.24Z" style="fill: rgb(0, 75, 145);"/>
      <path class="cls-2" d="M487.14,858.34l-21.56-5a7.47,7.47,0,0,0-.18,5.44,6.83,6.83,0,0,0,5,4.3,8.07,8.07,0,0,0,3.93-.1,4.76,4.76,0,0,0,3.17-2.24l8.26,1.9q-2,4.14-7.42,6.24a16.62,16.62,0,0,1-9.8.9,15.79,15.79,0,0,1-8.29-4.81,13.37,13.37,0,0,1-3.62-8.65,18.93,18.93,0,0,1,.31-4.09,27.71,27.71,0,0,1,1.89-6.88q5.28-12.78,17.67-9.93,8.33,1.9,10.87,9.24a20.1,20.1,0,0,1,.38,11.25C487.6,856.6,487.39,857.39,487.14,858.34Zm-20.27-10.58,12.88,3q1.49-6.51-4.31-8.17a6.59,6.59,0,0,0-5.49.58A6.78,6.78,0,0,0,466.87,847.76Z" style="fill: rgb(0, 75, 145);"/>
      <path class="cls-2" d="M494,873.34l4.14-33.05,8.47,1.06-.8,6.4a11.18,11.18,0,0,1,4.26-4.39,8.7,8.7,0,0,1,5.71-1.55,6.46,6.46,0,0,1,1.14.27l-1.08,8.72c-1.22-.27-2.19-.46-2.93-.55q-6.37-.79-8.11,5.55l-2.32,18.6Z" style="fill: rgb(0, 75, 145);"/>
      <path class="cls-2" d="M520,843.52l4.24.19.4-9,8.54.38-.41,9,4.85.22-.26,5.71-4.85-.22-.85,18.72c-.09,1.92.35,2.91,1.33,3l3.39.15-.27,5.89a13.78,13.78,0,0,1-4.19.62c-5.5,0-8.48-2.35-8.93-7l1-21.67-4.23-.19Z" style="fill: rgb(0, 75, 145);"/>
      <path class="cls-2" d="M544.79,839.84l-.17-7.73,8.54-.2.17,7.74Zm.83,37-.74-33.3,8.54-.19.74,33.3Z" style="fill: rgb(0, 75, 145);"/>
      <path class="cls-2" d="M560.42,849.58l-.51-5.69,4.65-.42-.35-3.85q-.74-8.26,7.34-9l5.32-.48.57,6.37-3,.27c-1.24.12-1.79.93-1.66,2.44l.32,3.48,5.14-.46.51,5.69-5.14.47L576,875.2l-8.5.77-2.42-26.81Z" style="fill: rgb(0, 75, 145);"/>
      <path class="cls-2" d="M584,836.9l-1.21-7.65,8.44-1.34,1.21,7.65Zm5.81,36.59-5.22-32.89,8.44-1.34,5.21,32.9Z" style="fill: rgb(0, 75, 145);"/>
      <path class="cls-2" d="M634.4,849.66l-21.46,5.4a7.53,7.53,0,0,0,2.32,4.92,6.86,6.86,0,0,0,6.41,1.56,8,8,0,0,0,3.45-1.88,4.65,4.65,0,0,0,1.8-3.43l8.23-2.07q.08,4.61-3.77,8.94a16.58,16.58,0,0,1-8.32,5.25,15.81,15.81,0,0,1-9.57-.51,13.37,13.37,0,0,1-7.15-6.06,19.06,19.06,0,0,1-1.59-3.78,27.35,27.35,0,0,1-1.44-7q-1.12-13.78,11.22-16.88,8.28-2.08,13.88,3.29a20.1,20.1,0,0,1,5.45,9.85C634,847.9,634.2,848.7,634.4,849.66Zm-22.86-.21,12.81-3.22q-1.64-6.5-7.55-5.32a6.53,6.53,0,0,0-4.62,3A6.72,6.72,0,0,0,611.54,849.45Z" style="fill: rgb(0, 75, 145);"/>
      <path class="cls-2" d="M659.55,807.49l16.17,42-8,3.07-1.26-3.27a10.67,10.67,0,0,1-6.29,7.5,12.35,12.35,0,0,1-7.44,1.09,13.79,13.79,0,0,1-6.59-3.92,25.13,25.13,0,0,1-5.69-7.75,23.12,23.12,0,0,1-1.86-10.81q.38-7.77,8-11.17,6.36-2.85,10.74,1.33l-5.76-15Zm-8.1,22.81a6.17,6.17,0,0,0-4.07,5.59A15.06,15.06,0,0,0,652.07,848a6.31,6.31,0,0,0,10.76-4.15,15.06,15.06,0,0,0-4.68-12.15A6.11,6.11,0,0,0,651.45,830.3Z" style="fill: rgb(0, 75, 145);"/>
    </g>
  </g>
</svg>