<?xml version="1.0" encoding="utf-8"?>
<svg viewBox="-3738.245 1138.967 295.405 296.011" xmlns="http://www.w3.org/2000/svg">
  <path class="cls-7" d="M -3342.201 1249.57 C -3342.201 1391.649 -3457.375 1506.823 -3599.454 1506.823 C -3741.533 1506.823 -3856.696 1391.649 -3856.696 1249.57 C -3856.696 1107.491 -3741.524 992.326 -3599.454 992.326 C -3531.221 992.326 -3465.797 1019.429 -3417.549 1067.668 C -3369.302 1115.915 -3342.201 1181.348 -3342.201 1249.57 L -3342.201 1249.57 Z M -3342.201 1249.57" style="stroke-width: 0px; fill: rgba(229, 229, 229, 0);" transform="matrix(1, 0, 0, 1, 0, 1.1368683772161603e-13)"/>
  <ellipse class="cls-9" cx="-3593.255" cy="1408.855" rx="142.244" ry="24.378" style="stroke-width: 0px; fill: rgb(251, 191, 16);" transform="matrix(1, 0, 0, 1, 0, 1.1368683772161603e-13)"/>
  <path class="cls-8" d="M -3608.018 1275.149 L -3608.018 1311.569 C -3608.018 1315.119 -3610.895 1317.996 -3614.445 1317.996 C -3617.995 1317.996 -3620.872 1315.119 -3620.872 1311.569 L -3620.872 1275.149 L -3638.011 1275.149 L -3638.011 1311.569 C -3638.011 1315.119 -3640.888 1317.996 -3644.438 1317.996 C -3647.988 1317.996 -3650.865 1315.119 -3650.865 1311.569 L -3650.865 1275.149 L -3668.004 1275.149 C -3668.004 1275.149 -3672.289 1317.996 -3668.004 1326.565 C -3663.771 1335.032 -3650.865 1334.238 -3650.865 1343.704 L -3650.865 1399.405 L -3608.018 1399.405 L -3608.018 1343.704 C -3608.018 1334.238 -3595.112 1335.032 -3590.879 1326.565 C -3586.594 1317.996 -3590.879 1275.149 -3590.879 1275.149 L -3608.018 1275.149 L -3608.018 1275.149 Z" style="fill: rgb(164, 201, 167); stroke-width: 0px;" transform="matrix(1, 0, 0, 1, 0, 1.1368683772161603e-13)"/>
  <path class="cls-10" d="M -3608.018 1403.69 L -3650.865 1403.69 C -3653.233 1403.69 -3655.15 1401.772 -3655.15 1399.405 L -3655.15 1343.704 C -3655.15 1341.377 -3656.41 1340.378 -3661.059 1337.9 C -3664.745 1335.935 -3669.332 1333.494 -3671.837 1328.481 C -3676.444 1319.269 -3673.005 1282.084 -3672.268 1274.721 C -3672.051 1272.532 -3670.206 1270.864 -3668.005 1270.864 L -3650.866 1270.864 C -3648.498 1270.864 -3646.581 1272.782 -3646.581 1275.149 L -3646.581 1311.569 C -3646.581 1312.752 -3645.619 1313.711 -3644.439 1313.711 C -3643.259 1313.711 -3642.297 1312.751 -3642.297 1311.569 L -3642.297 1275.149 C -3642.297 1272.783 -3640.381 1270.864 -3638.012 1270.864 L -3620.873 1270.864 C -3618.505 1270.864 -3616.588 1272.782 -3616.588 1275.149 L -3616.588 1311.569 C -3616.588 1312.752 -3615.626 1313.711 -3614.446 1313.711 C -3613.266 1313.711 -3612.304 1312.751 -3612.304 1311.569 L -3612.304 1275.149 C -3612.304 1272.783 -3610.388 1270.864 -3608.019 1270.864 L -3590.88 1270.864 C -3588.679 1270.864 -3586.834 1272.532 -3586.617 1274.722 C -3585.88 1282.084 -3582.442 1319.27 -3587.048 1328.482 C -3589.555 1333.495 -3594.14 1335.936 -3597.826 1337.901 C -3602.475 1340.378 -3603.735 1341.378 -3603.735 1343.705 L -3603.735 1399.406 C -3603.735 1401.771 -3605.651 1403.69 -3608.02 1403.69 L -3608.018 1403.69 Z M -3646.58 1395.121 L -3612.302 1395.121 L -3612.302 1343.705 C -3612.302 1335.904 -3606.264 1332.688 -3601.854 1330.338 C -3598.842 1328.733 -3595.996 1327.217 -3594.711 1324.649 C -3592.322 1319.875 -3593.251 1296.575 -3594.777 1279.434 L -3603.732 1279.434 L -3603.732 1311.569 C -3603.732 1317.475 -3608.535 1322.281 -3614.444 1322.281 C -3620.353 1322.281 -3625.156 1317.476 -3625.156 1311.569 L -3625.156 1279.434 L -3633.725 1279.434 L -3633.725 1311.569 C -3633.725 1317.475 -3638.528 1322.281 -3644.437 1322.281 C -3650.346 1322.281 -3655.149 1317.476 -3655.149 1311.569 L -3655.149 1279.434 L -3664.103 1279.434 C -3665.63 1296.575 -3666.559 1319.875 -3664.169 1324.649 C -3662.885 1327.216 -3660.04 1328.732 -3657.026 1330.338 C -3652.617 1332.688 -3646.579 1335.904 -3646.579 1343.705 L -3646.579 1395.121 L -3646.58 1395.121 Z" style="fill: rgb(40, 40, 40); stroke-width: 0px;" transform="matrix(1, 0, 0, 1, 0, 1.1368683772161603e-13)"/>
  <path class="cls-8" d="M -3556.601 1236.587 C -3558.096 1236.587 -3559.535 1236.786 -3560.937 1237.093 C -3560.932 1236.921 -3560.886 1236.761 -3560.886 1236.587 C -3560.886 1227.121 -3568.559 1219.448 -3578.025 1219.448 C -3580.699 1219.448 -3583.198 1220.113 -3585.454 1221.206 C -3589.204 1215.023 -3595.972 1210.879 -3603.734 1210.879 C -3604.508 1210.879 -3605.242 1211.027 -3605.996 1211.107 C -3605.918 1210.327 -3605.876 1209.537 -3605.876 1208.736 C -3605.876 1195.721 -3616.427 1185.17 -3629.442 1185.17 C -3642.108 1185.17 -3652.409 1195.168 -3652.955 1207.7 C -3655.012 1207.043 -3657.16 1206.593 -3659.435 1206.593 C -3668.61 1206.593 -3676.377 1212.389 -3679.43 1220.497 C -3681.225 1219.859 -3683.13 1219.447 -3685.144 1219.447 C -3694.61 1219.447 -3702.283 1227.12 -3702.283 1236.586 C -3702.283 1238.601 -3701.872 1240.504 -3701.233 1242.3 C -3709.341 1245.353 -3715.137 1253.12 -3715.137 1262.295 C -3715.137 1274.127 -3705.546 1283.719 -3693.713 1283.719 C -3690.893 1283.719 -3688.216 1283.142 -3685.75 1282.152 C -3680.777 1285.814 -3674.654 1288.004 -3668.005 1288.004 C -3662.084 1288.004 -3656.591 1286.252 -3651.948 1283.283 C -3647.568 1291.204 -3639.136 1296.573 -3629.443 1296.573 C -3618.825 1296.573 -3609.715 1290.134 -3605.793 1280.95 C -3600.591 1285.323 -3593.927 1288.004 -3586.596 1288.004 C -3577.704 1288.004 -3569.741 1284.112 -3564.249 1277.966 C -3561.868 1278.88 -3559.307 1279.435 -3556.603 1279.435 C -3544.771 1279.435 -3535.179 1269.844 -3535.179 1258.011 C -3535.179 1246.178 -3544.77 1236.587 -3556.603 1236.587 L -3556.601 1236.587 Z" style="fill: rgb(164, 201, 167); stroke-width: 0px;" transform="matrix(1, 0, 0, 1, 0, 1.1368683772161603e-13)"/>
  <path class="cls-10" d="M -3629.441 1300.857 C -3638.906 1300.857 -3647.73 1296.386 -3653.354 1288.959 C -3663.84 1293.968 -3676.602 1293.167 -3686.381 1286.911 C -3688.783 1287.636 -3691.239 1288.003 -3693.712 1288.003 C -3707.888 1288.003 -3719.42 1276.471 -3719.42 1262.295 C -3719.42 1253.001 -3714.269 1244.441 -3706.277 1239.941 C -3706.47 1238.819 -3706.566 1237.704 -3706.566 1236.587 C -3706.566 1224.775 -3696.954 1215.163 -3685.142 1215.163 C -3684.025 1215.163 -3682.912 1215.259 -3681.786 1215.452 C -3676.832 1206.648 -3667.121 1201.15 -3656.563 1202.497 C -3653.735 1190.042 -3642.655 1180.885 -3629.441 1180.885 C -3614.776 1180.885 -3602.725 1192.277 -3601.665 1206.675 C -3594.661 1207.23 -3588.297 1210.587 -3583.881 1216.015 C -3581.961 1215.448 -3579.999 1215.163 -3578.024 1215.163 C -3567.676 1215.163 -3559.019 1222.536 -3557.031 1232.306 C -3556.884 1232.304 -3556.742 1232.302 -3556.6 1232.302 C -3542.424 1232.302 -3530.892 1243.834 -3530.892 1258.01 C -3530.892 1272.186 -3542.424 1283.718 -3556.6 1283.718 C -3558.738 1283.718 -3560.893 1283.429 -3563.031 1282.858 C -3569.379 1288.881 -3577.819 1292.288 -3586.593 1292.288 C -3592.844 1292.288 -3598.987 1290.53 -3604.326 1287.266 C -3609.799 1295.658 -3619.184 1300.857 -3629.44 1300.857 L -3629.441 1300.857 Z M -3651.949 1278.999 C -3651.598 1278.999 -3651.242 1279.043 -3650.895 1279.131 C -3649.749 1279.421 -3648.774 1280.175 -3648.2 1281.21 C -3644.421 1288.043 -3637.232 1292.288 -3629.442 1292.288 C -3620.848 1292.288 -3613.111 1287.177 -3609.735 1279.269 C -3609.199 1278.02 -3608.107 1277.098 -3606.789 1276.784 C -3605.463 1276.466 -3604.078 1276.801 -3603.036 1277.671 C -3598.328 1281.627 -3592.642 1283.719 -3586.596 1283.719 C -3579.315 1283.719 -3572.332 1280.58 -3567.44 1275.11 C -3566.256 1273.784 -3564.369 1273.321 -3562.712 1273.966 C -3551.043 1278.453 -3539.464 1269.467 -3539.464 1258.011 C -3539.464 1248.561 -3547.151 1240.872 -3556.603 1240.872 C -3557.653 1240.872 -3558.77 1241.006 -3560.021 1241.278 C -3561.294 1241.561 -3562.644 1241.236 -3563.665 1240.4 C -3564.677 1239.563 -3565.25 1238.306 -3565.221 1236.989 C -3565.217 1236.82 -3565.175 1236.409 -3565.155 1236.24 C -3565.172 1229.499 -3570.938 1223.733 -3578.026 1223.733 C -3579.892 1223.733 -3581.762 1224.181 -3583.586 1225.061 C -3585.573 1226.023 -3587.971 1225.312 -3589.113 1223.43 C -3592.256 1218.254 -3597.721 1215.164 -3603.733 1215.164 C -3604.064 1215.164 -3604.381 1215.221 -3604.699 1215.263 L -3605.548 1215.37 C -3606.874 1215.487 -3608.109 1215.052 -3609.021 1214.142 C -3609.933 1213.232 -3610.389 1211.958 -3610.259 1210.674 C -3610.193 1210.037 -3610.159 1209.39 -3610.159 1208.737 C -3610.159 1198.105 -3618.808 1189.456 -3629.44 1189.456 C -3639.775 1189.456 -3648.223 1197.553 -3648.675 1207.888 C -3648.734 1209.223 -3649.412 1210.453 -3650.503 1211.216 C -3651.599 1211.978 -3652.997 1212.184 -3654.261 1211.783 C -3656.16 1211.175 -3657.851 1210.88 -3659.433 1210.88 C -3666.488 1210.88 -3672.911 1215.353 -3675.417 1222.008 C -3676.238 1224.194 -3678.664 1225.312 -3680.856 1224.537 C -3682.383 1223.997 -3683.785 1223.734 -3685.141 1223.734 C -3692.229 1223.734 -3697.995 1229.5 -3697.995 1236.588 C -3697.995 1237.952 -3697.731 1239.349 -3697.196 1240.862 C -3696.41 1243.063 -3697.53 1245.487 -3699.719 1246.312 C -3706.481 1248.856 -3710.85 1255.131 -3710.85 1262.296 C -3710.85 1271.746 -3703.163 1279.435 -3693.711 1279.435 C -3691.564 1279.435 -3689.426 1279.012 -3687.347 1278.175 C -3685.962 1277.627 -3684.406 1277.822 -3683.209 1278.702 C -3674.802 1284.89 -3663.074 1285.309 -3654.258 1279.672 C -3653.559 1279.23 -3652.759 1278.999 -3651.947 1278.999 L -3651.949 1278.999 Z" style="fill: rgb(40, 40, 40); stroke-width: 0px;" transform="matrix(1, 0, 0, 1, 0, 1.1368683772161603e-13)"/>
  <circle class="cls-6" cx="-3519.169" cy="1202.137" r="55.873" style="fill: rgb(255, 255, 255); stroke: rgb(40, 40, 40); stroke-linecap: round; stroke-linejoin: round; stroke-width: 9px;" transform="matrix(1, 0, 0, 1, 0, 1.1368683772161603e-13)"/>
  <path class="cls-10" d="M -3663.719 1270.864 C -3673.171 1270.864 -3680.858 1263.175 -3680.858 1253.725 C -3680.858 1244.275 -3673.171 1236.586 -3663.719 1236.586 C -3661.351 1236.586 -3659.434 1238.504 -3659.434 1240.871 C -3659.434 1243.238 -3661.35 1245.156 -3663.719 1245.156 C -3668.443 1245.156 -3672.288 1248.999 -3672.288 1253.725 C -3672.288 1258.451 -3668.442 1262.294 -3663.719 1262.294 C -3661.351 1262.294 -3659.434 1264.212 -3659.434 1266.579 C -3659.434 1268.946 -3661.35 1270.864 -3663.719 1270.864 L -3663.719 1270.864 Z" style="fill: rgb(40, 40, 40); stroke-width: 0px;" transform="matrix(1, 0, 0, 1, 0, 1.1368683772161603e-13)"/>
  <path class="cls-10" d="M -3663.045 1248.493 C -3664.711 1248.493 -3666.296 1247.512 -3666.991 1245.88 C -3667.66 1244.294 -3668.003 1242.61 -3668.003 1240.871 C -3668.003 1233.783 -3662.237 1228.017 -3655.149 1228.017 C -3651.964 1228.017 -3648.906 1229.193 -3646.542 1231.325 C -3644.784 1232.91 -3644.646 1235.62 -3646.232 1237.377 C -3647.817 1239.137 -3650.53 1239.271 -3652.282 1237.689 C -3653.069 1236.978 -3654.086 1236.587 -3655.148 1236.587 C -3657.512 1236.587 -3659.433 1238.51 -3659.433 1240.872 C -3659.433 1241.454 -3659.321 1242.012 -3659.099 1242.533 C -3658.175 1244.711 -3659.191 1247.226 -3661.371 1248.15 C -3661.914 1248.382 -3662.484 1248.493 -3663.044 1248.493 L -3663.045 1248.493 Z" style="fill: rgb(40, 40, 40); stroke-width: 0px;" transform="matrix(1, 0, 0, 1, 0, 1.1368683772161603e-13)"/>
  <path class="cls-10" d="M -3586.594 1270.864 C -3591.77 1270.864 -3596.419 1267.782 -3598.436 1263.014 C -3599.356 1260.834 -3598.34 1258.321 -3596.16 1257.399 C -3593.984 1256.479 -3591.465 1257.498 -3590.545 1259.675 C -3589.871 1261.267 -3588.323 1262.294 -3586.594 1262.294 C -3584.23 1262.294 -3582.309 1260.371 -3582.309 1258.009 C -3582.309 1256.779 -3582.811 1255.651 -3583.723 1254.829 C -3585.481 1253.245 -3585.622 1250.536 -3584.041 1248.779 C -3582.456 1247.023 -3579.752 1246.882 -3577.991 1248.461 C -3575.288 1250.893 -3573.74 1254.374 -3573.74 1258.009 C -3573.74 1265.097 -3579.506 1270.863 -3586.594 1270.863 L -3586.594 1270.864 Z" style="fill: rgb(40, 40, 40); stroke-width: 0px;" transform="matrix(1, 0, 0, 1, 0, 1.1368683772161603e-13)"/>
  <path class="cls-10" d="M -3488.045 1337.586 C -3489.141 1337.586 -3490.238 1337.167 -3491.074 1336.331 L -3503.928 1323.477 C -3505.601 1321.804 -3505.601 1319.092 -3503.928 1317.418 C -3502.255 1315.744 -3499.543 1315.745 -3497.869 1317.418 L -3485.015 1330.272 C -3483.342 1331.945 -3483.342 1334.657 -3485.015 1336.331 C -3485.852 1337.168 -3486.947 1337.586 -3488.044 1337.586 L -3488.045 1337.586 Z" style="fill: rgb(40, 40, 40); stroke-width: 0px;" transform="matrix(1, 0, 0, 1, 0, 1.1368683772161603e-13)"/>
  <path class="cls-10" d="M -3500.899 1337.586 C -3501.995 1337.586 -3503.092 1337.167 -3503.928 1336.331 C -3505.601 1334.658 -3505.601 1331.946 -3503.928 1330.272 L -3491.074 1317.418 C -3489.401 1315.745 -3486.689 1315.745 -3485.015 1317.418 C -3483.341 1319.091 -3483.342 1321.803 -3485.015 1323.477 L -3497.869 1336.331 C -3498.706 1337.168 -3499.801 1337.586 -3500.898 1337.586 L -3500.899 1337.586 Z" style="fill: rgb(40, 40, 40); stroke-width: 0px;" transform="matrix(1, 0, 0, 1, 0, 1.1368683772161603e-13)"/>
  <path class="cls-10" d="M -3691.569 1375.84 C -3699.837 1375.84 -3706.565 1369.112 -3706.565 1360.844 C -3706.565 1352.576 -3699.837 1345.848 -3691.569 1345.848 C -3683.301 1345.848 -3676.573 1352.576 -3676.573 1360.844 C -3676.573 1369.112 -3683.301 1375.84 -3691.569 1375.84 Z M -3691.569 1354.416 C -3695.114 1354.416 -3697.996 1357.299 -3697.996 1360.843 C -3697.996 1364.387 -3695.113 1367.27 -3691.569 1367.27 C -3688.025 1367.27 -3685.142 1364.387 -3685.142 1360.843 C -3685.142 1357.299 -3688.025 1354.416 -3691.569 1354.416 Z" style="fill: rgb(40, 40, 40); stroke-width: 0px;" transform="matrix(1, 0, 0, 1, 0, 1.1368683772161603e-13)"/>
  <circle class="cls-10" cx="-3588.584" cy="1174.877" r="4.58" style="fill: rgb(40, 40, 40); stroke-width: 0px;" transform="matrix(1, 0, 0, 1, 0, 1.1368683772161603e-13)"/>
  <path class="cls-10" d="M -3682.762 1189.455 C -3685.13 1189.455 -3687.047 1187.537 -3687.047 1185.17 L -3687.047 1168.031 C -3687.047 1165.665 -3685.131 1163.746 -3682.762 1163.746 C -3680.393 1163.746 -3678.477 1165.664 -3678.477 1168.031 L -3678.477 1185.17 C -3678.477 1187.536 -3680.393 1189.455 -3682.762 1189.455 Z" style="fill: rgb(40, 40, 40); stroke-width: 0px;" transform="matrix(1, 0, 0, 1, 0, 1.1368683772161603e-13)"/>
  <path class="cls-10" d="M -3674.192 1180.886 L -3691.331 1180.886 C -3693.699 1180.886 -3695.616 1178.968 -3695.616 1176.601 C -3695.616 1174.234 -3693.7 1172.316 -3691.331 1172.316 L -3674.192 1172.316 C -3671.824 1172.316 -3669.907 1174.234 -3669.907 1176.601 C -3669.907 1178.968 -3671.823 1180.886 -3674.192 1180.886 Z" style="fill: rgb(40, 40, 40); stroke-width: 0px;" transform="matrix(1, 0, 0, 1, 0, 1.1368683772161603e-13)"/>
  <path class="cls-2" d="M -3505.99 1194.662 L -3515.43 1179.282 C -3516.22 1177.982 -3517.64 1177.192 -3519.17 1177.192 C -3520.69 1177.192 -3522.11 1177.982 -3522.91 1179.282 L -3532.34 1194.662 C -3537.32 1202.772 -3538.44 1215.172 -3531.71 1221.902 C -3528.37 1225.242 -3523.91 1227.082 -3519.17 1227.082 C -3514.43 1227.082 -3509.97 1225.242 -3506.63 1221.902 C -3499.9 1215.172 -3501.02 1202.772 -3505.99 1194.662 Z" style="fill: rgb(40, 40, 40); fill-rule: evenodd; stroke-width: 0px;" transform="matrix(1, 0, 0, 1, 0, 1.1368683772161603e-13)"/>
  <path class="cls-3" d="M -3512.84 1215.692 C -3514.52 1217.372 -3516.77 1218.302 -3519.17 1218.302 C -3521.57 1218.302 -3523.82 1217.372 -3525.5 1215.692 C -3528.85 1212.342 -3527.92 1204.252 -3524.86 1199.252 L -3519.17 1189.982 L -3513.48 1199.252 C -3510.41 1204.252 -3509.49 1212.342 -3512.84 1215.692 Z" style="fill: rgb(214, 211, 140); fill-rule: evenodd; stroke-width: 0px;" transform="matrix(1, 0, 0, 1, 0, 1.1368683772161603e-13)"/>
  <path class="cls-2" d="M -3501.426 1351.547 C -3503.816 1343.607 -3508.006 1336.687 -3513.686 1331.147 C -3513.466 1329.937 -3513.746 1328.667 -3514.536 1327.657 C -3525.246 1313.977 -3539.326 1306.857 -3555.516 1306.857 L -3554.326 1291.217 C -3554.236 1289.997 -3554.656 1288.797 -3555.486 1287.897 C -3556.316 1286.997 -3557.486 1286.497 -3558.706 1286.497 L -3572.076 1286.497 C -3573.296 1286.497 -3574.466 1286.997 -3575.296 1287.897 C -3576.126 1288.797 -3576.546 1289.997 -3576.456 1291.217 L -3575.266 1306.857 C -3591.446 1306.857 -3605.536 1313.977 -3616.246 1327.657 C -3617.036 1328.667 -3617.316 1329.937 -3617.096 1331.157 C -3622.776 1336.687 -3626.956 1343.607 -3629.356 1351.547 C -3632.486 1361.907 -3632.416 1373.257 -3629.166 1384.337 C -3625.486 1396.847 -3617.836 1408.077 -3607.606 1415.987 C -3596.106 1424.877 -3581.506 1429.577 -3565.386 1429.577 C -3549.266 1429.577 -3534.666 1424.877 -3523.176 1415.987 C -3512.946 1408.077 -3505.286 1396.847 -3501.616 1384.337 C -3498.366 1373.257 -3498.296 1361.907 -3501.426 1351.547 L -3501.426 1351.547 Z" style="fill: rgb(40, 40, 40); fill-rule: evenodd; stroke-width: 0px;" transform="matrix(1, 0, 0, 1, 0, 1.1368683772161603e-13)"/>
  <path class="cls-4" d="M -3570.896 1315.827 C -3569.616 1315.947 -3568.346 1315.487 -3567.426 1314.587 C -3566.506 1313.677 -3566.036 1312.417 -3566.126 1311.127 L -3567.336 1295.277 L -3563.446 1295.277 L -3564.656 1311.127 C -3564.746 1312.417 -3564.276 1313.677 -3563.356 1314.587 C -3562.436 1315.487 -3561.166 1315.947 -3559.876 1315.827 C -3549.486 1314.897 -3540.236 1317.217 -3532.236 1322.737 C -3536.556 1322.107 -3540.406 1321.897 -3544.036 1322.057 C -3545.636 1322.127 -3547.076 1323.077 -3547.776 1324.507 C -3548.486 1325.947 -3548.356 1327.657 -3547.426 1328.967 C -3545.976 1331.037 -3544.496 1333.347 -3543.156 1335.637 C -3547.306 1334.037 -3550.896 1333.367 -3552.076 1333.177 C -3554.416 1332.787 -3556.646 1334.347 -3557.096 1336.677 C -3558.116 1342.017 -3560.376 1349.257 -3565.386 1355.527 C -3570.406 1349.257 -3572.666 1342.017 -3573.686 1336.677 C -3574.096 1334.587 -3575.926 1333.117 -3577.996 1333.117 C -3578.236 1333.117 -3578.466 1333.137 -3578.706 1333.177 C -3579.886 1333.367 -3583.476 1334.037 -3587.626 1335.637 C -3586.286 1333.347 -3584.796 1331.037 -3583.356 1328.967 C -3582.426 1327.657 -3582.296 1325.947 -3583.006 1324.507 C -3583.706 1323.077 -3585.146 1322.127 -3586.746 1322.057 C -3590.376 1321.897 -3594.226 1322.107 -3598.546 1322.737 C -3590.546 1317.217 -3581.296 1314.897 -3570.896 1315.827 Z" style="fill: rgb(251, 191, 16); fill-rule: evenodd; stroke-width: 0px;" transform="matrix(1, 0, 0, 1, 0, 1.1368683772161603e-13)"/>
  <path class="cls-5" d="M -3510.046 1381.867 C -3515.566 1400.687 -3533.016 1420.787 -3565.386 1420.787 C -3597.756 1420.787 -3615.206 1400.687 -3620.736 1381.867 C -3626.526 1362.157 -3620.556 1343.087 -3605.536 1333.037 C -3601.736 1332.147 -3598.306 1331.527 -3595.196 1331.167 C -3598.076 1336.097 -3601.056 1342.247 -3601.156 1346.737 C -3601.196 1348.597 -3600.056 1350.287 -3598.306 1350.937 C -3596.566 1351.597 -3594.596 1351.077 -3593.396 1349.647 C -3590.266 1345.897 -3584.966 1343.817 -3581.286 1342.767 C -3579.386 1349.767 -3575.666 1358.257 -3568.436 1365.207 C -3567.586 1366.027 -3566.486 1366.437 -3565.386 1366.437 C -3564.296 1366.437 -3563.196 1366.027 -3562.346 1365.207 C -3555.116 1358.257 -3551.396 1349.767 -3549.496 1342.767 C -3545.816 1343.817 -3540.516 1345.897 -3537.386 1349.647 C -3536.186 1351.077 -3534.216 1351.597 -3532.476 1350.937 C -3530.726 1350.287 -3529.586 1348.597 -3529.626 1346.737 C -3529.726 1342.247 -3532.706 1336.097 -3535.586 1331.167 C -3532.476 1331.527 -3529.046 1332.147 -3525.246 1333.037 C -3510.226 1343.087 -3504.256 1362.157 -3510.046 1381.867 L -3510.046 1381.867 Z" style="fill: rgb(255, 255, 255); fill-rule: evenodd; stroke-width: 0px;" transform="matrix(1, 0, 0, 1, 0, 1.1368683772161603e-13)"/>
  <path class="cls-1" d="M -3497.168 1187.997 C -3490.837 1183.657 -3482.605 1182.206 -3475.171 1184.119 C -3471.091 1185.169 -3467.311 1187.158 -3463.273 1188.359 C -3459.235 1189.56 -3454.635 1189.89 -3451.011 1187.743" style="fill: none; fill-rule: evenodd; stroke: rgb(40, 40, 40); stroke-linecap: round; stroke-linejoin: round; stroke-width: 9px;" transform="matrix(1, 0, 0, 1, 0, 1.1368683772161603e-13)"/>
  <path class="cls-1" d="M -3497.168 1174.312 C -3490.837 1169.972 -3482.605 1168.521 -3475.171 1170.434 C -3471.091 1171.484 -3467.311 1173.473 -3463.273 1174.674 C -3459.235 1175.875 -3454.635 1176.205 -3451.011 1174.058" style="fill: none; fill-rule: evenodd; stroke: rgb(40, 40, 40); stroke-linecap: round; stroke-linejoin: round; stroke-width: 9px;" transform="matrix(1, 0, 0, 1, 0, 1.1368683772161603e-13)"/>
</svg>