<?xml version="1.0" encoding="utf-8"?>
<svg viewBox="-805.751 -304.712 324.126 360.936" xmlns="http://www.w3.org/2000/svg">
  <path class="cls-3" d="M -384.585 -133.151 C -384.585 8.928 -499.759 124.102 -641.838 124.102 C -783.917 124.102 -899.08 8.928 -899.08 -133.151 C -899.08 -275.23 -783.908 -390.395 -641.838 -390.395 C -573.605 -390.395 -508.181 -363.292 -459.933 -315.053 C -411.686 -266.806 -384.585 -201.373 -384.585 -133.151 L -384.585 -133.151 Z M -384.585 -133.151" style="stroke-width: 0px; fill: rgba(229, 229, 229, 0);" transform="matrix(1, 0, 0, 1, 0, -2.2737367544323206e-13)"/>
  <path class="cls-7" d="M -567.906 -270.142 C -574.686 -274.874 -576.353 -284.242 -571.62 -291.022 C -566.887 -297.802 -557.52 -299.469 -550.74 -294.736 C -543.96 -290.004 -542.293 -280.636 -547.026 -273.856 C -551.759 -267.076 -561.126 -265.409 -567.906 -270.142 L -567.906 -270.142 Z M -555.644 -287.71 C -558.551 -289.739 -562.564 -289.025 -564.593 -286.118 C -566.622 -283.211 -565.908 -279.198 -563.001 -277.169 C -560.094 -275.14 -556.081 -275.854 -554.052 -278.761 C -552.023 -281.668 -552.737 -285.681 -555.644 -287.71 L -555.644 -287.71 Z" style="fill: rgb(40, 40, 40); stroke-width: 0px;" transform="matrix(1, 0, 0, 1, 0, -2.2737367544323206e-13)"/>
  <circle class="cls-7" cx="-541.245" cy="-94.265" r="4.58" style="fill: rgb(40, 40, 40); stroke-width: 0px;" transform="matrix(1, 0, 0, 1, 0, -2.2737367544323206e-13)"/>
  <ellipse class="cls-6" cx="-641.832" cy="26.134" rx="142.244" ry="24.378" style="stroke-width: 0px; fill: rgb(251, 191, 16);" transform="matrix(1, 0, 0, 1, 0, -2.2737367544323206e-13)"/>
  <path class="cls-4" d="M -694.003 -83.184 L -726.707 -25.546 L -687.552 -33.676 L -673.837 4.98 L -635.638 -62.177 L -694.003 -83.183 L -694.003 -83.184 Z" style="fill: rgb(164, 201, 167); stroke-width: 0px;" transform="matrix(1, 0, 0, 1, 0, -2.2737367544323206e-13)"/>
  <path class="cls-4" d="M -577.273 -83.184 L -635.638 -62.178 L -597.441 4.979 L -583.724 -33.677 L -544.569 -25.547 L -577.273 -83.185 L -577.273 -83.184 Z" style="fill: rgb(164, 201, 167); stroke-width: 0px;" transform="matrix(1, 0, 0, 1, 0, -2.2737367544323206e-13)"/>
  <path class="cls-1" d="M -635.638 -245.333 C -686.215 -245.333 -727.216 -204.332 -727.216 -153.755 C -727.216 -103.178 -686.217 -62.177 -635.638 -62.177 C -585.059 -62.177 -544.06 -103.168 -544.06 -153.755 C -544.06 -204.342 -585.063 -245.333 -635.638 -245.333 L -635.638 -245.333 Z" style="fill: rgb(251, 191, 16); stroke-width: 0px;" transform="matrix(1, 0, 0, 1, 0, -2.2737367544323206e-13)"/>
  <path class="cls-5" d="M -592.092 -166.448 L -613.695 -145.167 L -608.725 -115.251 L -635.638 -129.226 L -662.553 -115.251 L -657.581 -145.167 L -679.184 -166.448 L -649.203 -170.961 L -635.639 -198.089 L -622.075 -170.961 L -592.094 -166.448 L -592.092 -166.448 Z" style="fill: rgb(255, 255, 255); stroke-width: 0px;" transform="matrix(1, 0, 0, 1, 0, -2.2737367544323206e-13)"/>
  <path class="cls-7" d="M -711.952 -153.755 C -711.952 -111.674 -677.718 -77.44 -635.637 -77.44 C -593.556 -77.44 -559.322 -111.674 -559.322 -153.755 C -559.322 -195.836 -593.556 -230.07 -635.637 -230.07 C -677.718 -230.07 -711.952 -195.836 -711.952 -153.755 Z M -635.637 -219.895 C -599.167 -219.895 -569.497 -190.226 -569.497 -153.755 C -569.497 -117.284 -599.166 -87.615 -635.637 -87.615 C -672.108 -87.615 -701.777 -117.284 -701.777 -153.755 C -701.777 -190.226 -672.108 -219.895 -635.637 -219.895 Z" style="fill: rgb(40, 40, 40); stroke-width: 0px;" transform="matrix(1, 0, 0, 1, 0, -2.2737367544323206e-13)"/>
  <path class="cls-2" d="M -682.754 -162.825 L -663.033 -143.395 L -667.57 -116.087 C -667.886 -114.185 -667.101 -112.269 -665.541 -111.136 C -663.983 -110.003 -661.918 -109.85 -660.207 -110.737 L -635.637 -123.496 L -611.069 -110.737 C -609.372 -109.857 -607.307 -109.994 -605.735 -111.136 C -604.175 -112.269 -603.39 -114.185 -603.706 -116.087 L -608.243 -143.395 L -588.522 -162.825 C -587.149 -164.176 -586.658 -166.188 -587.254 -168.022 C -587.85 -169.854 -589.43 -171.192 -591.336 -171.48 L -618.704 -175.6 L -631.087 -200.365 C -631.948 -202.088 -633.71 -203.177 -635.636 -203.177 C -637.562 -203.177 -639.325 -202.088 -640.187 -200.365 L -652.57 -175.6 L -679.938 -171.48 C -681.844 -171.194 -683.424 -169.854 -684.02 -168.022 C -684.616 -166.188 -684.123 -164.176 -682.752 -162.825 L -682.754 -162.825 Z M -648.444 -165.931 C -646.806 -166.177 -645.391 -167.205 -644.65 -168.685 L -635.637 -186.712 L -626.624 -168.685 C -625.883 -167.204 -624.468 -166.177 -622.83 -165.931 L -602.911 -162.932 L -617.266 -148.792 C -618.445 -147.629 -618.985 -145.966 -618.715 -144.332 L -615.412 -124.456 L -633.294 -133.741 C -634.027 -134.123 -634.832 -134.313 -635.637 -134.313 C -636.442 -134.313 -637.247 -134.122 -637.982 -133.741 L -655.864 -124.456 L -652.561 -144.332 C -652.289 -145.966 -652.829 -147.629 -654.01 -148.792 L -668.363 -162.932 L -648.444 -165.931 L -648.444 -165.931 Z" style="fill: rgb(2, 2, 2); stroke-width: 0px;" transform="matrix(1, 0, 0, 1, 0, -2.2737367544323206e-13)"/>
  <path class="cls-7" d="M -630.55 -245.333 C -630.55 -242.523 -632.828 -240.245 -635.638 -240.245 C -638.448 -240.245 -640.726 -242.523 -640.726 -245.333 C -640.726 -248.143 -638.448 -250.421 -635.638 -250.421 C -632.828 -250.421 -630.55 -248.143 -630.55 -245.333 Z" style="fill: rgb(40, 40, 40); stroke-width: 0px;" transform="matrix(1, 0, 0, 1, 0, -2.2737367544323206e-13)"/>
  <path class="cls-7" d="M -659.615 -247.422 C -702.413 -236.497 -732.303 -197.98 -732.303 -153.755 C -732.303 -126.288 -720.754 -100.406 -700.481 -82.077 L -731.132 -28.058 C -732.118 -26.319 -731.995 -24.165 -730.818 -22.551 C -729.641 -20.935 -727.63 -20.158 -725.673 -20.566 L -690.864 -27.794 L -678.63 6.681 C -677.966 8.557 -676.267 9.871 -674.284 10.048 C -672.301 10.225 -670.399 9.225 -669.415 7.494 L -635.638 -51.889 L -601.863 7.494 C -600.953 9.094 -599.26 10.066 -597.443 10.066 C -597.294 10.066 -597.143 10.06 -596.994 10.048 C -595.011 9.871 -593.311 8.555 -592.646 6.681 L -580.414 -27.794 L -545.605 -20.566 C -543.649 -20.161 -541.636 -20.938 -540.46 -22.551 C -539.281 -24.165 -539.16 -26.319 -540.146 -28.058 L -570.797 -82.077 C -550.524 -100.406 -538.975 -126.288 -538.975 -153.755 C -538.975 -197.98 -568.865 -236.497 -611.661 -247.422 C -614.386 -248.118 -617.154 -246.474 -617.85 -243.751 C -618.546 -241.028 -616.902 -238.258 -614.179 -237.562 C -575.89 -227.788 -549.148 -193.325 -549.148 -153.755 C -549.148 -105.595 -588.261 -67.265 -635.638 -67.265 C -683.015 -67.265 -722.128 -105.627 -722.128 -153.755 C -722.128 -193.325 -695.388 -227.788 -657.099 -237.562 C -654.376 -238.258 -652.733 -241.028 -653.426 -243.751 C -654.122 -246.474 -656.89 -248.117 -659.615 -247.422 L -659.615 -247.422 Z M -672.759 -7.203 L -682.757 -35.378 C -683.608 -37.775 -686.096 -39.176 -688.586 -38.659 L -716.733 -32.814 L -692.475 -75.566 C -678.331 -65.283 -661.583 -59.019 -644.168 -57.469 L -672.758 -7.203 L -672.759 -7.203 Z M -582.69 -38.659 C -585.178 -39.176 -587.668 -37.775 -588.519 -35.378 L -598.515 -7.203 L -627.107 -57.469 C -609.69 -59.019 -592.944 -65.283 -578.798 -75.566 L -554.54 -32.814 L -582.689 -38.659 L -582.69 -38.659 Z" style="fill: rgb(40, 40, 40); stroke-width: 0px;" transform="matrix(1, 0, 0, 1, 0, -2.2737367544323206e-13)"/>
  <path class="cls-7" d="M -747.477 -72.859 C -748.571 -72.796 -749.69 -73.151 -750.573 -73.939 L -764.143 -86.034 C -765.909 -87.608 -766.065 -90.316 -764.491 -92.083 C -762.917 -93.85 -760.209 -94.005 -758.442 -92.431 L -744.872 -80.336 C -743.106 -78.762 -742.95 -76.054 -744.524 -74.287 C -745.311 -73.404 -746.381 -72.923 -747.476 -72.86 L -747.477 -72.859 Z" style="fill: rgb(40, 40, 40); stroke-width: 0px;" transform="matrix(1, 0, 0, 1, 0, -2.2737367544323206e-13)"/>
  <path class="cls-7" d="M -760.311 -72.121 C -761.405 -72.058 -762.524 -72.413 -763.407 -73.201 C -765.173 -74.775 -765.329 -77.483 -763.755 -79.25 L -751.66 -92.82 C -750.086 -94.586 -747.378 -94.742 -745.611 -93.168 C -743.844 -91.594 -743.689 -88.886 -745.263 -87.119 L -757.358 -73.549 C -758.145 -72.666 -759.215 -72.185 -760.31 -72.122 L -760.311 -72.121 Z" style="fill: rgb(40, 40, 40); stroke-width: 0px;" transform="matrix(1, 0, 0, 1, 0, -2.2737367544323206e-13)"/>
</svg>