<?xml version="1.0" encoding="utf-8"?>
<svg viewBox="755.709 934.529 310.973 318.614" xmlns="http://www.w3.org/2000/svg">
  <path class="cls-1" d="M 1167.61 1063.204 C 1167.61 1205.283 1052.436 1320.457 910.357 1320.457 C 768.278 1320.457 653.115 1205.283 653.115 1063.204 C 653.115 921.125 768.287 805.96 910.357 805.96 C 978.59 805.96 1044.014 833.063 1092.262 881.302 C 1140.509 929.549 1167.61 994.982 1167.61 1063.204 L 1167.61 1063.204 Z M 1167.61 1063.204" style="stroke-width: 0px; fill: rgba(229, 229, 229, 0);" transform="matrix(1, 0, 0, 1, 5.684341886080802e-14, 0)"/>
  <ellipse class="cls-2" cx="916.556" cy="1222.489" rx="142.244" ry="24.378" style="stroke-width: 0px; fill: rgb(251, 191, 16);" transform="matrix(1, 0, 0, 1, 5.684341886080802e-14, 0)"/>
  <path class="cls-3" d="M 1014.569 1105.632 C 1013.475 1105.695 1012.356 1105.34 1011.473 1104.552 L 997.903 1092.457 C 996.137 1090.883 995.981 1088.175 997.555 1086.408 C 999.129 1084.641 1001.837 1084.486 1003.604 1086.06 L 1017.174 1098.155 C 1018.94 1099.729 1019.096 1102.437 1017.522 1104.204 C 1016.735 1105.087 1015.665 1105.568 1014.57 1105.631 L 1014.569 1105.632 Z" style="fill: rgb(40, 40, 40); stroke-width: 0px;" transform="matrix(1, 0, 0, 1, 5.684341886080802e-14, 0)"/>
  <path class="cls-3" d="M 1001.735 1106.37 C 1000.641 1106.433 999.522 1106.078 998.639 1105.29 C 996.873 1103.716 996.717 1101.008 998.291 1099.241 L 1010.386 1085.671 C 1011.96 1083.905 1014.668 1083.749 1016.435 1085.323 C 1018.202 1086.897 1018.357 1089.605 1016.783 1091.372 L 1004.688 1104.942 C 1003.901 1105.825 1002.831 1106.306 1001.736 1106.369 L 1001.735 1106.37 Z" style="fill: rgb(40, 40, 40); stroke-width: 0px;" transform="matrix(1, 0, 0, 1, 5.684341886080802e-14, 0)"/>
  <path class="cls-3" d="M 766.072 1100.208 C 759.292 1095.476 757.625 1086.108 762.358 1079.328 C 767.091 1072.548 776.458 1070.881 783.238 1075.614 C 790.018 1080.346 791.685 1089.714 786.952 1096.494 C 782.219 1103.274 772.852 1104.941 766.072 1100.208 Z M 778.334 1082.64 C 775.427 1080.611 771.414 1081.325 769.385 1084.232 C 767.356 1087.139 768.07 1091.152 770.977 1093.181 C 773.884 1095.21 777.897 1094.496 779.926 1091.589 C 781.955 1088.682 781.241 1084.669 778.334 1082.64 Z" style="fill: rgb(40, 40, 40); stroke-width: 0px;" transform="matrix(1, 0, 0, 1, 5.684341886080802e-14, 0)"/>
  <circle class="cls-3" cx="805.517" cy="1153.546" r="4.58" style="fill: rgb(40, 40, 40); stroke-width: 0px;" transform="matrix(1, 0, 0, 1, 5.684341886080802e-14, 0)"/>
  <polygon class="cls-6" points="1028.062 1002.73 1030.549 1011.484 790.176 1011.484 799.849 977.429 790.176 943.375 943.844 943.375 960.808 943.375 1030.549 943.375 1020.876 977.429 1023.312 986.007 1028.062 1002.73" style="fill: rgb(255, 255, 255); stroke: rgb(40, 40, 40); stroke-linecap: round; stroke-linejoin: round; stroke-width: 9px;" transform="matrix(1, 0, 0, 1, 5.684341886080802e-14, 0)"/>
  <line class="cls-8" x1="957.301" y1="962.72" x2="957.301" y2="992.138" style="fill: rgb(255, 255, 255); stroke: rgb(40, 40, 40); stroke-linecap: round; stroke-linejoin: round; stroke-width: 8.193px;" transform="matrix(1, 0, 0, 1, 5.684341886080802e-14, 0)"/>
  <line class="cls-8" x1="977.658" y1="962.72" x2="977.658" y2="992.138" style="fill: rgb(255, 255, 255); stroke: rgb(40, 40, 40); stroke-linecap: round; stroke-linejoin: round; stroke-width: 8.193px;" transform="matrix(1, 0, 0, 1, 5.684341886080802e-14, 0)"/>
  <line class="cls-8" x1="957.301" y1="976.924" x2="977.658" y2="976.924" style="fill: rgb(255, 255, 255); stroke: rgb(40, 40, 40); stroke-linecap: round; stroke-linejoin: round; stroke-width: 8.193px;" transform="matrix(1, 0, 0, 1, 5.684341886080802e-14, 0)"/>
  <polyline class="cls-8" points="854.989 962.72 843.066 962.72 843.066 992.138" style="fill: rgb(255, 255, 255); stroke: rgb(40, 40, 40); stroke-linecap: round; stroke-linejoin: round; stroke-width: 8.193px;" transform="matrix(1, 0, 0, 1, 5.684341886080802e-14, 0)"/>
  <line class="cls-8" x1="843.285" y1="977.151" x2="854.042" y2="977.151" style="fill: rgb(255, 255, 255); stroke: rgb(40, 40, 40); stroke-linecap: round; stroke-linejoin: round; stroke-width: 8.193px;" transform="matrix(1, 0, 0, 1, 5.684341886080802e-14, 0)"/>
  <polyline class="cls-8" points="910.848 962.72 898.452 962.72 898.452 992.138 910.848 992.138" style="fill: rgb(255, 255, 255); stroke: rgb(40, 40, 40); stroke-linecap: round; stroke-linejoin: round; stroke-width: 8.193px;" transform="matrix(1, 0, 0, 1, 5.684341886080802e-14, 0)"/>
  <line class="cls-8" x1="909.462" y1="977.429" x2="898.523" y2="977.429" style="fill: rgb(255, 255, 255); stroke: rgb(40, 40, 40); stroke-linecap: round; stroke-linejoin: round; stroke-width: 8.193px;" transform="matrix(1, 0, 0, 1, 5.684341886080802e-14, 0)"/>
  <path class="cls-8" d="M 942.767 965.744 C 942.767 965.744 937.488 961.307 931.263 963.182 C 925.547 964.904 924.78 971.583 928.883 974.19 C 930.832 975.428 932.87 976.103 937.441 977.66 C 947.743 981.169 943.608 992.137 934.886 992.137 C 930.519 992.137 926.853 990.224 924.635 987.776" style="fill: rgb(255, 255, 255); stroke: rgb(40, 40, 40); stroke-linecap: round; stroke-linejoin: round; stroke-width: 8.193px;" transform="matrix(1, 0, 0, 1, 5.684341886080802e-14, 0)"/>
  <line class="cls-8" x1="872.306" y1="978.049" x2="884.664" y2="992.138" style="fill: rgb(255, 255, 255); stroke: rgb(40, 40, 40); stroke-linecap: round; stroke-linejoin: round; stroke-width: 8.193px;" transform="matrix(1, 0, 0, 1, 5.684341886080802e-14, 0)"/>
  <line class="cls-8" x1="868.777" y1="978.049" x2="868.777" y2="992.138" style="fill: rgb(255, 255, 255); stroke: rgb(40, 40, 40); stroke-linecap: round; stroke-linejoin: round; stroke-width: 8.193px;" transform="matrix(1, 0, 0, 1, 5.684341886080802e-14, 0)"/>
  <path class="cls-8" d="M 884.664 970.365 C 884.664 974.587 880.962 978.049 876.586 978.049 L 868.778 978.049 L 868.778 962.72 L 876.586 962.72 C 880.962 962.72 884.664 966.143 884.664 970.365 Z" style="fill: rgb(255, 255, 255); stroke: rgb(40, 40, 40); stroke-linecap: round; stroke-linejoin: round; stroke-width: 8.193px;" transform="matrix(1, 0, 0, 1, 5.684341886080802e-14, 0)"/>
  <line class="cls-4" x1="799.849" y1="977.429" x2="828.868" y2="977.429" style="fill: none; stroke: rgb(40, 40, 40); stroke-linecap: round; stroke-linejoin: round; stroke-width: 9px;" transform="matrix(1, 0, 0, 1, 5.684341886080802e-14, 0)"/>
  <line class="cls-4" x1="1020.876" y1="977.429" x2="991.857" y2="977.429" style="fill: none; stroke: rgb(40, 40, 40); stroke-linecap: round; stroke-linejoin: round; stroke-width: 9px;" transform="matrix(1, 0, 0, 1, 5.684341886080802e-14, 0)"/>
  <path class="cls-7" d="M 999.729 1031.146 L 919.104 1031.146 C 881.997 1031.146 851.916 1061.227 851.916 1098.334 L 851.916 1108.832" style="fill: none; stroke: rgb(40, 40, 40); stroke-linecap: round; stroke-linejoin: round; stroke-width: 8.75px;" transform="matrix(1, 0, 0, 1, 5.684341886080802e-14, 0)"/>
  <circle class="cls-9" cx="935.901" cy="1151.664" r="27.295" style="fill: rgb(251, 191, 16); stroke: rgb(40, 40, 40); stroke-miterlimit: 10; stroke-width: 9px;" transform="matrix(1, 0, 0, 1, 5.684341886080802e-14, 0)"/>
  <path class="cls-7" d="M 935.901 1178.958 C 935.901 1188.242 941.536 1195.755 948.499 1195.755" style="fill: none; stroke: rgb(40, 40, 40); stroke-linecap: round; stroke-linejoin: round; stroke-width: 8.75px;" transform="matrix(1, 0, 0, 1, 5.684341886080802e-14, 0)"/>
  <path class="cls-7" d="M 935.901 1178.958 C 935.901 1188.242 930.266 1195.755 923.303 1195.755" style="fill: none; stroke: rgb(40, 40, 40); stroke-linecap: round; stroke-linejoin: round; stroke-width: 8.75px;" transform="matrix(1, 0, 0, 1, 5.684341886080802e-14, 0)"/>
  <path class="cls-7" d="M 999.729 1031.146 L 864.28 1031.146 C 839.58 1031.146 815.219 1025.395 793.127 1014.349" style="fill: none; stroke: rgb(40, 40, 40); stroke-linecap: round; stroke-linejoin: round; stroke-width: 8.75px;" transform="matrix(1, 0, 0, 1, 5.684341886080802e-14, 0)"/>
  <path class="cls-5" d="M 893.909 1001.751 L 898.108 1001.751 C 912.023 1001.751 923.303 1013.031 923.303 1026.946 L 923.303 1031.145 L 919.104 1031.145 C 905.189 1031.145 893.909 1019.865 893.909 1005.95 L 893.909 1001.751 Z" style="fill: rgb(164, 201, 167); stroke: rgb(40, 40, 40); stroke-miterlimit: 10; stroke-width: 9px;" transform="matrix(1, 0, 0, 1, 5.684341886080802e-14, 0)"/>
  <path class="cls-5" d="M 965.295 989.154 L 958.996 989.154 C 939.283 989.154 923.303 1005.135 923.303 1024.847 L 923.303 1031.146 L 929.602 1031.146 C 949.315 1031.146 965.295 1015.165 965.295 995.453 L 965.295 989.154 Z" style="fill: rgb(164, 201, 167); stroke: rgb(40, 40, 40); stroke-miterlimit: 10; stroke-width: 9px;" transform="matrix(1, 0, 0, 1, 5.684341886080802e-14, 0)"/>
  <path class="cls-5" d="M 838.269 1029.046 L 834.07 1029.046 C 822.474 1029.046 813.074 1038.446 813.074 1050.042 L 813.074 1054.241 L 817.273 1054.241 C 828.869 1054.241 838.269 1044.841 838.269 1033.245 L 838.269 1029.046 Z" style="fill: rgb(164, 201, 167); stroke: rgb(40, 40, 40); stroke-miterlimit: 10; stroke-width: 9px;" transform="matrix(1, 0, 0, 1, 5.684341886080802e-14, 0)"/>
  <circle class="cls-9" cx="851.917" cy="1136.126" r="27.295" style="fill: rgb(251, 191, 16); stroke: rgb(40, 40, 40); stroke-miterlimit: 10; stroke-width: 9px;" transform="matrix(1, 0, 0, 1, 5.684341886080802e-14, 0)"/>
  <path class="cls-7" d="M 851.917 1163.421 C 851.917 1172.705 857.552 1180.218 864.515 1180.218" style="fill: none; stroke: rgb(40, 40, 40); stroke-linecap: round; stroke-linejoin: round; stroke-width: 8.75px;" transform="matrix(1, 0, 0, 1, 5.684341886080802e-14, 0)"/>
  <path class="cls-7" d="M 851.917 1163.421 C 851.917 1172.705 846.282 1180.218 839.319 1180.218" style="fill: none; stroke: rgb(40, 40, 40); stroke-linecap: round; stroke-linejoin: round; stroke-width: 8.75px;" transform="matrix(1, 0, 0, 1, 5.684341886080802e-14, 0)"/>
  <path class="cls-5" d="M 822.522 1079.437 L 826.721 1079.437 C 840.636 1079.437 851.916 1090.717 851.916 1104.632 L 851.916 1108.831 L 847.717 1108.831 C 833.802 1108.831 822.522 1097.551 822.522 1083.636 L 822.522 1079.437 Z" style="fill: rgb(164, 201, 167); stroke: rgb(40, 40, 40); stroke-miterlimit: 10; stroke-width: 9px;" transform="matrix(1, 0, 0, 1, 5.684341886080802e-14, 0)"/>
  <polygon class="cls-7" points="940.861 1069.593 940.861 1069.593 940.861 1069.593 940.861 1069.593" style="fill: none; stroke: rgb(40, 40, 40); stroke-linecap: round; stroke-linejoin: round; stroke-width: 8.75px;" transform="matrix(1, 0, 0, 1, 5.684341886080802e-14, 0)"/>
  <path class="cls-7" d="M 935.901 1124.368 L 935.901 1094.134 C 935.901 1092.034 936.005 1089.958 936.205 1087.911" style="fill: none; stroke: rgb(40, 40, 40); stroke-linecap: round; stroke-linejoin: round; stroke-width: 8.75px;" transform="matrix(1, 0, 0, 1, 5.684341886080802e-14, 0)"/>
  <path class="cls-7" d="M 950.762 1053.496 C 962.317 1039.826 979.589 1031.146 998.89 1031.146 L 999.73 1031.146" style="fill: none; stroke: rgb(40, 40, 40); stroke-linecap: round; stroke-linejoin: round; stroke-width: 8.75px;" transform="matrix(1, 0, 0, 1, 5.684341886080802e-14, 0)"/>
</svg>