<?xml version="1.0" encoding="utf-8"?>
<svg viewBox="255.668 14.779 370.274 339.637" xmlns="http://www.w3.org/2000/svg">
  <path class="cls-5" d="M 702.54 155.837 C 702.54 297.916 587.366 413.09 445.287 413.09 C 303.208 413.09 188.045 297.916 188.045 155.837 C 188.045 13.758 303.217 -101.407 445.287 -101.407 C 513.52 -101.407 578.944 -74.304 627.192 -26.065 C 675.439 22.182 702.54 87.615 702.54 155.837 L 702.54 155.837 Z M 702.54 155.837" style="stroke-width: 0px; fill: rgba(229, 229, 229, 0);" transform="matrix(1, 0, 0, 1, 0, -2.2737367544323206e-13)"/>
  <ellipse class="cls-6" cx="445.293" cy="315.122" rx="142.244" ry="24.378" style="stroke-width: 0px; fill: rgb(251, 191, 16);" transform="matrix(1, 0, 0, 1, 0, -2.2737367544323206e-13)"/>
  <path class="cls-2" d="M 546.761 260.867 C 569.377 236.305 583.188 203.51 583.188 167.49 C 583.188 91.333 521.45 29.595 445.293 29.595 C 369.136 29.595 307.398 91.333 307.398 167.49 C 307.398 243.647 369.136 305.385 445.293 305.385 C 467.326 305.385 488.151 300.218 506.625 291.029" style="fill: none; stroke: rgb(40, 40, 40); stroke-linecap: round; stroke-linejoin: round; stroke-width: 9px;" transform="matrix(1, 0, 0, 1, 0, -2.2737367544323206e-13)"/>
  <line class="cls-2" x1="528.102" y1="277.766" x2="528.102" y2="277.766" style="fill: none; stroke: rgb(40, 40, 40); stroke-linecap: round; stroke-linejoin: round; stroke-width: 9px;" transform="matrix(1, 0, 0, 1, 0, -2.2737367544323206e-13)"/>
  <path class="cls-4" d="M 445.293 52.017 L 445.293 167.49 L 333.828 137.243 C 347.113 88.139 391.985 52.017 445.293 52.017 L 445.293 52.017 Z" style="fill: rgb(251, 191, 16); stroke: rgb(40, 40, 40); stroke-miterlimit: 10; stroke-width: 9px;" transform="matrix(1, 0, 0, 1, 0, -2.2737367544323206e-13)"/>
  <path class="cls-3" d="M 479.968 277.665 C 469.026 281.107 457.372 282.962 445.293 282.962 C 381.52 282.962 329.82 231.263 329.82 167.489 C 329.82 157.024 331.21 146.883 333.828 137.242 L 445.293 167.489 L 479.968 277.664 L 479.968 277.665 Z" style="fill: rgb(214, 211, 140); stroke: rgb(40, 40, 40); stroke-miterlimit: 10; stroke-width: 9px;" transform="matrix(1, 0, 0, 1, 0, -2.2737367544323206e-13)"/>
  <path class="cls-1" d="M 560.766 167.49 C 560.766 219.178 526.802 262.94 479.969 277.665 L 445.294 167.49 L 445.294 52.017 C 509.067 52.017 560.767 103.716 560.767 167.49 L 560.766 167.49 Z" style="fill: rgb(255, 255, 255); stroke: rgb(40, 40, 40); stroke-miterlimit: 10; stroke-width: 9px;" transform="matrix(1, 0, 0, 1, 0, -2.2737367544323206e-13)"/>
  <polyline class="cls-2" points="414.455 86.375 396.413 86.375 396.413 130.89" style="fill: none; stroke: rgb(40, 40, 40); stroke-linecap: round; stroke-linejoin: round; stroke-width: 9px;" transform="matrix(1, 0, 0, 1, 0, -2.2737367544323206e-13)"/>
  <line class="cls-2" x1="396.413" y1="108.211" x2="413.022" y2="108.211" style="fill: none; stroke: rgb(40, 40, 40); stroke-linecap: round; stroke-linejoin: round; stroke-width: 9px;" transform="matrix(1, 0, 0, 1, 0, -2.2737367544323206e-13)"/>
  <path class="cls-2" d="M 512.21 121.43 C 508.631 119.012 504.318 117.601 499.674 117.601 C 487.291 117.601 477.252 127.64 477.252 140.023 C 477.252 152.406 487.291 162.445 499.674 162.445 C 504.703 162.445 508.84 160.789 511.98 157.993 C 512.63 157.415 513.237 156.787 513.8 156.115" style="fill: none; stroke: rgb(40, 40, 40); stroke-linecap: round; stroke-linejoin: round; stroke-width: 9px;" transform="matrix(1, 0, 0, 1, 0, -2.2737367544323206e-13)"/>
  <line class="cls-2" x1="396.454" y1="187.109" x2="396.454" y2="231.953" style="fill: none; stroke: rgb(40, 40, 40); stroke-linecap: round; stroke-linejoin: round; stroke-width: 9px;" transform="matrix(1, 0, 0, 1, 0, -2.2737367544323206e-13)"/>
  <path class="cls-2" d="M 421.844 199.764 C 421.844 206.753 415.93 212.419 408.941 212.419 C 405.475 212.419 396.542 212.475 396.542 212.475 C 396.542 212.475 396.486 203.287 396.486 199.764 C 396.486 196.87 396.455 187.109 396.455 187.109 L 408.941 187.109 C 415.93 187.109 421.844 192.775 421.844 199.764 L 421.844 199.764 Z" style="fill: none; stroke: rgb(40, 40, 40); stroke-linecap: round; stroke-linejoin: round; stroke-width: 9px;" transform="matrix(1, 0, 0, 1, 0, -2.2737367544323206e-13)"/>
  <line class="cls-2" x1="476.684" y1="184.867" x2="537.783" y2="184.867" style="fill: none; stroke: rgb(40, 40, 40); stroke-linecap: round; stroke-linejoin: round; stroke-width: 9px;" transform="matrix(1, 0, 0, 1, 0, -2.2737367544323206e-13)"/>
  <line class="cls-2" x1="476.684" y1="207.289" x2="515.361" y2="207.289" style="fill: none; stroke: rgb(40, 40, 40); stroke-linecap: round; stroke-linejoin: round; stroke-width: 9px;" transform="matrix(1, 0, 0, 1, 0, -2.2737367544323206e-13)"/>
  <path class="cls-7" d="M 602.117 102.358 C 601.023 102.421 599.904 102.066 599.021 101.278 L 585.451 89.183 C 583.685 87.609 583.529 84.901 585.103 83.134 C 586.677 81.367 589.385 81.212 591.152 82.786 L 604.722 94.881 C 606.488 96.455 606.644 99.163 605.07 100.93 C 604.283 101.813 603.213 102.294 602.118 102.357 L 602.117 102.358 Z" style="fill: rgb(40, 40, 40); stroke-width: 0px;" transform="matrix(1, 0, 0, 1, 0, -2.2737367544323206e-13)"/>
  <path class="cls-7" d="M 589.283 103.097 C 588.189 103.16 587.07 102.805 586.187 102.017 C 584.421 100.443 584.265 97.735 585.839 95.968 L 597.934 82.398 C 599.508 80.632 602.216 80.476 603.983 82.05 C 605.75 83.624 605.905 86.332 604.331 88.099 L 592.236 101.669 C 591.449 102.552 590.379 103.033 589.284 103.096 L 589.283 103.097 Z" style="fill: rgb(40, 40, 40); stroke-width: 0px;" transform="matrix(1, 0, 0, 1, 0, -2.2737367544323206e-13)"/>
  <path class="cls-7" d="M 268.949 200.238 C 262.169 195.506 260.502 186.138 265.235 179.358 C 269.968 172.578 279.335 170.911 286.115 175.644 C 292.895 180.376 294.562 189.744 289.829 196.524 C 285.096 203.304 275.729 204.971 268.949 200.238 Z M 281.211 182.67 C 278.304 180.641 274.291 181.355 272.262 184.262 C 270.233 187.169 270.947 191.182 273.854 193.211 C 276.761 195.24 280.774 194.526 282.803 191.619 C 284.832 188.712 284.118 184.699 281.211 182.67 Z" style="fill: rgb(40, 40, 40); stroke-width: 0px;" transform="matrix(1, 0, 0, 1, 0, -2.2737367544323206e-13)"/>
  <circle class="cls-7" cx="283.957" cy="146.129" r="4.58" style="fill: rgb(40, 40, 40); stroke-width: 0px;" transform="matrix(1, 0, 0, 1, 0, -2.2737367544323206e-13)"/>
</svg>