<svg xmlns="http://www.w3.org/2000/svg" xmlns:xlink="http://www.w3.org/1999/xlink" viewBox="0 0 1200 200"><defs><style>.cls-1{fill:none;}.cls-2{isolation:isolate;}.cls-3{clip-path:url(#clip-path);}.cls-4{fill:#ffce62;}.cls-5{fill:#fbbf10;}.cls-6{fill:#8eb03a;}.cls-7{fill:#8f864b;}.cls-8{fill:#9d3044;opacity:0.2;mix-blend-mode:multiply;}.cls-9{fill:#3a6867;}.cls-10{fill:#00444a;}.cls-11{fill:#548c4b;}</style><clipPath id="clip-path"><rect class="cls-1" x="-2.5" y="-3" width="1205" height="206"/></clipPath></defs><title>illustrations-bg-1</title><g class="cls-2"><g id="Layer_1" data-name="Layer 1"><g class="cls-3"><path class="cls-4" d="M-41.5,110s276-72,786-9,485,38,485,38V256H-54.5Z"/><path class="cls-5" d="M-12.5,74s354,98,811,50,605-21,605-21V248H-51.5V74Z"/><polygon class="cls-6" points="-13.5 233.75 -13.5 159.16 1200.5 169.6 1200.5 233.75 -13.5 233.75"/><path class="cls-7" d="M889.82,187.16h-9.25a8.41,8.41,0,0,1,5.28-2A4.78,4.78,0,0,1,889.82,187.16Z"/><path class="cls-7" d="M757.74,188.47h7.71S762.7,184.12,757.74,188.47Z"/><path class="cls-8" d="M755.65,184.83h-9.27l6.78-5.5A6.37,6.37,0,0,1,755.65,184.83Z"/><path class="cls-8" d="M820.42,173.4c0,.72-1.91,1.3-4.26,1.3s-4.26-.58-4.26-1.3,1.91-1.3,4.26-1.3S820.42,172.68,820.42,173.4Z"/><path class="cls-8" d="M876.48,189.74c0,.72-1.91,1.3-4.26,1.3s-4.26-.58-4.26-1.3,1.91-1.3,4.26-1.3S876.48,189,876.48,189.74Z"/><path class="cls-8" d="M692.74,180.4c0,.71-1.91,1.3-4.26,1.3s-4.25-.59-4.25-1.3,1.9-1.3,4.25-1.3S692.74,179.68,692.74,180.4Z"/><ellipse class="cls-8" cx="765.45" cy="173.88" rx="4.26" ry="1.3"/><ellipse class="cls-8" cx="1163.82" cy="195.72" rx="4.26" ry="1.3"/><path class="cls-8" d="M1093.18,172.52c0,.72-1.91,1.3-4.26,1.3s-4.25-.58-4.25-1.3,1.9-1.29,4.25-1.29S1093.18,171.81,1093.18,172.52Z"/><ellipse class="cls-8" cx="882.2" cy="195.72" rx="6.99" ry="2.13"/><path class="cls-8" d="M950.4,190.52c0,.42-1.14.77-2.54.77s-2.54-.35-2.54-.77,1.14-.78,2.54-.78S950.4,190.09,950.4,190.52Z"/><path class="cls-8" d="M1018.66,179.53c0,.43-1.13.78-2.54.78s-2.54-.35-2.54-.78,1.14-.77,2.54-.77S1018.66,179.1,1018.66,179.53Z"/><ellipse class="cls-8" cx="1097.41" cy="176.29" rx="2.54" ry="0.77"/><ellipse class="cls-8" cx="821.28" cy="177.87" rx="1.27" ry="0.39"/><path class="cls-8" d="M898.25,181.73c0,.21-.57.38-1.27.38s-1.27-.17-1.27-.38.57-.39,1.27-.39S898.25,181.51,898.25,181.73Z"/><path class="cls-8" d="M1012,174.7c0,.21-.57.39-1.27.39s-1.27-.18-1.27-.39.57-.39,1.27-.39S1012,174.48,1012,174.7Z"/><ellipse class="cls-8" cx="1084.67" cy="184.1" rx="1.27" ry="0.39"/><ellipse class="cls-8" cx="1108.63" cy="173.31" rx="1.27" ry="0.39"/><path class="cls-8" d="M1171.24,188.44c0,.22-.57.39-1.27.39s-1.27-.17-1.27-.39.56-.38,1.27-.38S1171.24,188.23,1171.24,188.44Z"/><path class="cls-8" d="M1137.43,181.48c0,.22-.56.39-1.26.39s-1.27-.17-1.27-.39.56-.38,1.27-.38S1137.43,181.27,1137.43,181.48Z"/><path class="cls-7" d="M440.82,187.16h-9.25a8.41,8.41,0,0,1,5.28-2A4.78,4.78,0,0,1,440.82,187.16Z"/><path class="cls-8" d="M371.42,173.4c0,.72-1.91,1.3-4.26,1.3s-4.26-.58-4.26-1.3,1.91-1.3,4.26-1.3S371.42,172.68,371.42,173.4Z"/><path class="cls-8" d="M427.48,189.74c0,.72-1.91,1.3-4.26,1.3s-4.26-.58-4.26-1.3,1.91-1.3,4.26-1.3S427.48,189,427.48,189.74Z"/><ellipse class="cls-8" cx="714.82" cy="195.72" rx="4.26" ry="1.3"/><path class="cls-8" d="M644.18,172.52c0,.72-1.91,1.3-4.26,1.3s-4.25-.58-4.25-1.3,1.9-1.29,4.25-1.29S644.18,171.81,644.18,172.52Z"/><ellipse class="cls-8" cx="433.2" cy="195.72" rx="6.99" ry="2.13"/><path class="cls-8" d="M501.4,190.52c0,.42-1.14.77-2.54.77s-2.54-.35-2.54-.77,1.14-.78,2.54-.78S501.4,190.09,501.4,190.52Z"/><path class="cls-8" d="M569.66,179.53c0,.43-1.13.78-2.54.78s-2.54-.35-2.54-.78,1.14-.77,2.54-.77S569.66,179.1,569.66,179.53Z"/><ellipse class="cls-8" cx="648.41" cy="176.29" rx="2.54" ry="0.77"/><ellipse class="cls-8" cx="372.28" cy="177.87" rx="1.27" ry="0.39"/><path class="cls-8" d="M449.25,181.73c0,.21-.57.38-1.27.38s-1.27-.17-1.27-.38.57-.39,1.27-.39S449.25,181.51,449.25,181.73Z"/><path class="cls-8" d="M563,174.7c0,.21-.57.39-1.27.39s-1.27-.18-1.27-.39.57-.39,1.27-.39S563,174.48,563,174.7Z"/><ellipse class="cls-8" cx="635.67" cy="184.1" rx="1.27" ry="0.39"/><ellipse class="cls-8" cx="659.63" cy="173.31" rx="1.27" ry="0.39"/><path class="cls-8" d="M722.24,188.44c0,.22-.57.39-1.27.39s-1.27-.17-1.27-.39.56-.38,1.27-.38S722.24,188.23,722.24,188.44Z"/><path class="cls-8" d="M688.43,181.48c0,.22-.56.39-1.26.39s-1.27-.17-1.27-.39.56-.38,1.27-.38S688.43,181.27,688.43,181.48Z"/><path class="cls-7" d="M89.82,186.16H80.57a8.41,8.41,0,0,1,5.28-2A4.78,4.78,0,0,1,89.82,186.16Z"/><path class="cls-8" d="M20.42,172.4c0,.72-1.91,1.3-4.26,1.3s-4.26-.58-4.26-1.3,1.91-1.3,4.26-1.3S20.42,171.68,20.42,172.4Z"/><path class="cls-8" d="M76.48,188.74c0,.72-1.91,1.3-4.26,1.3s-4.26-.58-4.26-1.3,1.91-1.3,4.26-1.3S76.48,188,76.48,188.74Z"/><ellipse class="cls-8" cx="363.82" cy="194.72" rx="4.26" ry="1.3"/><path class="cls-8" d="M293.18,171.52c0,.72-1.91,1.3-4.26,1.3s-4.25-.58-4.25-1.3,1.9-1.29,4.25-1.29S293.18,170.81,293.18,171.52Z"/><ellipse class="cls-8" cx="82.2" cy="194.72" rx="6.99" ry="2.13"/><path class="cls-8" d="M150.4,189.52c0,.42-1.14.77-2.54.77s-2.54-.35-2.54-.77,1.14-.78,2.54-.78S150.4,189.09,150.4,189.52Z"/><path class="cls-8" d="M218.66,178.53c0,.43-1.13.78-2.54.78s-2.54-.35-2.54-.78,1.14-.77,2.54-.77S218.66,178.1,218.66,178.53Z"/><ellipse class="cls-8" cx="297.41" cy="175.29" rx="2.54" ry="0.77"/><ellipse class="cls-8" cx="21.28" cy="176.87" rx="1.27" ry="0.39"/><path class="cls-8" d="M98.25,180.73c0,.21-.57.38-1.27.38s-1.27-.17-1.27-.38.57-.39,1.27-.39S98.25,180.51,98.25,180.73Z"/><path class="cls-8" d="M212,173.7c0,.21-.57.39-1.27.39s-1.27-.18-1.27-.39.57-.39,1.27-.39S212,173.48,212,173.7Z"/><ellipse class="cls-8" cx="284.67" cy="183.1" rx="1.27" ry="0.39"/><ellipse class="cls-8" cx="308.63" cy="172.31" rx="1.27" ry="0.39"/><path class="cls-8" d="M371.24,187.44c0,.22-.57.39-1.27.39s-1.27-.17-1.27-.39.56-.38,1.27-.38S371.24,187.23,371.24,187.44Z"/><path class="cls-8" d="M337.43,180.48c0,.22-.56.39-1.26.39s-1.27-.17-1.27-.39.56-.38,1.27-.38S337.43,180.27,337.43,180.48Z"/><ellipse class="cls-8" cx="153.36" cy="199.55" rx="1.27" ry="0.39"/><path class="cls-9" d="M66.88,180a80.75,80.75,0,0,1-10.8-17.43A17.39,17.39,0,0,1,63.3,170a52,52,0,0,1,3.75,9.8,72.75,72.75,0,0,1,.2-14.61c.73-4.83,2.53-9.62,5.89-13.16-.54,9.52-3.15,18.79-5.75,28a27.49,27.49,0,0,1,17.77-17.63c-3.45,7.53-9.43,14.47-17.2,17.36,6.76-3.56,13.91-6.18,21.54-5.86-6.66,4.06-15.2,5.35-22.62,6.15"/><path class="cls-10" d="M49.82,177.69a62.21,62.21,0,0,0,8.24-13.29,13.18,13.18,0,0,0-5.51,5.65,39.87,39.87,0,0,0-2.86,7.47,54.55,54.55,0,0,0-.16-11.14,18.45,18.45,0,0,0-4.48-10c.41,7.26,2.39,14.33,4.38,21.33a20.93,20.93,0,0,0-13.55-13.44c2.63,5.74,7.19,11,13.12,13.24-5.16-2.72-10.61-4.71-16.43-4.47,5.08,3.09,11.59,4.08,17.25,4.69"/><path class="cls-9" d="M1024.49,188a82,82,0,0,1-11-17.74,17.66,17.66,0,0,1,7.35,7.54,52.45,52.45,0,0,1,3.81,10,73.76,73.76,0,0,1,.21-14.86c.74-4.91,2.57-9.79,6-13.39-.55,9.69-3.2,19.12-5.85,28.46A27.94,27.94,0,0,1,1043.09,170c-3.52,7.66-9.6,14.73-17.51,17.67,6.88-3.63,14.16-6.29,21.92-6-6.78,4.13-15.46,5.44-23,6.26"/><path class="cls-10" d="M1007.12,185.65a63.16,63.16,0,0,0,8.39-13.53,13.54,13.54,0,0,0-5.61,5.75,40.92,40.92,0,0,0-2.91,7.61,55.07,55.07,0,0,0-.16-11.34,18.75,18.75,0,0,0-4.56-10.21c.41,7.39,2.44,14.58,4.46,21.7A21.33,21.33,0,0,0,992.93,172c2.69,5.85,7.33,11.23,13.35,13.48-5.24-2.77-10.79-4.8-16.71-4.56,5.17,3.15,11.79,4.16,17.55,4.78"/><path class="cls-11" d="M1088.5,170.42c15.3.29,28.81.81,40.16,1.38l-.9-16.09a28.87,28.87,0,0,0-2.68-3.65c-5.1-5.89-12.48-9.67-13.66-8.43-1.62,1.69,7.83,13.24,6.83,14-.43.34-2.06-1.85-5.67-3.11-1.83-.65-4.53-1.6-6.75-.32-2.7,1.57-3.55,5.77-2.41,8.52,1,2.46,3.61,3.66,3.51,3.79s-3.17-2.78-7.61-3.56a9.83,9.83,0,0,0-5.08.14C1091.47,164.14,1089.36,167.17,1088.5,170.42Z"/><path class="cls-11" d="M1163.36,170.42c-15.3.29-28.81.81-40.16,1.38l.91-16.09a28.78,28.78,0,0,1,2.67-3.65c5.11-5.89,12.48-9.67,13.66-8.43,1.62,1.69-7.83,13.24-6.82,14,.42.34,2.05-1.85,5.67-3.11,1.82-.65,4.52-1.6,6.74-.32,2.71,1.57,3.55,5.77,2.41,8.52-1,2.46-3.61,3.66-3.51,3.79s3.17-2.78,7.62-3.56a9.8,9.8,0,0,1,5.07.14C1160.39,164.14,1162.5,167.17,1163.36,170.42Z"/><path class="cls-9" d="M1131.71,178a97.13,97.13,0,0,1-13-20.9,20.76,20.76,0,0,1,8.66,8.89,61.7,61.7,0,0,1,4.49,11.74c-.31-5.84-.62-11.73.25-17.51s3-11.53,7-15.77c-.64,11.41-3.77,22.52-6.88,33.52a32.92,32.92,0,0,1,21.3-21.13c-4.15,9-11.31,17.35-20.62,20.81,8.1-4.26,16.67-7.4,25.82-7-8,4.87-18.22,6.41-27.11,7.38"/><path class="cls-10" d="M1106.25,177.23a73.79,73.79,0,0,0,9.88-15.94,15.9,15.9,0,0,0-6.61,6.78,47.73,47.73,0,0,0-3.42,9,66.24,66.24,0,0,0-.19-13.36,22.16,22.16,0,0,0-5.38-12c.49,8.7,2.87,17.18,5.25,25.57a25.13,25.13,0,0,0-16.25-16.12c3.16,6.89,8.63,13.24,15.73,15.88-6.18-3.26-12.72-5.65-19.69-5.37,6.09,3.72,13.89,4.89,20.68,5.63"/></g></g></g></svg>