<svg id="Layer_1" data-name="Layer 1" xmlns="http://www.w3.org/2000/svg" xmlns:xlink="http://www.w3.org/1999/xlink" viewBox="0 0 560 270"><defs><style>.cls-1{fill:none;}.cls-2{clip-path:url(#clip-path);}.cls-3{clip-path:url(#clip-path-2);}.cls-4{fill:#3a6867;}.cls-15,.cls-5{fill:#a4c9a7;}.cls-5{opacity:0.75;}.cls-6{opacity:0.5;}.cls-7{fill:#e7eded;}.cls-8{fill:#c6d3d3;}.cls-31,.cls-42,.cls-43,.cls-9{fill:#fff;}.cls-10{fill:#ffe6ad;}.cls-11{fill:#8eb03a;}.cls-12{fill:#548c4b;}.cls-13{fill:#e4e2b3;}.cls-14{fill:#fbbf10;}.cls-16{fill:#42603e;}.cls-17{fill:#36707c;}.cls-18{fill:#fff9e6;}.cls-19{fill:#dfe7e7;}.cls-20{fill:#fcd153;}.cls-21{fill:#a0b7b6;}.cls-22{fill:#00444a;}.cls-23{fill:#b4e3e3;}.cls-24{fill:#426e6d;}.cls-25{fill:#487372;}.cls-26{fill:#b4c6c5;}.cls-27{fill:#fccc40;}.cls-28{fill:#cad6d6;}.cls-29{fill:#ffe19f;}.cls-30{fill:#feeebe;}.cls-31{opacity:0.6;}.cls-32{fill:#de3427;}.cls-33{fill:#f4767a;}.cls-34{fill:#ae0406;}.cls-35{fill:#4c7675;}.cls-36{fill:#ccd8d7;}.cls-37{fill:#e1e8e8;}.cls-38{opacity:0.66;}.cls-39{fill:#d99604;}.cls-40{fill:#f2a805;}.cls-41{fill:#ffce62;}.cls-42,.cls-45{opacity:0.65;}.cls-43{opacity:0.84;}.cls-44{opacity:0.89;}.cls-46{fill:url(#linear-gradient);}.cls-47{fill:url(#linear-gradient-2);}</style><clipPath id="clip-path"><rect class="cls-1" x="-3" y="-3" width="1727" height="277"/></clipPath><clipPath id="clip-path-2"><rect class="cls-1" x="-3.5" y="-16" width="567" height="290"/></clipPath><linearGradient id="linear-gradient" x1="179.56" y1="121.2" x2="179.51" y2="109.53" gradientUnits="userSpaceOnUse"><stop offset="0" stop-color="#ab8d25"/><stop offset="1" stop-color="#8eb03a"/></linearGradient><linearGradient id="linear-gradient-2" x1="179.47" y1="104.05" x2="181.17" y2="92.85" gradientTransform="translate(360.36 198.74) rotate(-180)" xlink:href="#linear-gradient"/></defs><title>harvest-illustratioons 2</title><g class="cls-2"><g class="cls-3"><rect class="cls-4" x="-4" y="-3" width="570.77" height="276.76"/><path class="cls-5" d="M578.82,272.13c-12.26,0-31.32-.91-31.58-.6H483.92l-18.53,0H299.46l-48.46,0H123.25l-53.36,0H-26.6l-.48-.75-.05-.06a.3.3,0,0,1-.05-.1c-.22-.25-81.33-111.59,50.89-160.45,51.73-19.12-1-54.74,75.53-77.86C198,2.4,253.61,69.8,368.15,44.92c107.43-23.33,171,14.73,163.89,57.82-3.34,20.24,2.63,50.4,25.06,54.48,35,6.39,42.85,44.33,37.75,77.37C591.7,255,579.25,272.13,578.82,272.13Z"/><g class="cls-6"><rect class="cls-7" x="107.77" y="102.32" width="94.42" height="164.25"/><rect class="cls-8" x="108.37" y="157.73" width="94.42" height="2.25"/><rect class="cls-8" x="107.77" y="184.58" width="94.42" height="2.25"/><rect class="cls-4" x="108.37" y="102.32" width="93.85" height="2.56"/><rect class="cls-4" x="105.96" y="102.32" width="2.4" height="164.25"/><rect class="cls-4" x="201.58" y="102.32" width="2.4" height="164.25"/><rect class="cls-8" x="108.37" y="127.33" width="93.21" height="2.25"/><rect class="cls-8" x="108.37" y="213.8" width="93.21" height="2.25"/><rect class="cls-8" x="108.37" y="242.73" width="93.21" height="2.25"/><path class="cls-8" d="M135,176.17h2.43a0,0,0,0,1,0,0v7.3a1.19,1.19,0,0,1-1.19,1.19h-.05a1.19,1.19,0,0,1-1.19-1.19v-7.3A0,0,0,0,1,135,176.17Z"/><path class="cls-8" d="M135.34,180.86h1.8a0,0,0,0,1,0,0v2.59a.88.88,0,0,1-.88.88h0a.88.88,0,0,1-.88-.88v-2.59A0,0,0,0,1,135.34,180.86Z"/><path class="cls-8" d="M138.65,176.17h2.43a0,0,0,0,1,0,0v7.3a1.19,1.19,0,0,1-1.19,1.19h-.05a1.19,1.19,0,0,1-1.19-1.19v-7.3A0,0,0,0,1,138.65,176.17Z"/><path class="cls-8" d="M139,180.13h1.8a0,0,0,0,1,0,0v3.31a.88.88,0,0,1-.88.88h0a.88.88,0,0,1-.88-.88v-3.31A0,0,0,0,1,139,180.13Z"/><path class="cls-8" d="M131.75,176.17h2.43a0,0,0,0,1,0,0v7.3a1.19,1.19,0,0,1-1.19,1.19h-.05a1.19,1.19,0,0,1-1.19-1.19v-7.3A0,0,0,0,1,131.75,176.17Z"/><path class="cls-8" d="M132.06,180.13h1.8a0,0,0,0,1,0,0v3.31a.88.88,0,0,1-.88.88h0a.88.88,0,0,1-.88-.88v-3.31A0,0,0,0,1,132.06,180.13Z"/><rect class="cls-8" x="131.93" y="183.25" width="0.68" height="1.94"/><rect class="cls-8" x="143.61" y="183.25" width="0.68" height="1.94"/><rect class="cls-8" x="131.93" y="183.25" width="12.36" height="0.57"/><path class="cls-8" d="M180.61,204.79H183a0,0,0,0,1,0,0v7.3a1.19,1.19,0,0,1-1.19,1.19h-.05a1.19,1.19,0,0,1-1.19-1.19v-7.3A0,0,0,0,1,180.61,204.79Z"/><path class="cls-8" d="M180.92,209.47h1.8a0,0,0,0,1,0,0v2.59a.88.88,0,0,1-.88.88h0a.88.88,0,0,1-.88-.88v-2.59A0,0,0,0,1,180.92,209.47Z"/><path class="cls-8" d="M184.23,204.79h2.43a0,0,0,0,1,0,0v7.3a1.19,1.19,0,0,1-1.19,1.19h-.05a1.19,1.19,0,0,1-1.19-1.19v-7.3A0,0,0,0,1,184.23,204.79Z"/><path class="cls-8" d="M184.54,208.75h1.8a0,0,0,0,1,0,0v3.31a.88.88,0,0,1-.88.88h0a.88.88,0,0,1-.88-.88v-3.31A0,0,0,0,1,184.54,208.75Z"/><path class="cls-8" d="M177.33,204.79h2.43a0,0,0,0,1,0,0v7.3a1.19,1.19,0,0,1-1.19,1.19h-.05a1.19,1.19,0,0,1-1.19-1.19v-7.3A0,0,0,0,1,177.33,204.79Z"/><path class="cls-8" d="M177.64,208.75h1.8a0,0,0,0,1,0,0v3.31a.88.88,0,0,1-.88.88h0a.88.88,0,0,1-.88-.88v-3.31A0,0,0,0,1,177.64,208.75Z"/><rect class="cls-8" x="177.51" y="211.87" width="0.68" height="1.94"/><rect class="cls-8" x="189.19" y="211.87" width="0.68" height="1.94"/><rect class="cls-8" x="177.51" y="211.87" width="12.36" height="0.57"/><path class="cls-8" d="M120.1,176.17h2.43a0,0,0,0,1,0,0v7.3a1.19,1.19,0,0,1-1.19,1.19h-.05a1.19,1.19,0,0,1-1.19-1.19v-7.3a0,0,0,0,1,0,0Z"/><path class="cls-8" d="M120.41,180.86h1.8a0,0,0,0,1,0,0v2.59a.88.88,0,0,1-.88.88h0a.88.88,0,0,1-.88-.88v-2.59A0,0,0,0,1,120.41,180.86Z"/><path class="cls-8" d="M123.72,176.17h2.43a0,0,0,0,1,0,0v7.3a1.19,1.19,0,0,1-1.19,1.19h-.05a1.19,1.19,0,0,1-1.19-1.19v-7.3A0,0,0,0,1,123.72,176.17Z"/><path class="cls-8" d="M124,180.13h1.8a0,0,0,0,1,0,0v3.31a.88.88,0,0,1-.88.88h0a.88.88,0,0,1-.88-.88v-3.31a0,0,0,0,1,0,0Z"/><path class="cls-8" d="M116.82,176.17h2.43a0,0,0,0,1,0,0v7.3a1.19,1.19,0,0,1-1.19,1.19H118a1.19,1.19,0,0,1-1.19-1.19v-7.3A0,0,0,0,1,116.82,176.17Z"/><path class="cls-8" d="M117.13,180.13h1.8a0,0,0,0,1,0,0v3.31a.88.88,0,0,1-.88.88h0a.88.88,0,0,1-.88-.88v-3.31a0,0,0,0,1,0,0Z"/><rect class="cls-8" x="117" y="183.25" width="0.68" height="1.94"/><rect class="cls-8" x="128.68" y="183.25" width="0.68" height="1.94"/><rect class="cls-8" x="117" y="183.25" width="12.36" height="0.57"/><path class="cls-8" d="M145.56,204.79H148a0,0,0,0,1,0,0v7.3a1.19,1.19,0,0,1-1.19,1.19h-.05a1.19,1.19,0,0,1-1.19-1.19v-7.3A0,0,0,0,1,145.56,204.79Z"/><path class="cls-8" d="M145.87,209.47h1.8a0,0,0,0,1,0,0v2.59a.88.88,0,0,1-.88.88h0a.88.88,0,0,1-.88-.88v-2.59A0,0,0,0,1,145.87,209.47Z"/><path class="cls-8" d="M149.18,204.79h2.43a0,0,0,0,1,0,0v7.3a1.19,1.19,0,0,1-1.19,1.19h-.05a1.19,1.19,0,0,1-1.19-1.19v-7.3A0,0,0,0,1,149.18,204.79Z"/><path class="cls-8" d="M149.49,208.75h1.8a0,0,0,0,1,0,0v3.31a.88.88,0,0,1-.88.88h0a.88.88,0,0,1-.88-.88v-3.31A0,0,0,0,1,149.49,208.75Z"/><path class="cls-8" d="M142.28,204.79h2.43a0,0,0,0,1,0,0v7.3a1.19,1.19,0,0,1-1.19,1.19h-.05a1.19,1.19,0,0,1-1.19-1.19v-7.3A0,0,0,0,1,142.28,204.79Z"/><path class="cls-8" d="M142.59,208.75h1.8a0,0,0,0,1,0,0v3.31a.88.88,0,0,1-.88.88h0a.88.88,0,0,1-.88-.88v-3.31A0,0,0,0,1,142.59,208.75Z"/><rect class="cls-8" x="142.46" y="211.87" width="0.68" height="1.94"/><rect class="cls-8" x="154.14" y="211.87" width="0.68" height="1.94"/><rect class="cls-8" x="142.46" y="211.87" width="12.36" height="0.57"/><path class="cls-8" d="M130.62,204.79h2.43a0,0,0,0,1,0,0v7.3a1.19,1.19,0,0,1-1.19,1.19h-.05a1.19,1.19,0,0,1-1.19-1.19v-7.3A0,0,0,0,1,130.62,204.79Z"/><path class="cls-8" d="M130.94,209.47h1.8a0,0,0,0,1,0,0v2.59a.88.88,0,0,1-.88.88h0a.88.88,0,0,1-.88-.88v-2.59a0,0,0,0,1,0,0Z"/><path class="cls-8" d="M134.25,204.79h2.43a0,0,0,0,1,0,0v7.3a1.19,1.19,0,0,1-1.19,1.19h-.05a1.19,1.19,0,0,1-1.19-1.19v-7.3A0,0,0,0,1,134.25,204.79Z"/><path class="cls-8" d="M134.56,208.75h1.8a0,0,0,0,1,0,0v3.31a.88.88,0,0,1-.88.88h0a.88.88,0,0,1-.88-.88v-3.31A0,0,0,0,1,134.56,208.75Z"/><path class="cls-8" d="M127.35,204.79h2.43a0,0,0,0,1,0,0v7.3a1.19,1.19,0,0,1-1.19,1.19h-.05a1.19,1.19,0,0,1-1.19-1.19v-7.3A0,0,0,0,1,127.35,204.79Z"/><path class="cls-8" d="M127.66,208.75h1.8a0,0,0,0,1,0,0v3.31a.88.88,0,0,1-.88.88h0a.88.88,0,0,1-.88-.88v-3.31A0,0,0,0,1,127.66,208.75Z"/><rect class="cls-8" x="127.53" y="211.87" width="0.68" height="1.94"/><rect class="cls-8" x="139.2" y="211.87" width="0.68" height="1.94"/><rect class="cls-8" x="127.53" y="211.87" width="12.36" height="0.57"/><path class="cls-8" d="M136.48,233.82h2.43a0,0,0,0,1,0,0v7.3a1.19,1.19,0,0,1-1.19,1.19h-.05a1.19,1.19,0,0,1-1.19-1.19v-7.3A0,0,0,0,1,136.48,233.82Z"/><path class="cls-8" d="M136.8,238.51h1.8a0,0,0,0,1,0,0v2.59a.88.88,0,0,1-.88.88h0a.88.88,0,0,1-.88-.88v-2.59A0,0,0,0,1,136.8,238.51Z"/><path class="cls-8" d="M140.11,233.82h2.43a0,0,0,0,1,0,0v7.3a1.19,1.19,0,0,1-1.19,1.19h-.05a1.19,1.19,0,0,1-1.19-1.19v-7.3A0,0,0,0,1,140.11,233.82Z"/><path class="cls-8" d="M140.42,237.78h1.8a0,0,0,0,1,0,0v3.31a.88.88,0,0,1-.88.88h0a.88.88,0,0,1-.88-.88v-3.31A0,0,0,0,1,140.42,237.78Z"/><path class="cls-8" d="M133.2,233.82h2.43a0,0,0,0,1,0,0v7.3a1.19,1.19,0,0,1-1.19,1.19h-.05a1.19,1.19,0,0,1-1.19-1.19v-7.3A0,0,0,0,1,133.2,233.82Z"/><path class="cls-8" d="M133.52,237.78h1.8a0,0,0,0,1,0,0v3.31a.88.88,0,0,1-.88.88h0a.88.88,0,0,1-.88-.88v-3.31A0,0,0,0,1,133.52,237.78Z"/><rect class="cls-8" x="133.39" y="240.9" width="0.68" height="1.94"/><rect class="cls-8" x="145.06" y="240.9" width="0.68" height="1.94"/><rect class="cls-8" x="133.39" y="240.9" width="12.36" height="0.57"/><path class="cls-8" d="M155,233.82h2.43a0,0,0,0,1,0,0v7.3a1.19,1.19,0,0,1-1.19,1.19h-.05a1.19,1.19,0,0,1-1.19-1.19v-7.3A0,0,0,0,1,155,233.82Z"/><path class="cls-8" d="M155.27,238.51h1.8a0,0,0,0,1,0,0v2.59a.88.88,0,0,1-.88.88h0a.88.88,0,0,1-.88-.88v-2.59A0,0,0,0,1,155.27,238.51Z"/><path class="cls-8" d="M158.58,233.82H161a0,0,0,0,1,0,0v7.3a1.19,1.19,0,0,1-1.19,1.19h-.05a1.19,1.19,0,0,1-1.19-1.19v-7.3A0,0,0,0,1,158.58,233.82Z"/><path class="cls-8" d="M158.89,237.78h1.8a0,0,0,0,1,0,0v3.31a.88.88,0,0,1-.88.88h0a.88.88,0,0,1-.88-.88v-3.31A0,0,0,0,1,158.89,237.78Z"/><path class="cls-8" d="M151.68,233.82h2.43a0,0,0,0,1,0,0v7.3a1.19,1.19,0,0,1-1.19,1.19h-.05a1.19,1.19,0,0,1-1.19-1.19v-7.3A0,0,0,0,1,151.68,233.82Z"/><path class="cls-8" d="M152,237.78h1.8a0,0,0,0,1,0,0v3.31a.88.88,0,0,1-.88.88h0a.88.88,0,0,1-.88-.88v-3.31A0,0,0,0,1,152,237.78Z"/><rect class="cls-8" x="151.86" y="240.9" width="0.68" height="1.94"/><rect class="cls-8" x="163.53" y="240.9" width="0.68" height="1.94"/><rect class="cls-8" x="151.86" y="240.9" width="12.36" height="0.57"/><path class="cls-8" d="M115.69,233.82h2.43a0,0,0,0,1,0,0v7.3a1.19,1.19,0,0,1-1.19,1.19h-.05a1.19,1.19,0,0,1-1.19-1.19v-7.3A0,0,0,0,1,115.69,233.82Z"/><path class="cls-8" d="M116,238.51h1.8a0,0,0,0,1,0,0v2.59a.88.88,0,0,1-.88.88h0a.88.88,0,0,1-.88-.88v-2.59A0,0,0,0,1,116,238.51Z"/><path class="cls-8" d="M119.32,233.82h2.43a0,0,0,0,1,0,0v7.3a1.19,1.19,0,0,1-1.19,1.19h-.05a1.19,1.19,0,0,1-1.19-1.19v-7.3a0,0,0,0,1,0,0Z"/><path class="cls-8" d="M119.63,237.78h1.8a0,0,0,0,1,0,0v3.31a.88.88,0,0,1-.88.88h0a.88.88,0,0,1-.88-.88v-3.31A0,0,0,0,1,119.63,237.78Z"/><path class="cls-8" d="M112.41,233.82h2.43a0,0,0,0,1,0,0v7.3a1.19,1.19,0,0,1-1.19,1.19h-.05a1.19,1.19,0,0,1-1.19-1.19v-7.3A0,0,0,0,1,112.41,233.82Z"/><path class="cls-8" d="M112.72,237.78h1.8a0,0,0,0,1,0,0v3.31a.88.88,0,0,1-.88.88h0a.88.88,0,0,1-.88-.88v-3.31a0,0,0,0,1,0,0Z"/><rect class="cls-8" x="112.6" y="240.9" width="0.68" height="1.94"/><rect class="cls-8" x="124.27" y="240.9" width="0.68" height="1.94"/><rect class="cls-8" x="112.6" y="240.9" width="12.36" height="0.57"/><path class="cls-8" d="M120.1,148.94h2.43a0,0,0,0,1,0,0v7.3a1.19,1.19,0,0,1-1.19,1.19h-.05a1.19,1.19,0,0,1-1.19-1.19v-7.3a0,0,0,0,1,0,0Z"/><path class="cls-8" d="M120.41,153.62h1.8a0,0,0,0,1,0,0v2.59a.88.88,0,0,1-.88.88h0a.88.88,0,0,1-.88-.88v-2.59A0,0,0,0,1,120.41,153.62Z"/><path class="cls-8" d="M123.72,148.94h2.43a0,0,0,0,1,0,0v7.3a1.19,1.19,0,0,1-1.19,1.19h-.05a1.19,1.19,0,0,1-1.19-1.19v-7.3A0,0,0,0,1,123.72,148.94Z"/><path class="cls-8" d="M124,152.9h1.8a0,0,0,0,1,0,0v3.31a.88.88,0,0,1-.88.88h0a.88.88,0,0,1-.88-.88V152.9a0,0,0,0,1,0,0Z"/><path class="cls-8" d="M116.82,148.94h2.43a0,0,0,0,1,0,0v7.3a1.19,1.19,0,0,1-1.19,1.19H118a1.19,1.19,0,0,1-1.19-1.19v-7.3A0,0,0,0,1,116.82,148.94Z"/><path class="cls-8" d="M117.13,152.9h1.8a0,0,0,0,1,0,0v3.31a.88.88,0,0,1-.88.88h0a.88.88,0,0,1-.88-.88V152.9a0,0,0,0,1,0,0Z"/><rect class="cls-8" x="117" y="156.02" width="0.68" height="1.94"/><rect class="cls-8" x="128.68" y="156.02" width="0.68" height="1.94"/><rect class="cls-8" x="117" y="156.02" width="12.36" height="0.57"/><path class="cls-8" d="M139.16,148.94h2.43a0,0,0,0,1,0,0v7.3a1.19,1.19,0,0,1-1.19,1.19h-.05a1.19,1.19,0,0,1-1.19-1.19v-7.3A0,0,0,0,1,139.16,148.94Z"/><path class="cls-8" d="M139.47,153.62h1.8a0,0,0,0,1,0,0v2.59a.88.88,0,0,1-.88.88h0a.88.88,0,0,1-.88-.88v-2.59A0,0,0,0,1,139.47,153.62Z"/><path class="cls-8" d="M142.79,148.94h2.43a0,0,0,0,1,0,0v7.3a1.19,1.19,0,0,1-1.19,1.19H144a1.19,1.19,0,0,1-1.19-1.19v-7.3A0,0,0,0,1,142.79,148.94Z"/><path class="cls-8" d="M143.1,152.9h1.8a0,0,0,0,1,0,0v3.31a.88.88,0,0,1-.88.88h0a.88.88,0,0,1-.88-.88V152.9A0,0,0,0,1,143.1,152.9Z"/><path class="cls-8" d="M135.88,148.94h2.43a0,0,0,0,1,0,0v7.3a1.19,1.19,0,0,1-1.19,1.19h-.05a1.19,1.19,0,0,1-1.19-1.19v-7.3A0,0,0,0,1,135.88,148.94Z"/><path class="cls-8" d="M136.2,152.9H138a0,0,0,0,1,0,0v3.31a.88.88,0,0,1-.88.88h0a.88.88,0,0,1-.88-.88V152.9A0,0,0,0,1,136.2,152.9Z"/><rect class="cls-8" x="136.07" y="156.02" width="0.68" height="1.94"/><rect class="cls-8" x="147.74" y="156.02" width="0.68" height="1.94"/><rect class="cls-8" x="136.07" y="156.02" width="12.36" height="0.57"/><path class="cls-8" d="M138.29,118.31h2.43a0,0,0,0,1,0,0v7.3a1.19,1.19,0,0,1-1.19,1.19h-.05a1.19,1.19,0,0,1-1.19-1.19v-7.3A0,0,0,0,1,138.29,118.31Z"/><path class="cls-8" d="M138.6,123h1.8a0,0,0,0,1,0,0v2.59a.88.88,0,0,1-.88.88h0a.88.88,0,0,1-.88-.88V123A0,0,0,0,1,138.6,123Z"/><path class="cls-8" d="M141.91,118.31h2.43a0,0,0,0,1,0,0v7.3a1.19,1.19,0,0,1-1.19,1.19h-.05a1.19,1.19,0,0,1-1.19-1.19v-7.3A0,0,0,0,1,141.91,118.31Z"/><path class="cls-8" d="M142.22,122.27H144a0,0,0,0,1,0,0v3.31a.88.88,0,0,1-.88.88h0a.88.88,0,0,1-.88-.88v-3.31A0,0,0,0,1,142.22,122.27Z"/><path class="cls-8" d="M135,118.31h2.43a0,0,0,0,1,0,0v7.3a1.19,1.19,0,0,1-1.19,1.19h-.05a1.19,1.19,0,0,1-1.19-1.19v-7.3A0,0,0,0,1,135,118.31Z"/><path class="cls-8" d="M135.32,122.27h1.8a0,0,0,0,1,0,0v3.31a.88.88,0,0,1-.88.88h0a.88.88,0,0,1-.88-.88v-3.31A0,0,0,0,1,135.32,122.27Z"/><rect class="cls-8" x="135.19" y="125.39" width="0.68" height="1.94"/><rect class="cls-8" x="146.87" y="125.39" width="0.68" height="1.94"/><rect class="cls-8" x="135.19" y="125.39" width="12.36" height="0.57"/><path class="cls-8" d="M169.89,118.31h2.43a0,0,0,0,1,0,0v7.3a1.19,1.19,0,0,1-1.19,1.19h-.05a1.19,1.19,0,0,1-1.19-1.19v-7.3A0,0,0,0,1,169.89,118.31Z"/><path class="cls-8" d="M170.2,123H172a0,0,0,0,1,0,0v2.59a.88.88,0,0,1-.88.88h0a.88.88,0,0,1-.88-.88V123A0,0,0,0,1,170.2,123Z"/><path class="cls-8" d="M173.52,118.31h2.43a0,0,0,0,1,0,0v7.3a1.19,1.19,0,0,1-1.19,1.19h-.05a1.19,1.19,0,0,1-1.19-1.19v-7.3A0,0,0,0,1,173.52,118.31Z"/><path class="cls-8" d="M173.83,122.27h1.8a0,0,0,0,1,0,0v3.31a.88.88,0,0,1-.88.88h0a.88.88,0,0,1-.88-.88v-3.31A0,0,0,0,1,173.83,122.27Z"/><path class="cls-8" d="M166.61,118.31H169a0,0,0,0,1,0,0v7.3a1.19,1.19,0,0,1-1.19,1.19h-.05a1.19,1.19,0,0,1-1.19-1.19v-7.3A0,0,0,0,1,166.61,118.31Z"/><path class="cls-8" d="M166.92,122.27h1.8a0,0,0,0,1,0,0v3.31a.88.88,0,0,1-.88.88h0a.88.88,0,0,1-.88-.88v-3.31A0,0,0,0,1,166.92,122.27Z"/><rect class="cls-8" x="166.8" y="125.39" width="0.68" height="1.94"/><rect class="cls-8" x="178.47" y="125.39" width="0.68" height="1.94"/><rect class="cls-8" x="166.8" y="125.39" width="12.36" height="0.57"/><path class="cls-8" d="M155.52,148.94h2.43a0,0,0,0,1,0,0v7.3a1.19,1.19,0,0,1-1.19,1.19h-.05a1.19,1.19,0,0,1-1.19-1.19v-7.3A0,0,0,0,1,155.52,148.94Z"/><path class="cls-8" d="M155.83,153.62h1.8a0,0,0,0,1,0,0v2.59a.88.88,0,0,1-.88.88h0a.88.88,0,0,1-.88-.88v-2.59A0,0,0,0,1,155.83,153.62Z"/><path class="cls-8" d="M159.14,148.94h2.43a0,0,0,0,1,0,0v7.3a1.19,1.19,0,0,1-1.19,1.19h-.05a1.19,1.19,0,0,1-1.19-1.19v-7.3A0,0,0,0,1,159.14,148.94Z"/><path class="cls-8" d="M159.45,152.9h1.8a0,0,0,0,1,0,0v3.31a.88.88,0,0,1-.88.88h0a.88.88,0,0,1-.88-.88V152.9A0,0,0,0,1,159.45,152.9Z"/><path class="cls-8" d="M152.24,148.94h2.43a0,0,0,0,1,0,0v7.3a1.19,1.19,0,0,1-1.19,1.19h-.05a1.19,1.19,0,0,1-1.19-1.19v-7.3A0,0,0,0,1,152.24,148.94Z"/><path class="cls-8" d="M152.55,152.9h1.8a0,0,0,0,1,0,0v3.31a.88.88,0,0,1-.88.88h0a.88.88,0,0,1-.88-.88V152.9A0,0,0,0,1,152.55,152.9Z"/><rect class="cls-8" x="152.42" y="156.02" width="0.68" height="1.94"/><rect class="cls-8" x="164.1" y="156.02" width="0.68" height="1.94"/><rect class="cls-8" x="152.42" y="156.02" width="12.36" height="0.57"/><path class="cls-8" d="M174,148.94h2.43a0,0,0,0,1,0,0v7.3a1.19,1.19,0,0,1-1.19,1.19h-.05a1.19,1.19,0,0,1-1.19-1.19v-7.3A0,0,0,0,1,174,148.94Z"/><path class="cls-8" d="M174.36,153.62h1.8a0,0,0,0,1,0,0v2.59a.88.88,0,0,1-.88.88h0a.88.88,0,0,1-.88-.88v-2.59a0,0,0,0,1,0,0Z"/><path class="cls-8" d="M177.67,148.94h2.43a0,0,0,0,1,0,0v7.3a1.19,1.19,0,0,1-1.19,1.19h-.05a1.19,1.19,0,0,1-1.19-1.19v-7.3A0,0,0,0,1,177.67,148.94Z"/><path class="cls-8" d="M178,152.9h1.8a0,0,0,0,1,0,0v3.31a.88.88,0,0,1-.88.88h0a.88.88,0,0,1-.88-.88V152.9A0,0,0,0,1,178,152.9Z"/><path class="cls-8" d="M170.77,148.94h2.43a0,0,0,0,1,0,0v7.3a1.19,1.19,0,0,1-1.19,1.19H172a1.19,1.19,0,0,1-1.19-1.19v-7.3a0,0,0,0,1,0,0Z"/><path class="cls-8" d="M171.08,152.9h1.8a0,0,0,0,1,0,0v3.31a.88.88,0,0,1-.88.88h0a.88.88,0,0,1-.88-.88V152.9A0,0,0,0,1,171.08,152.9Z"/><rect class="cls-8" x="170.95" y="156.02" width="0.68" height="1.94"/><rect class="cls-8" x="182.63" y="156.02" width="0.68" height="1.94"/><rect class="cls-8" x="170.95" y="156.02" width="12.36" height="0.57"/><rect class="cls-8" x="153.45" y="175.01" width="13.22" height="9.64"/><rect class="cls-8" x="169.55" y="170.69" width="11.16" height="13.96"/><rect class="cls-9" x="132.14" y="127.33" width="6.46" height="4.11"/><rect class="cls-9" x="163.91" y="127.33" width="6.46" height="4.11"/><rect class="cls-9" x="144.32" y="157.73" width="6.46" height="4.11"/><rect class="cls-9" x="178.78" y="184.79" width="6.46" height="4.11"/></g><path class="cls-10" d="M341.94,220.72c.12.91,2.85.55,3.22.51l0,0,.6-1.52s-1.73-1.64-2.29-1.6S341.8,219.75,341.94,220.72Z"/><path class="cls-11" d="M348.05,214.1l-.17.23.25-.15c1.37-.82,8.11-4.85,15.25-9.66,9.88-6.66,20.52-14.82,18.75-18-3.37-6-16.43,7-25.41,17.21C352.29,208.75,348.86,213.08,348.05,214.1Z"/><path class="cls-11" d="M353.15,198.66c-1.67,5.47-3,10.11-3.89,12.85-.38,1.2-.65,2-.82,2.42.35-.56,1.26-2.07,2.57-4.22h0c2-3.22,4.79-7.88,7.84-13,7.44-12.31,16.25-27,17.3-29.3,1.85-4,3.42-14.72-4.75-11.41C366.09,158.2,358.21,182.18,353.15,198.66Z"/><path class="cls-11" d="M347.89,203.93c.13,3.53.29,6.44.39,8.06.05.88.08,1.38.08,1.38s.41-1.41,1-3.7,1.32-5.11,2.05-8.41c2.41-10.81,4.73-25.33.6-28C347.31,170.21,347.41,191.14,347.89,203.93Z"/><path class="cls-12" d="M348.05,214.1l.08.08c1.37-.82,8.11-4.85,15.25-9.66-1.77.47-4.51.79-6.66-.79C352.29,208.75,348.86,213.08,348.05,214.1Z"/><path class="cls-12" d="M353.15,198.66c-1.67,5.47-3,10.11-3.89,12.85a20.28,20.28,0,0,0,1.75-1.8h0c2-3.22,4.79-7.88,7.84-13C357.21,198,355.08,199.15,353.15,198.66Z"/><path class="cls-12" d="M347.89,203.93c.13,3.53.29,6.44.39,8.06a15.6,15.6,0,0,0,1.09-2.32c.57-2.16,1.32-5.11,2.05-8.41A10.57,10.57,0,0,1,347.89,203.93Z"/><path class="cls-13" d="M348.44,213.94a2.41,2.41,0,0,1-.15.24S348.37,214.1,348.44,213.94Z"/><path class="cls-14" d="M333.63,225.84c-3.62,9-9.6,29.94-11.91,38.14a3.39,3.39,0,0,0,2.48,4.21h0a3.37,3.37,0,0,0,3.64-1.47c3.51-5.48,13.16-20.63,17.05-27.48,5.6-9.85,12-19.12,10.39-24.42a9,9,0,0,0-2.22-3.64,9.32,9.32,0,0,0-1.58-1.31l-.41-.26A10.81,10.81,0,0,0,350,209l-.42-.18a10.73,10.73,0,0,0-1.51-.51,8.58,8.58,0,0,0-5.92.36C337.49,211.17,337.08,217.26,333.63,225.84Z"/><path class="cls-15" d="M352.14,221.66s0,0,0,0v0S352.15,221.64,352.14,221.66Z"/><path class="cls-11" d="M534.68,267.54H520.91c-.74-.63.51-2.05,1.81-2.14a7.86,7.86,0,0,1,2.11.24c.19-2.51,1.27-13.83,5.35-13.38,4.59.51,0,5-1.3,7.64a64.65,64.65,0,0,0-2.44,6.1l1.16.23c.6-1.86,2.87-8.14,5.74-7.78,3.38.43,2,2.95-.37,4.44-1.76,1.1-3.91,2.66-4.94,3.42a15,15,0,0,0,2.7.22A5.71,5.71,0,0,1,534.68,267.54Z"/><path class="cls-16" d="M157.14,267.54s-6.56-18-11.17-16.48S157.14,267.54,157.14,267.54Z"/><path class="cls-16" d="M154.62,267.54c-.55,0-11-10.86-11.72-8S154.62,267.54,154.62,267.54Z"/><path class="cls-16" d="M165.79,267.54s-4.33-4-9.81-2.94-7.82,2.17-11.26,1.39a5.09,5.09,0,0,0-5.21,1.55Z"/><rect class="cls-17" x="235.02" y="52.32" width="28.9" height="28.04" rx="2.07" ry="2.07"/><rect class="cls-18" x="236.27" y="53.53" width="26.4" height="25.61" rx="1.89" ry="1.89"/><path class="cls-17" d="M248.87,56.09a.61.61,0,0,1,.6-.6.6.6,0,1,1-.6.6Z"/><path class="cls-17" d="M253.71,56.94a.6.6,0,1,1,.23.82A.59.59,0,0,1,253.71,56.94Z"/><path class="cls-17" d="M257.84,60.23a.6.6,0,1,1-.18.83A.6.6,0,0,1,257.84,60.23Z"/><path class="cls-17" d="M259.89,65.32a.6.6,0,1,1-.6.6A.6.6,0,0,1,259.89,65.32Z"/><path class="cls-17" d="M258.84,71.23a.6.6,0,1,1-.85,0A.6.6,0,0,1,258.84,71.23Z"/><path class="cls-17" d="M255.07,75a.6.6,0,1,1-.84,0A.59.59,0,0,1,255.07,75Z"/><path class="cls-17" d="M248.86,76.93a.6.6,0,1,1,.6.6A.6.6,0,0,1,248.86,76.93Z"/><path class="cls-17" d="M245.22,56.93a.6.6,0,0,0-.81-.23.61.61,0,0,0-.24.82.62.62,0,0,0,.82.23A.6.6,0,0,0,245.22,56.93Z"/><path class="cls-17" d="M241.08,60.22a.6.6,0,0,0-.65,1,.61.61,0,0,0,.83-.18A.6.6,0,0,0,241.08,60.22Z"/><path class="cls-17" d="M239,65.31a.6.6,0,0,0-.6.6.59.59,0,0,0,.6.59.59.59,0,0,0,.6-.59A.6.6,0,0,0,239,65.31Z"/><path class="cls-17" d="M240.07,71.21a.61.61,0,0,0,0,.85.6.6,0,0,0,.85,0,.6.6,0,1,0-.85-.85Z"/><path class="cls-17" d="M243.83,75a.59.59,0,1,0,.84,0A.58.58,0,0,0,243.83,75Z"/><path class="cls-17" d="M249.3,65.91a.6.6,0,0,1,.6-.59.6.6,0,1,1,0,1.19A.6.6,0,0,1,249.3,65.91Z"/><rect class="cls-17" x="249.82" y="58.43" width="0.16" height="7.48"/><rect class="cls-17" x="249.29" y="64.1" width="5.04" height="0.49" transform="translate(13.92 169.02) rotate(-38.08)"/><path class="cls-19" d="M114.26,204.39h0a2.3,2.3,0,0,1-2.3-2.3V187.54h4.6v14.55A2.3,2.3,0,0,1,114.26,204.39Z"/><path class="cls-20" d="M114.26,203.72h0a1.7,1.7,0,0,1-1.71-1.71v-5.17H116V202A1.71,1.71,0,0,1,114.26,203.72Z"/><path class="cls-19" d="M118.83,187.54h4.61a0,0,0,0,1,0,0v14.55a2.3,2.3,0,0,1-2.3,2.3h0a2.3,2.3,0,0,1-2.3-2.3V187.54A0,0,0,0,1,118.83,187.54Z"/><path class="cls-15" d="M119.43,195.4h3.42a0,0,0,0,1,0,0V202a1.71,1.71,0,0,1-1.71,1.71h0a1.71,1.71,0,0,1-1.71-1.71V195.4A0,0,0,0,1,119.43,195.4Z"/><path class="cls-19" d="M108,204.39h0a2.3,2.3,0,0,1-2.31-2.3V187.54h4.61v14.55A2.3,2.3,0,0,1,108,204.39Z"/><path class="cls-18" d="M108,203.72h0a1.71,1.71,0,0,1-1.72-1.71V195.4h3.43V202A1.71,1.71,0,0,1,108,203.72Z"/><rect class="cls-21" x="102.86" y="201.96" width="1.3" height="3.85"/><rect class="cls-21" x="125.02" y="201.96" width="1.3" height="3.85"/><rect class="cls-21" x="102.86" y="201.96" width="23.45" height="1.12"/><path class="cls-22" d="M71.92,267.52H72a.92.92,0,0,0,.94-1l-3.7-36.95-3.23.29L71.3,267A.61.61,0,0,0,71.92,267.52Z"/><path class="cls-22" d="M97.31,268.48h.07a.92.92,0,0,0,.93-1l-3.7-37-3.23.29L96.7,268A.6.6,0,0,0,97.31,268.48Z"/><path class="cls-22" d="M36.29,267.52h-.07a.92.92,0,0,1-.93-1L39,229.58l3.23.29L36.91,267A.61.61,0,0,1,36.29,267.52Z"/><path class="cls-17" d="M37.39,224.21l-6.56-32.44c-.85-4.39,2.79-8.4,7.52-8.29l12.66.29A10,10,0,0,1,60.39,191L70,224.21Z"/><path class="cls-23" d="M41.37,224.21,34.8,191.77c-.84-4.39,2.8-8.4,7.52-8.29l12.67.29A10,10,0,0,1,64.37,191L74,224.21Z"/><path class="cls-17" d="M39.22,224.21H89.33A1.83,1.83,0,0,1,91.16,226v4.08a0,0,0,0,1,0,0H39.22a1.83,1.83,0,0,1-1.83-1.83V226A1.83,1.83,0,0,1,39.22,224.21Z" transform="translate(128.56 454.33) rotate(180)"/><rect class="cls-23" x="61.26" y="224.21" width="34.89" height="5.91" rx="1.47" ry="1.47" transform="translate(157.42 454.33) rotate(180)"/><rect class="cls-24" x="87.39" y="161.61" width="7.08" height="25.74" transform="translate(246.53 294.89) rotate(155.26)"/><rect class="cls-24" x="85.07" y="158.64" width="3.39" height="12.3" transform="translate(234.51 278.17) rotate(155.27)"/><path class="cls-24" d="M70.49,202l5.62-.87c0-.1-1.57-10.61,1.15-18.82s12.06-9.75,12.15-9.76l-.86-5.63c-.52.08-12.86,2.1-16.68,13.6C68.7,190.05,70.41,201.52,70.49,202Z"/><path class="cls-24" d="M61.69,199.65H86a0,0,0,0,1,0,0V200a6.13,6.13,0,0,1-6.13,6.13H66.78A5.09,5.09,0,0,1,61.69,201v-1.38A0,0,0,0,1,61.69,199.65Z" transform="translate(147.69 405.76) rotate(180)"/><rect class="cls-24" x="73.85" y="192.24" width="26.32" height="1.9" transform="translate(174.01 386.38) rotate(180)"/><rect class="cls-24" x="81.91" y="202.88" width="18.25" height="3.23" transform="translate(182.08 409) rotate(180)"/><rect class="cls-24" x="89.02" y="201.57" width="5.77" height="1.32" transform="translate(183.81 404.45) rotate(180)"/><rect class="cls-25" x="56.96" y="205.78" width="74.27" height="2.1"/><path class="cls-25" d="M130.91,268.63c-.15-.22-.47-.67-2.48-31.11-1-15-1.9-30.06-1.91-30.21l.78,0c1,16.42,3.72,59.4,4.28,61,0,0,0,0,0-.05Z"/><path class="cls-25" d="M56.33,268.3l-.65-.45,0,0c.57-1.56,3.39-44.3,4.42-60.63l.79,0c0,.14-1,15.13-2,30C56.8,267.63,56.48,268.08,56.33,268.3Z"/><path class="cls-10" d="M464.69,172.76a1.45,1.45,0,0,0-.53-.51,10.28,10.28,0,0,1-1.19-1.67c-.18-.48-.67-.06-.76.42,0,.16.31.62.36.78-1-.1-.31-.78-2.41-.23,0,0-.73,2.59.68,3.51a3.91,3.91,0,0,0,4.13.41l1.37-.29.15-2.38Z"/><path class="cls-26" d="M495.36,148.61s11.59,10.71-4.86,22.92c-4.44,3.3-24.77,4.54-24.77,4.54s-.71-2.49.6-3.61c0,0,14.34-5.05,17-5.63,1.5-.32.15-13.58,3.14-16.64S495.36,148.61,495.36,148.61Z"/><path class="cls-4" d="M508.24,261.74s-.37,5.94-1.52,6h-5.83l-7.25,0a2.36,2.36,0,0,1,2.17-2.12c2.12-.37,5.66-1.86,6.95-4.66S508.24,261.74,508.24,261.74Z"/><path class="cls-27" d="M508.66,262.15a15.14,15.14,0,0,1-3.93.74,14.43,14.43,0,0,1-3.66-.52,99,99,0,0,0-2.7-12.85c-1.19-4.64-2.9-10.59-5.34-18-6.72-20.45-8.76-32.42-8.95-33.56a.45.45,0,0,1,0-.08h0l20.67-9.08s-2.56,28.2.7,39a45.52,45.52,0,0,1,1.19,5.18C508.7,244.75,508.66,262.15,508.66,262.15Z"/><path class="cls-14" d="M506.65,233l-8.28,16.53c-1.19-4.64-2.9-10.59-5.34-18-6.72-20.45-8.76-32.42-8.95-33.56a.28.28,0,0,1,0-.09l20.67-9.08s-2.56,28.2.7,39A45.52,45.52,0,0,1,506.65,233Z"/><path class="cls-4" d="M492.09,261.74s-.36,5.94-1.51,6h-5.83l-7.25,0a2.34,2.34,0,0,1,2.16-2.12c2.12-.37,5.67-1.86,6.95-4.66S492.09,261.74,492.09,261.74Z"/><path class="cls-27" d="M480.38,189.45a294.24,294.24,0,0,0,2.89,40.71c3.16,22.43,2.09,32,2.09,32a21.08,21.08,0,0,0,3.05.78,13.93,13.93,0,0,0,4.52-.52s4.52-22.45,3.23-33.67,6.19-38.53,6.19-38.53Z"/><path class="cls-10" d="M495.42,146.27l-2.54,4.1-5.74,1.48c-.13-.46-.6-2.39-1-4.14,0-.11-.05-.21-.08-.31l-.67-2.77,3.93-4.48,1.46-1.67s.56,1.58.64,1.81A13.88,13.88,0,0,0,495.42,146.27Z"/><path class="cls-28" d="M478.64,190.77c.09,9.65.73,32.21,1.2,32.66,5,4.85,27.12-1.32,28.29-6.67s-4.45-68.49-13-71c-1.78-.52-9.07,1.65-9.07,1.65s-3.72,4.81-4.7,9.79c-.36,1.84-1.55,15-2.24,23.78-.18,2.35-.33,4.38-.42,5.8C478.64,187.36,478.63,188.8,478.64,190.77Z"/><path class="cls-29" d="M491.05,140.53c-.23,2.34-3.53,5.81-4.94,7.18,0-.11-.05-.21-.08-.31l-.67-2.77,3.93-4.48C490.37,139.63,491.15,139.57,491.05,140.53Z"/><path class="cls-10" d="M483.36,145.19s9.11-1.22,8.26-6.87-.24-9.63-6.09-9.09-6.65,2.86-6.83,4.82S481,145.37,483.36,145.19Z"/><path class="cls-4" d="M478.79,133.43s3.2,5.55,4.28,4.74,2.08-1.5,2.72.33,3.47,3.63,5.27,2.89c3.78-1.56,3.19-13.08,1.33-14.41C487.05,123.14,471.61,129.05,478.79,133.43Z"/><path class="cls-26" d="M486.07,146.2c.11,0,7.19-3.24,7.94-3s1.41,2.66,1.41,2.66a34.23,34.23,0,0,0-5,1.22,33.37,33.37,0,0,0-6.12,3S484.62,146.81,486.07,146.2Z"/><path class="cls-26" d="M479.17,190.25c21-14.2,19.26-33.73,19.26-33.73-8.18,4.62-16.29,15.54-18.81,23.93-.18,2.34-.33,4.37-.42,5.8C479.16,186.83,479.15,188.27,479.17,190.25Z"/><path class="cls-19" d="M413.05,260.24h0a13.14,13.14,0,0,1-13.14-13.14v-83h26.28v83A13.14,13.14,0,0,1,413.05,260.24Z"/><path class="cls-11" d="M413,218.94c-1.45-11.95-.47-37.29-.46-37.55l.38,0c0,.25-1,25.56.46,37.48Z"/><path class="cls-11" d="M412.78,181.55c.13.09-2.31-3.53-4.54-2.89a14.78,14.78,0,0,0-4.75,3,41,41,0,0,1,4.69.48C409.63,182.49,411.89,181,412.78,181.55Z"/><path class="cls-11" d="M412.77,181.51a2.91,2.91,0,0,1,1.63-2.68,2.66,2.66,0,0,1,.16,1.84C414.22,181.48,412.77,181.51,412.77,181.51Z"/><path class="cls-11" d="M412.74,182.86a7.1,7.1,0,0,1,2.68-.75c1.08.06,2.39,2.69,2.39,2.69a13.66,13.66,0,0,1-3-.08C414.07,184.49,413.4,182.73,412.74,182.86Z"/><path class="cls-11" d="M412.59,187.1s-3.06-1.91-5.32-1.39-4.21,3.66-4.21,3.66a12,12,0,0,0,4.07.24,9.2,9.2,0,0,0,3.67-2C411.25,187.08,412.59,187.1,412.59,187.1Z"/><path class="cls-11" d="M412.09,186.58a2.19,2.19,0,0,0-.58-2.09l-1.21-1a3.64,3.64,0,0,0,.16,1.73C410.78,186,412.09,186.58,412.09,186.58Z"/><path class="cls-11" d="M412.51,192s4.44-2.84,7.62-1.39,4.54,5.4,4.54,5.4-5.37.35-7.26-.88-1.92-3.23-2.72-3.27A16.16,16.16,0,0,0,412.51,192Z"/><path class="cls-11" d="M412.31,194.41a3.51,3.51,0,0,0-3-2.58c-2.35-.13-4.38,3.22-4.38,3.22a14.4,14.4,0,0,0,3.44.43c1.21-.1,2.28-2.11,2.92-1.75A8.79,8.79,0,0,1,412.31,194.41Z"/><path class="cls-26" d="M413.05,256.43h0a9.76,9.76,0,0,1-9.76-9.77V209h19.52v37.71A9.76,9.76,0,0,1,413.05,256.43Z"/><path class="cls-26" d="M427.63,165.34H398.82a1.91,1.91,0,0,1-1.91-1.9h0a1.91,1.91,0,0,1,1.91-1.9h28.81a1.9,1.9,0,0,1,1.9,1.9h0A1.9,1.9,0,0,1,427.63,165.34Z"/><rect class="cls-30" x="440.97" y="157.19" width="19.32" height="10.82" rx="2.5" ry="2.5"/><path class="cls-19" d="M450.27,260.24h0a13.14,13.14,0,0,1-13.14-13.14v-83h26.28v83A13.14,13.14,0,0,1,450.27,260.24Z"/><path class="cls-14" d="M440.51,191.42H460a0,0,0,0,1,0,0v55.3a9.7,9.7,0,0,1-9.7,9.7h-.12a9.7,9.7,0,0,1-9.7-9.7v-55.3A0,0,0,0,1,440.51,191.42Z"/><path class="cls-26" d="M464.85,165.34H436a1.9,1.9,0,0,1-1.9-1.9h0a1.9,1.9,0,0,1,1.9-1.9h28.81a1.91,1.91,0,0,1,1.91,1.9h0A1.91,1.91,0,0,1,464.85,165.34Z"/><rect class="cls-23" x="393.69" y="249.78" width="0.99" height="17.83"/><rect class="cls-23" x="467.95" y="249.78" width="0.99" height="17.83"/><rect class="cls-23" x="393.69" y="249.78" width="75.24" height="2.3"/><path class="cls-10" d="M460.53,184.11a1.39,1.39,0,0,0-.63-.36,16.25,16.25,0,0,1-1.89-1.69s-.3.12-.17.61a7.53,7.53,0,0,0,.41,1,7.66,7.66,0,0,0-3.06.92,1.62,1.62,0,0,0-.91,1.16c-.1.5,0,1.06.91,1.25.62.14,1-.45,2.62.13s2.78.5,3.61-.42l1.27-.59-.4-2.36Z"/><path class="cls-28" d="M491.89,147.89s17.81,3.39-5.23,29.18c-3.69,4.12-24.36,10-24.36,10s-1.26-2.27-.25-3.66c0,0,14.5-9.67,16.82-10.8,1.37-.67,5.18-16.63,7.39-20.29A10,10,0,0,1,491.89,147.89Z"/><rect class="cls-4" x="0.09" y="267.84" width="578.87" height="4.16" rx="1.08" ry="1.08"/><rect class="cls-31" x="379.02" y="89.55" width="71.61" height="53.67"/><path class="cls-17" d="M397,138.93H387a2.37,2.37,0,0,1-2.22-3.2l4.36-11.52V110.47h6.06v13.74l4.11,11.56a2.37,2.37,0,0,1-2.24,3.16Zm-7.16-27.68v13.1L385.46,136a1.59,1.59,0,0,0,1.49,2.15H397a1.59,1.59,0,0,0,1.5-2.12l-4.15-11.68v-13.1Z"/><path class="cls-17" d="M395.38,136.9h-6.79a1.62,1.62,0,0,1-1.52-2.2l1.68-4.46.18,0a4.25,4.25,0,0,1,2.5.38,2.6,2.6,0,0,0,2.37,0c.29-.08.62-.18,1-.26a.84.84,0,0,0,.19-.07l.3-.17,1.63,4.59a1.62,1.62,0,0,1-1.53,2.17Zm-6.21-6.12-1.56,4.12a1,1,0,0,0,1,1.41h6.79a1,1,0,0,0,.85-.44,1,1,0,0,0,.14-1l-1.42-4h0c-.34.08-.65.16-1,.25a3.16,3.16,0,0,1-2.82-.09A3.6,3.6,0,0,0,389.17,130.78Z"/><path class="cls-17" d="M394.87,111.55h-5.55a.67.67,0,0,1-.68-.68.68.68,0,0,1,.68-.69h5.55a.68.68,0,0,1,.68.69A.67.67,0,0,1,394.87,111.55Z"/><rect class="cls-17" x="421.14" y="122.51" width="16.72" height="0.96"/><rect class="cls-17" x="421.14" y="124.69" width="6.45" height="0.96"/><rect class="cls-17" x="428.49" y="124.69" width="7.56" height="0.96"/><rect class="cls-17" x="421.14" y="126.88" width="12.49" height="0.96"/><path class="cls-17" d="M418.73,114a5.23,5.23,0,1,1,5.23-5.23A5.23,5.23,0,0,1,418.73,114Zm0-9.65a4.43,4.43,0,1,0,4.43,4.42A4.43,4.43,0,0,0,418.73,104.33Z"/><path class="cls-17" d="M401.35,102.21a3.36,3.36,0,1,1,3.36-3.36A3.37,3.37,0,0,1,401.35,102.21Zm0-6.19a2.83,2.83,0,1,0,2.82,2.83A2.83,2.83,0,0,0,401.35,96Z"/><path class="cls-17" d="M414.65,101a2.74,2.74,0,1,1,2.73-2.74A2.74,2.74,0,0,1,414.65,101Zm0-4.94a2.2,2.2,0,1,0,2.2,2.2A2.21,2.21,0,0,0,414.65,96Z"/><path class="cls-17" d="M440.11,117.17a4.55,4.55,0,1,1,4.54-4.55A4.55,4.55,0,0,1,440.11,117.17Zm0-8.56a4,4,0,1,0,4,4A4,4,0,0,0,440.11,108.61Z"/><path class="cls-17" d="M408.85,129.58a3.6,3.6,0,1,1,3.6-3.6A3.61,3.61,0,0,1,408.85,129.58Zm0-6.67a3.07,3.07,0,1,0,3.07,3.07A3.08,3.08,0,0,0,408.85,122.91Z"/><rect class="cls-17" x="409.03" y="97.4" width="0.43" height="12.09" transform="translate(110.35 401.5) rotate(-59.1)"/><rect class="cls-17" x="407.51" y="117.76" width="11.7" height="0.43" transform="translate(109.26 421.79) rotate(-60.9)"/><rect class="cls-17" x="429.28" y="105.23" width="0.43" height="12.81" transform="translate(253.16 518.86) rotate(-81.16)"/><rect class="cls-17" x="416.2" y="100.35" width="0.32" height="4" transform="translate(-7.93 164.07) rotate(-22.09)"/><rect class="cls-17" x="404.74" y="137.22" width="19.48" height="0.64"/><rect class="cls-17" x="404.74" y="135.44" width="19.48" height="0.64"/><rect class="cls-17" x="404.74" y="133.66" width="19.48" height="0.64"/><rect class="cls-17" x="427.76" y="137.22" width="19.48" height="0.64"/><rect class="cls-17" x="427.76" y="135.44" width="19.48" height="0.64"/><rect class="cls-17" x="427.76" y="133.66" width="19.48" height="0.64"/><path class="cls-17" d="M437.42,99.7h-3.58l-1.79-3.1,1.79-3.1h3.58l1.79,3.1ZM434,99.49h3.34L439,96.6l-1.67-2.89H434l-1.67,2.89Z"/><path class="cls-17" d="M431.83,102.94h-3.58l-1.79-3.1,1.79-3.1h3.58l1.79,3.1Zm-3.46-.21h3.34l1.67-2.89L431.71,97h-3.34l-1.67,2.89Z"/><path class="cls-17" d="M442.86,102.94h-3.58l-1.79-3.1,1.79-3.1h3.58l1.79,3.1Zm-3.46-.21h3.34l1.67-2.89L442.74,97H439.4l-1.67,2.89Z"/><rect class="cls-17" x="383.42" y="94.37" width="9.23" height="0.62"/><rect class="cls-17" x="383.42" y="96.13" width="9.23" height="0.62"/><rect class="cls-17" x="383.42" y="97.91" width="9.23" height="0.62"/><rect class="cls-17" x="383.42" y="99.53" width="9.23" height="0.62"/><path class="cls-32" d="M219.92,237.7c8.52,25.5,40.5,32,63.88,29.73A48.83,48.83,0,0,0,303,261.7a48,48,0,0,0,14.17-12.4,49.35,49.35,0,0,0,10.13-35.24c-1.28-13.62-7.89-26.3-26.95-36.94-14.8-8-34.44-9.53-50.47-4.27A41.42,41.42,0,0,0,233,183a50.75,50.75,0,0,0-10.72,16.94C217.6,211.73,215.83,225.45,219.92,237.7Z"/><path class="cls-12" d="M299.07,190.15a26.51,26.51,0,0,0-14.19-5.53c-11.09-.8-14.66,3.72-14.66,3.72s-1.31-1.81,6.87-10.53,3.9-20,3.9-20-2.21,8.44-5.9,13.78-9.78,4.42-12.18,12.57c0,0-4.86-5.31-3.24-10.35s-.61-12.65-.61-12.65-.95,5.47-6,12,.49,14.5,2.26,16.78c0,0-4.85-3.48-12.43.52s-19.77-4.43-19.77-4.43,5.89,8.83,12.69,9.86c13.94,3.15,20.72-.91,20.72-.91s2.47,1.75-6.31,8.47.33,17.33.33,17.33.09-10.28,6.45-15,9-7.23,9-7.23,15.24,2.39,13.7,12.31c-1.25,6-5.21,12.22-5.21,12.22s12.73-4.79,12.06-13.79-12-15.27-12-15.27a29.05,29.05,0,0,1,11-4.18A61.72,61.72,0,0,1,299.07,190.15Z"/><path class="cls-11" d="M265.9,191.58S252.37,169,235.32,164.82c-4.4,2-3.36,7-3.36,7s20.57,9.17,27.89,20.74C262.83,197,265.9,191.58,265.9,191.58Z"/><path class="cls-33" d="M297,193.8s8.48-1,11.11,4.63-3,7.41-7.06,5.7S292.47,195.5,297,193.8Z"/><path class="cls-34" d="M324.79,202.7s-46.26,53.82-100.71,43.57c0,0,21.37,33.3,76.86,16.53C300.94,262.8,337.21,245.56,324.79,202.7Z"/><path class="cls-10" d="M218.32,165.47s.47-1.05.77-1.54,1.59-2,1.81-1.62,1.1,2.54.63,3.16,0,1.7-2.29,2.35Z"/><path class="cls-26" d="M192.56,158.86s11.87,9.9,16.49,9a91.46,91.46,0,0,0,9.18-2.63l1.11,2.85s-5,6.75-10.18,6.8a29.55,29.55,0,0,1-14.11-3.52Z"/><path class="cls-4" d="M171.74,263.37s.34,5.55,1.42,5.63h5.45l6.78,0a2.19,2.19,0,0,0-2-2c-2-.35-5.3-1.74-6.5-4.36S171.74,263.37,171.74,263.37Z"/><path class="cls-27" d="M171.35,263.75a14.12,14.12,0,0,0,3.67.69,13.42,13.42,0,0,0,3.42-.49,93.9,93.9,0,0,1,2.53-12c1.12-4.33,2.72-9.9,5-16.83,6.29-19.14,8.2-30.33,8.38-31.39a.6.6,0,0,0,0-.08h0L175,195.13s2.39,26.37-.65,36.5a40.83,40.83,0,0,0-1.11,4.85C171.3,247.47,171.35,263.75,171.35,263.75Z"/><path class="cls-14" d="M181,251.93c1.12-4.33,2.72-9.9,5-16.83,6.29-19.14,8.2-30.33,8.38-31.39a.28.28,0,0,1,0-.09L175,195.13s2.39,26.37-.65,36.5C173.91,233,181,251.93,181,251.93Z"/><path class="cls-4" d="M186.84,263.37s.34,5.55,1.42,5.63h5.45l6.78,0a2.19,2.19,0,0,0-2-2c-2-.35-5.3-1.74-6.5-4.36S186.84,263.37,186.84,263.37Z"/><path class="cls-27" d="M197.8,195.75a275.88,275.88,0,0,1-2.7,38.07c-3,21-2,29.9-2,29.9a20.76,20.76,0,0,1-2.85.72,12.93,12.93,0,0,1-4.23-.49s-4.23-21-3-31.49-5.8-36-5.8-36Z"/><path class="cls-10" d="M184.09,155.75l3.78,2.48,5.45-1c-.08-.44-.44-2.26-.76-3.91l-.06-.3c-.28-1.4-.53-2.61-.53-2.61l-5.09-2.25-1.9-.83s.15,1.56.17,1.78A13,13,0,0,1,184.09,155.75Z"/><path class="cls-28" d="M198.93,196.49c-.08,9-.68,30.12-1.12,30.55-4.7,4.54-25.37-1.24-26.46-6.24s4.16-64.06,12.19-66.42c1.66-.49,10.56,2.39,10.56,2.39a56.34,56.34,0,0,1,2.32,8.3c.34,1.73,1.44,14,2.09,22.25.17,2.19.31,4.09.39,5.43C198.94,193.3,198.94,194.64,198.93,196.49Z"/><path class="cls-29" d="M185.53,149.16c1.12,1.89,5.29,3.53,7,4.14l-.06-.3c-.28-1.4-.53-2.61-.53-2.61l-5.09-2.25C185.75,148.13,185.07,148.38,185.53,149.16Z"/><path class="cls-10" d="M193.89,150.08s-8.2,2.56-9.72-2.57-3.59-8.26,1.58-10.12,6.78-.19,7.7,1.4S196,149.28,193.89,150.08Z"/><path class="cls-4" d="M193.13,138.3s-.52,6-1.76,5.71-2.36-.45-2.17,1.35,1.89,3.88-1.92,4.2-9.28-9.5-8.23-11.36C182.06,132.83,197.49,131.75,193.13,138.3Z"/><path class="cls-26" d="M191.92,154.51c-.1,0-6.11-2.74-6.81-2.51s-1.57,2.38-1.57,2.38l10.56,2.39A5.19,5.19,0,0,0,191.92,154.51Z"/><rect class="cls-35" x="188.82" y="195.42" width="49.5" height="6.18" rx="1.65" ry="1.65" transform="translate(-77.35 218.04) rotate(-46.75)"/><path class="cls-4" d="M213.89,202.68,200,217.45a1.65,1.65,0,0,1-2.33.07l-2.1-2a1.65,1.65,0,0,1-.07-2.33l13.9-14.77Z"/><path class="cls-4" d="M265.26,145.12l-.41-.4a26.57,26.57,0,1,0,.41.4Zm-1.94,34.36a22.7,22.7,0,1,1-12.65-37.92,22.87,22.87,0,0,1,3.7,1,22.72,22.72,0,0,1,8.95,37Z"/><g class="cls-6"><path class="cls-36" d="M263.32,179.48a22.7,22.7,0,1,1-1-32.09A22.59,22.59,0,0,1,263.32,179.48Z"/><path class="cls-37" d="M263.32,179.48A22.59,22.59,0,0,1,252,186a22.71,22.71,0,0,1-1.36-44.46,22.7,22.7,0,0,1,12.65,37.92Z"/></g><path class="cls-26" d="M198.93,196.49c-19.61-13.28-18-31.54-18-31.54,7.65,4.31,15.23,14.53,17.59,22.37.17,2.19.31,4.09.39,5.43C198.94,193.3,198.94,194.64,198.93,196.49Z"/><path class="cls-10" d="M216.21,189.77a5.05,5.05,0,0,0,2.37-1.46s.56,0-.09,1.22c-.06.1-.18.36-.27.54a.11.11,0,0,0,.1.16,12.25,12.25,0,0,1,3,.07c.2,0,.25.52.25.72a1.91,1.91,0,0,1-.39,1.27,6.59,6.59,0,0,1-2.35,1.23,7.12,7.12,0,0,1-3.62-.46l-1.19-.55.37-2.2.3.06C215.13,190.47,215.72,189.89,216.21,189.77Z"/><path class="cls-28" d="M186.67,156.77s-16.66,3.17,4.9,27.29c3.45,3.86,22.08,8.88,22.08,8.88s1.89-1.61.93-2.91c0,0-12.82-9.31-15.64-10.79-1.27-.67-4.93-14.87-7-18.29A9.3,9.3,0,0,0,186.67,156.77Z"/><path class="cls-10" d="M218.78,165.76a8.74,8.74,0,0,0,.65-1.59,8.62,8.62,0,0,1,1.07-2.43c.11-.11.49,0,.53.52a2.69,2.69,0,0,1-.27,1.05,12.32,12.32,0,0,0-.35,2.1C220.15,166.24,218.78,165.76,218.78,165.76Z"/><g class="cls-38"><path class="cls-39" d="M337.79,221.16c-.38,1-.45,1.17,1.88,1.81s4.9,1.63,5.33.49S338.31,219.8,337.79,221.16Z"/><path class="cls-39" d="M340.9,227.85a10.28,10.28,0,0,1,5.66,3.09,1.37,1.37,0,0,1-.07,1.75h0a1.17,1.17,0,0,1-1.53.23,25.48,25.48,0,0,0-4.76-2.57,1.32,1.32,0,0,1-.5-2h0A1.2,1.2,0,0,1,340.9,227.85Z"/><path class="cls-39" d="M333,232.22l.1-.22a.75.75,0,0,1,.71-.45,7,7,0,0,1,4.84,2.38.83.83,0,0,1,.11,1l0,0a.7.7,0,0,1-1.11.17,6.2,6.2,0,0,0-4-1.78A.76.76,0,0,1,333,232.22Z"/><path class="cls-39" d="M336.2,239.15l.12-.15a.58.58,0,0,1,.65-.21,6.07,6.07,0,0,1,3.41,3,.69.69,0,0,1-.11.82l0,0a.57.57,0,0,1-.92-.11,5.33,5.33,0,0,0-2.87-2.36A.66.66,0,0,1,336.2,239.15Z"/></g><path class="cls-40" d="M330.06,240.19l0-.14a.42.42,0,0,1,.32-.34,3.87,3.87,0,0,1,3,.56.44.44,0,0,1,.19.51v0a.42.42,0,0,1-.59.26,3.36,3.36,0,0,0-2.43-.36A.41.41,0,0,1,330.06,240.19Z"/><path class="cls-40" d="M330.52,245.22l.13-.17a.63.63,0,0,1,.69-.24,6.42,6.42,0,0,1,3.74,3.13.74.74,0,0,1-.1.88h0a.62.62,0,0,1-1-.09,5.69,5.69,0,0,0-3.15-2.42A.7.7,0,0,1,330.52,245.22Z"/><path class="cls-40" d="M326.75,249.73a5.11,5.11,0,0,1,2.83,1.54.69.69,0,0,1,0,.88h0a.6.6,0,0,1-.77.11A12.88,12.88,0,0,0,326.4,251a.66.66,0,0,1-.25-1h0A.6.6,0,0,1,326.75,249.73Z"/><path class="cls-40" d="M325.63,257.43a5.14,5.14,0,0,1,2.83,1.55.68.68,0,0,1,0,.87h0a.58.58,0,0,1-.76.12,12.29,12.29,0,0,0-2.38-1.29.66.66,0,0,1-.25-1h0A.64.64,0,0,1,325.63,257.43Z"/><path class="cls-40" d="M327.19,255a2.92,2.92,0,0,1,1.59.87.37.37,0,0,1,0,.49h0a.33.33,0,0,1-.43.07,7.4,7.4,0,0,0-1.34-.73.36.36,0,0,1-.14-.57h0A.33.33,0,0,1,327.19,255Z"/><path class="cls-41" d="M294.82,105.1c0,8.56,8,15.5,16.59,15.5a15.5,15.5,0,0,0,0-31C302.85,89.6,294.82,96.54,294.82,105.1Z"/><path class="cls-42" d="M299.14,100.34A12.71,12.71,0,0,1,319.77,96a12.62,12.62,0,0,1,2.86,4.17,13,13,0,0,1,.76,2.44,12.79,12.79,0,0,1,.25,2.54,12.62,12.62,0,0,1-.25,2.53,12.79,12.79,0,0,1-.76,2.44,12.52,12.52,0,0,1-2.86,4.17,12.71,12.71,0,0,1-18-.31,12.6,12.6,0,0,1-2.65-4.07,12.65,12.65,0,0,1,0-9.52Zm1,6.85a10,10,0,0,0,.65,2,10.44,10.44,0,0,0,2.47,3.43,11.28,11.28,0,0,0,15.42-.31,10.43,10.43,0,0,0,2.25-3.33,9.92,9.92,0,0,0,0-7.76,10.21,10.21,0,0,0-2.25-3.33,11.18,11.18,0,0,0-7.55-3.21,11.46,11.46,0,0,0-4.22.68,11.22,11.22,0,0,0-3.65,2.22,10.4,10.4,0,0,0-2.47,3.42,10.25,10.25,0,0,0-.65,2,9.69,9.69,0,0,0-.22,2.09A9.83,9.83,0,0,0,300.13,107.19Z"/><path class="cls-43" d="M307.31,99a4.39,4.39,0,0,1,3.56,1.94A4.37,4.37,0,0,1,314.43,99,4.86,4.86,0,0,1,319,104.1a3.36,3.36,0,0,1-.1.74h-1l-2.36-2.59a.63.63,0,0,0-1,.17l-1.91,4.19-1.94-3.51a.62.62,0,0,0-.58-.32.61.61,0,0,0-.54.38l-.81,1.92h-2.23a.63.63,0,0,0,0,1.25h2.65a.61.61,0,0,0,.57-.38l.47-1.12,1.92,3.48a.62.62,0,0,0,.55.32h0a.63.63,0,0,0,.55-.37l2-4.46,1.9,2.08a.64.64,0,0,0,.46.21h.76a22.09,22.09,0,0,1-6.58,7A1.56,1.56,0,0,1,310,113c-2.44-1.87-7.24-6.4-7.24-8.89A4.86,4.86,0,0,1,307.31,99Z"/><path class="cls-41" d="M254.12,111.88c0,8.56,8,15.5,16.59,15.5a15.5,15.5,0,1,0,0-31C262.15,96.38,254.12,103.32,254.12,111.88Z"/><path class="cls-42" d="M258.44,107.12a12.93,12.93,0,0,1,2.65-4.08,12.71,12.71,0,0,1,18-.31,12.9,12.9,0,0,1,2.87,4.17,13.22,13.22,0,0,1,.75,2.44,12.54,12.54,0,0,1,0,5.08,12.66,12.66,0,0,1-3.62,6.61,12.72,12.72,0,0,1-20.63-13.91Zm1,6.85a10.22,10.22,0,0,0,3.13,5.43,11,11,0,0,0,3.65,2.21A11.3,11.3,0,0,0,278,119.09a10.51,10.51,0,0,0,2.26-3.33,10,10,0,0,0,0-7.76,10.4,10.4,0,0,0-2.26-3.33,11.17,11.17,0,0,0-7.54-3.21,11.43,11.43,0,0,0-4.22.68,11,11,0,0,0-3.65,2.22,10.51,10.51,0,0,0-2.48,3.43,10.62,10.62,0,0,0-.65,2,10,10,0,0,0,0,4.18Z"/><g class="cls-44"><rect class="cls-9" x="274.76" y="106.6" width="2.92" height="11.25" rx="0.17" ry="0.17" transform="translate(552.44 224.46) rotate(180)"/><path class="cls-9" d="M278.62,114.21h0a.52.52,0,0,0,.52-.52v-2.92a.52.52,0,0,0-.52-.52h0a.52.52,0,0,0-.52.52v2.92A.52.52,0,0,0,278.62,114.21Z"/><rect class="cls-9" x="262.68" y="106.6" width="2.92" height="11.25" rx="0.17" ry="0.17"/><path class="cls-9" d="M261.74,114.21h0a.52.52,0,0,1-.52-.52v-2.92a.52.52,0,0,1,.52-.52h0a.52.52,0,0,1,.52.52v2.92A.52.52,0,0,1,261.74,114.21Z"/><rect class="cls-9" x="266.01" y="111.39" width="8.34" height="1.58" rx="0.15" ry="0.15" transform="translate(540.35 224.36) rotate(180)"/></g><path class="cls-41" d="M310.91,145.05c0,8.56,8,15.5,16.59,15.5a15.5,15.5,0,0,0,0-31C318.94,129.55,310.91,136.49,310.91,145.05Z"/><path class="cls-42" d="M315.22,140.29a12.81,12.81,0,0,1,6.67-6.88,13.07,13.07,0,0,1,4.82-1.08,12.76,12.76,0,0,1,12.77,10.18,13,13,0,0,1,0,5.08,13.25,13.25,0,0,1-.76,2.44,12.87,12.87,0,0,1-2.86,4.17,12.73,12.73,0,0,1-20.64-13.91Zm1,6.85a9.35,9.35,0,0,0,.65,2,10.44,10.44,0,0,0,2.47,3.43,11.12,11.12,0,0,0,3.65,2.22,11.67,11.67,0,0,0,4.22.68,11.15,11.15,0,0,0,7.54-3.21,10.4,10.4,0,0,0,2.26-3.33,10,10,0,0,0,0-7.76,10.51,10.51,0,0,0-2.26-3.33,11.1,11.1,0,0,0-7.54-3.2,11.26,11.26,0,0,0-4.22.68,10.93,10.93,0,0,0-3.65,2.21,10.44,10.44,0,0,0-2.47,3.43,9.35,9.35,0,0,0-.65,2,9.61,9.61,0,0,0,0,4.18Z"/><g class="cls-45"><path class="cls-9" d="M330.29,140.62l.12,0a.53.53,0,0,1,.26.19.57.57,0,0,1-.52.92.6.6,0,0,1-.39-.22.57.57,0,0,1,.11-.8A.54.54,0,0,1,330.29,140.62Z"/><path class="cls-9" d="M327.26,139.43l.36.55a2.64,2.64,0,0,0-.25.89l-.59.29a.05.05,0,0,0,0,.05l.09.78a0,0,0,0,0,0,0l.64.14a2.78,2.78,0,0,0,.46.8l-.22.62s0,.05,0,.06l.62.49h.06l.55-.36a2.64,2.64,0,0,0,.89.25l.29.59a.05.05,0,0,0,.05,0l.78-.09a.07.07,0,0,0,.05,0l.14-.64a2.92,2.92,0,0,0,.8-.46l.62.22a.07.07,0,0,0,.06,0l.48-.62a0,0,0,0,0,0-.06l-.36-.55a2.9,2.9,0,0,0,.25-.89l.59-.29a.05.05,0,0,0,0-.05l-.09-.78a.08.08,0,0,0-.05,0l-.64-.14a2.78,2.78,0,0,0-.45-.8l.21-.62a.07.07,0,0,0,0-.06l-.62-.48a0,0,0,0,0-.06,0l-.55.36a2.9,2.9,0,0,0-.89-.25l-.29-.59a.05.05,0,0,0-.05,0l-.78.09s-.05,0-.05.05l-.14.64a2.54,2.54,0,0,0-.8.45l-.62-.21a.06.06,0,0,0-.06,0l-.49.62A.06.06,0,0,0,327.26,139.43Zm1.15.89h0l0,0h0v0h0a1.67,1.67,0,0,1,.18-.28l0,0a2,2,0,0,1,2.83-.34,2,2,0,0,1,.67,2.24,2,2,0,0,1-.33.6,2,2,0,0,1-1.34.75,2,2,0,0,1-.9-.09,2,2,0,0,1-.59-.32,2,2,0,0,1-.64-.87.11.11,0,0,1,0-.08.18.18,0,0,1,.07-.08.12.12,0,0,1,.16.08,1.77,1.77,0,0,0,3.05.45,1.63,1.63,0,0,0,.28-.52A1.58,1.58,0,0,0,332,141a1.77,1.77,0,0,0-3.35-.56.12.12,0,0,1-.16.05A.12.12,0,0,1,328.41,140.32Zm1.31.22a.81.81,0,0,1,.6-.16.85.85,0,0,1,.55.31A.82.82,0,0,1,330,142a.86.86,0,0,1-.38-.28A.82.82,0,0,1,329.72,140.54Z"/></g><g class="cls-45"><path class="cls-9" d="M324.34,146.83a.55.55,0,0,1,.18,0,1,1,0,0,1,.51.15.93.93,0,0,1,.26,1.27.94.94,0,0,1-.58.39.91.91,0,0,1-.95-1.4A.88.88,0,0,1,324.34,146.83Z"/><path class="cls-9" d="M319.15,146.6l.82.64a4.51,4.51,0,0,0,.09,1.47l-.75.74a.09.09,0,0,0,0,.1l.54,1.13a.08.08,0,0,0,.09,0l1-.12a4.45,4.45,0,0,0,1.09,1v1a.08.08,0,0,0,.06.08l1.18.41a.1.1,0,0,0,.1,0l.64-.82a4.25,4.25,0,0,0,1.47-.08l.74.74s.06,0,.1,0l1.12-.55a.07.07,0,0,0,0-.08l-.12-1a4.69,4.69,0,0,0,1-1.1h1a.11.11,0,0,0,.09-.06l.41-1.18a.09.09,0,0,0,0-.1l-.82-.65a4.52,4.52,0,0,0-.08-1.47l.74-.73a.1.1,0,0,0,0-.1l-.55-1.13a.09.09,0,0,0-.09-.05l-1,.13a4.73,4.73,0,0,0-1.1-1v-1a.08.08,0,0,0-.05-.08l-1.19-.41a.08.08,0,0,0-.09,0l-.65.82a4.52,4.52,0,0,0-1.47.09l-.73-.74a.08.08,0,0,0-.1,0l-1.13.54a.11.11,0,0,0-.05.09l.12,1a4.32,4.32,0,0,0-1,1.1h-1a.08.08,0,0,0-.08.06l-.42,1.18A.1.1,0,0,0,319.15,146.6Zm2.2.74v-.08h0v0h0a4.21,4.21,0,0,1,.12-.51l0,0a3.22,3.22,0,0,1,4.1-2,3.22,3.22,0,0,1,2.16,3,3.06,3.06,0,0,1-.19,1.07,3.15,3.15,0,0,1-1.64,1.83,3.08,3.08,0,0,1-1.39.32,3.24,3.24,0,0,1-2.47-1.15.24.24,0,0,1-.05-.13.18.18,0,0,1,.07-.15.2.2,0,0,1,.28,0,2.83,2.83,0,0,0,5-1.82,2.76,2.76,0,0,0-.28-1.22,2.82,2.82,0,0,0-5.21.29,3,3,0,0,0-.14.59.2.2,0,0,1-.39,0Zm2.08-.34a1.31,1.31,0,1,1,1.09,2,1.34,1.34,0,0,1-.72-.21A1.32,1.32,0,0,1,323.43,147Z"/></g><path class="cls-17" d="M163.9,109.9h29.67V104H163.9C164.54,104,164.54,109.9,163.9,109.9Z"/><path class="cls-46" d="M193.57,108.41V105.7c0-1-.58-1.74-1.31-1.74H164a1,1,0,0,1-1-1h0a.31.31,0,0,1,.31-.31h30.86A2.5,2.5,0,0,1,196,105.1v3.8a2.38,2.38,0,0,1-1.76,2.34H163.48a.47.47,0,0,1-.48-.47.87.87,0,0,1,.87-.87h28.58C193.07,109.9,193.57,109.23,193.57,108.41Z"/><path class="cls-9" d="M192.75,105.26H164.93a.08.08,0,0,1,0-.16h27.82a.08.08,0,1,1,0,.16Z"/><path class="cls-9" d="M192.75,106.14H164.93a.08.08,0,0,1-.07-.08.07.07,0,0,1,.07-.07h27.82a.08.08,0,0,1,.08.07A.09.09,0,0,1,192.75,106.14Z"/><path class="cls-9" d="M192.75,107H164.93a.08.08,0,0,1-.07-.08.07.07,0,0,1,.07-.07h27.82a.08.08,0,0,1,.08.07A.09.09,0,0,1,192.75,107Z"/><path class="cls-9" d="M192.75,107.9H164.93a.07.07,0,0,1-.07-.08.07.07,0,0,1,.07-.07h27.82a.08.08,0,0,1,.08.07A.08.08,0,0,1,192.75,107.9Z"/><path class="cls-9" d="M192.75,108.78H164.93a.07.07,0,0,1-.07-.07.07.07,0,0,1,.07-.08h27.82a.08.08,0,0,1,.08.08A.08.08,0,0,1,192.75,108.78Z"/><rect class="cls-47" x="166.84" y="96.15" width="26.69" height="6.44" rx="0.27" ry="0.27" transform="translate(360.36 198.74) rotate(180)"/><rect class="cls-17" x="187.38" y="96.89" width="3.14" height="4.96" rx="0.16" ry="0.16" transform="translate(377.89 198.74) rotate(180)"/><rect class="cls-17" x="185.74" y="96.89" width="1.18" height="4.96" rx="0.08" ry="0.08" transform="translate(372.65 198.74) rotate(180)"/></g></g></svg>