<svg id="Layer_1" data-name="Layer 1" xmlns="http://www.w3.org/2000/svg" xmlns:xlink="http://www.w3.org/1999/xlink" viewBox="0 0 560 270"><defs><style>.cls-1,.cls-30,.cls-31,.cls-32,.cls-33,.cls-38,.cls-39{fill:none;}.cls-2,.cls-8{fill:#548c4b;}.cls-3{clip-path:url(#clip-path);}.cls-4,.cls-40{fill:#b4e3e3;}.cls-5{fill:#36707c;}.cls-24,.cls-5{opacity:0.48;}.cls-37,.cls-6{fill:#3a6867;}.cls-7{clip-path:url(#clip-path-2);}.cls-8{opacity:0.5;}.cls-9{fill:#e6f5f6;}.cls-10{fill:#84af86;}.cls-11{fill:#8baf8c;}.cls-12{fill:#4d606b;}.cls-13{fill:#a4c9a7;}.cls-14{fill:#54697f;}.cls-15{fill:#46595e;}.cls-16{fill:#705e43;}.cls-17{fill:#f1a240;}.cls-18,.cls-36{fill:#fff;}.cls-19{fill:#c68632;}.cls-20{fill:#da9338;}.cls-21{fill:#f1eedb;}.cls-22{fill:#f2a805;opacity:0.87;}.cls-23,.cls-24{fill:#fff9e6;}.cls-25{fill:#581609;}.cls-26{fill:#414042;}.cls-27{fill:#64afad;}.cls-28{fill:#3d7776;}.cls-29{fill:#515254;}.cls-30,.cls-31,.cls-32,.cls-33,.cls-39{stroke:#fff;}.cls-30,.cls-31,.cls-32,.cls-33,.cls-36,.cls-37,.cls-38,.cls-39,.cls-40{stroke-linecap:round;}.cls-30,.cls-31,.cls-32,.cls-33{stroke-miterlimit:10;stroke-width:1.42px;}.cls-31{stroke-dasharray:3.52 3.52;}.cls-32{stroke-dasharray:3.45 3.45;}.cls-33{stroke-dasharray:3.5;}.cls-34{fill:#00444a;opacity:0.31;}.cls-35{opacity:0.77;}.cls-36,.cls-37,.cls-38,.cls-40{stroke:#3a6867;}.cls-36,.cls-37,.cls-38,.cls-39,.cls-40{stroke-linejoin:round;stroke-width:0.71px;}.cls-41{opacity:0.73;}.cls-42{opacity:0.68;}</style><clipPath id="clip-path"><rect class="cls-1" x="-1163" y="-3" width="1727" height="277"/></clipPath><clipPath id="clip-path-2"><rect id="_Rectangle_" data-name="&lt;Rectangle&gt;" class="cls-2" x="-5.53" y="225.92" width="571.53" height="46.08"/></clipPath></defs><title>harvest-illustratioons 2</title><g class="cls-3"><rect class="cls-4" x="-4" y="-9" width="569" height="266"/><rect class="cls-5" x="471.14" y="21.94" width="26.01" height="27.54" rx="3.67" ry="3.67"/><path class="cls-6" d="M446.05,245.14l-.27,0q-21.25,1.59-39.23,3.38c-12.29-13.79-21.9-25.5-39.84-31.26a40.4,40.4,0,0,0-10.95-2.09c-6.81-.32-13.57,1.1-29.25.49a151.54,151.54,0,0,1-21.2-2.18c-5-.88-9.84-2-15.35-3.34-5.07-1.23-10.69-2.66-17.51-4.25l-2-.46c-2.9-.68-6-1.37-9.37-2.11q-3-.65-6.22-1.32l-4-.81-3.54-.72-.57-.11-.6-.12c-.2,0-.4-.09-.61-.12-5.53-1.11-13-2.56-21.45-4l-1.89-.32-2.27-.38-4.26-.68-.93-.15-2.51-.38c-1.2-.19-2.4-.36-3.61-.53-1-.16-2-.29-3-.43-4.75-.66-9.55-1.24-14.25-1.72-11-1.1-21.74-1.58-32.08-1.58-1.24,0-2.47,0-3.7,0s-2.47,0-3.69.06l-2.89.08c-.55,0-1.09,0-1.63.06l-2.77.1-2.69.13-.26,0-2,.11-.38,0-2.21.14q-4.83.32-9.51.76-3.48.32-6.87.71-7.55.85-14.66,2c-.75.11-1.48.22-2.22.35-1,.15-2,.32-3,.49-.64.11-1.27.21-1.89.33-3,.52-6,1.07-8.83,1.64-1.7.32-3.39.67-5,1l-2.45.52c-6.22,1.35-12.07,2.77-17.52,4.2l-1.65.43-1.64.44c-1.94.52-3.83,1-5.65,1.56l-1.36.38c-3.16.9-6.14,1.78-8.93,2.62l-1.57.48-2,.62-1.74.54-3.5,1.09c-10.24,3.2-23.2,7.66-38.06,13.84V141.41l31.63-10.95s6.43-9.65,16.08-8S86.91,138.5,95,141.72c5.3,2.12,19,8.44,30.94,12.95.61.23,1.21.46,1.81.67l2,.73c1.3.46,2.57.89,3.79,1.27.64.21,1.26.41,1.88.59.47.15.93.28,1.39.4a38.67,38.67,0,0,0,4.84,1.08l.72.09c.6.09,1.25.16,1.92.23.93.11,1.92.2,2.94.28l3.73.28.66,0c1.9.11,3.88.21,5.88.28,1.19,0,2.39.09,3.59.12l.55,0c5.29.15,10.54.22,14.83.24h7c5.88,0,32.41-2.59,48.75-4,6-.51,10.62-.85,12.35-.85,3.12,0,19.47,5.29,35.49,10.74l6.79,2.33,25.28,8.87c8.76,1.67,22.11,4.42,38.21,8.61,6.22,1.62,11.93,3.12,17.2,4.54l1.83.5c5.25,1.44,10.05,2.81,14.48,4.21,1.61.5,3.16,1,4.67,1.51,2.46.83,4.8,1.67,7,2.55.82.31,1.64.63,2.43,1,2.53,1,4.93,2.11,7.23,3.25q1.22.6,2.4,1.23c1.54.82,3,1.67,4.47,2.57a76.43,76.43,0,0,1,7.91,5.54c.85.67,1.69,1.37,2.53,2.09l.45.39c2.4,2.1,5.08,4.66,7.78,7.51,1.23,1.3,2.46,2.65,3.67,4,1.62,1.88,3.2,3.84,4.68,5.84.56.75,1.1,1.5,1.63,2.26a58.91,58.91,0,0,1,5.11,8.8C445.88,244.74,446,245,446.05,245.14Z"/><path class="cls-6" d="M113,238.14l.27,0q21.25,1.59,39.23,3.38c12.29-13.79,21.9-25.5,39.84-31.26a40.4,40.4,0,0,1,11-2.09c6.81-.32,13.57,1.1,29.25.49a151.54,151.54,0,0,0,21.2-2.18c5-.88,9.84-2,15.35-3.34,5.07-1.23,10.69-2.66,17.51-4.25l2-.46c2.9-.68,6-1.37,9.37-2.11q3-.65,6.22-1.32l4-.81,3.54-.72.57-.11.6-.12c.2,0,.4-.09.61-.12,5.53-1.11,13-2.56,21.45-4l1.89-.32,2.27-.38,4.26-.68.93-.15,2.51-.38c1.2-.19,2.4-.36,3.61-.53,1-.16,2-.29,3-.43,4.75-.66,9.55-1.24,14.25-1.72,11-1.1,21.74-1.58,32.08-1.58,1.24,0,2.47,0,3.7,0s2.47,0,3.69.06l2.89.08c.55,0,1.09,0,1.63.06l2.77.1,2.69.13.26,0,2,.11.38,0,2.21.14q4.83.32,9.51.76,3.48.32,6.87.71,7.54.85,14.66,2c.75.11,1.48.22,2.22.35,1,.15,2,.32,3,.49.64.11,1.27.21,1.89.33,3,.52,6,1.07,8.83,1.64,1.7.32,3.39.67,5,1l2.45.52c6.22,1.35,12.07,2.77,17.52,4.2l1.65.43,1.64.44c1.94.52,3.83,1,5.65,1.56l1.36.38c3.16.9,6.14,1.78,8.93,2.62l1.57.48,2,.62,1.74.54,3.5,1.09c10.24,3.2,23.2,7.66,38.06,13.84V134.41l-31.63-11s-6.43-9.65-16.08-8-40.2,16.08-48.24,19.3c-5.3,2.12-19,8.44-30.94,12.95-.61.23-1.21.46-1.81.67l-2,.73c-1.3.46-2.57.89-3.79,1.27-.64.21-1.26.41-1.88.59-.47.15-.93.28-1.39.4a38.67,38.67,0,0,1-4.84,1.08l-.72.09c-.6.09-1.25.16-1.92.23-.93.11-1.92.2-2.94.28l-3.73.28-.66,0c-1.9.11-3.88.21-5.88.28-1.19,0-2.39.09-3.59.12l-.55,0c-5.29.15-10.54.22-14.83.24h-7c-5.88,0-32.41-2.59-48.75-4-6-.51-10.62-.85-12.35-.85-3.12,0-19.47,5.29-35.49,10.74l-6.79,2.33-25.28,8.87c-8.76,1.67-22.11,4.42-38.21,8.61-6.22,1.62-11.93,3.12-17.2,4.54l-1.83.5c-5.25,1.44-10,2.81-14.48,4.21-1.61.5-3.16,1-4.67,1.51-2.46.83-4.8,1.67-7,2.55-.82.31-1.64.63-2.43,1-2.53,1-4.93,2.11-7.23,3.25q-1.22.6-2.4,1.23c-1.54.82-3,1.67-4.47,2.57a76.43,76.43,0,0,0-7.91,5.54c-.85.67-1.69,1.37-2.53,2.09l-.45.39c-2.4,2.1-5.08,4.66-7.78,7.51-1.23,1.3-2.46,2.65-3.67,4-1.62,1.88-3.2,3.84-4.68,5.84-.56.75-1.1,1.5-1.63,2.26a58.91,58.91,0,0,0-5.11,8.8C113.12,237.74,113,238,113,238.14Z"/><rect class="cls-6" y="162" width="560" height="67"/><rect id="_Rectangle_2" data-name="&lt;Rectangle&gt;" class="cls-2" x="-5.53" y="225.92" width="571.53" height="46.08"/><g class="cls-7"><rect class="cls-8" x="-5.53" y="225.92" width="580.13" height="53.08"/></g><path class="cls-9" d="M379.34,133.94c-.16-1.17-9.84.7-28.31,0-12.59-.48-16.9-1.68-25.52.28-5.34,1.21-6.35,2.28-11.49,2.8-8.08.83-10.52-1.31-18.79-.84-7,.4-14.64,2.48-14.57,3.93s9,3.42,17.94,2.8c8.46-.59,14.64-3.29,16-1.12,1,1.67-2.18,4.06-1.12,6.16,1.51,3,10.72,3.3,14.58-1.12,1.93-2.22.78-3.62,2.52-5.6,2.81-3.19,7.66-1.65,18.5-1.69a105.38,105.38,0,0,0,13.18-.84C370.51,137.6,379.5,135.07,379.34,133.94Z"/><path class="cls-9" d="M557.34,82.94c-.16-1.17-9.84.7-28.31,0-12.59-.48-16.9-1.68-25.52.28-5.34,1.21-6.35,2.28-11.49,2.8-8.08.83-10.52-1.31-18.79-.84-7,.4-14.64,2.48-14.57,3.93s9,3.42,17.94,2.8c8.46-.59,14.64-3.29,16-1.12,1,1.67-2.18,4.06-1.12,6.16,1.51,3,10.72,3.3,14.58-1.12,1.93-2.22.78-3.62,2.52-5.6,2.81-3.19,7.66-1.65,18.5-1.69a105.38,105.38,0,0,0,13.18-.84C548.51,86.6,557.5,84.07,557.34,82.94Z"/><path class="cls-9" d="M134.24,51.16c27.69,3.29,43.08,9.28,65.6,8.41,8.42-.33,13.43-1.45,25.79-1.12,4.94.13,22.73.59,23,3.36.21,2.18-10.48,5.5-19.62,6.73-10.6,1.43-11.83-.92-24.11.56-8,1-9,2.13-17.38,2.8-5.87.48-8.1.12-16.27,0-17.27-.24-26.75,1.06-26.91,0-.21-1.46,17.89-4.25,17.66-6.44-.17-1.68-11-2.3-19.06-2-2.14.09-1.87.16-7,.56-15.4,1.23-13.23.29-28.31,1.13a22.69,22.69,0,0,1-7-.28c-4.95-1.15-6.3-3.64-10.38-5.61-7.74-3.74-14.77-.5-15.14-2s6.27-6.51,13.46-5.89c5.58.48,7.87,4.05,14,3.36,1.84-.2,1.42-.5,5.89-1.68a85.39,85.39,0,0,1,12.33-2.24A60.85,60.85,0,0,1,134.24,51.16Z"/><path class="cls-10" d="M21.57,211.46c3.05-3.25,5.51-7.24,6.06-11.59.63-4.9-1.21-9.64-1.88-14.48-.48-3.37-2.32-17.64-6.07-16.88-4,.81-6.22,16.88-6.3,18.58C12.75,200.32,15.39,211.93,21.57,211.46Z"/><path class="cls-11" d="M13.38,187.09c.08-1.7,2.28-17.77,6.3-18.58a1.4,1.4,0,0,1,.83.11c-3.41,2.14-5.11,15.9-5.16,17.44-.43,12.55,1.72,21.52,7.57,21a3.92,3.92,0,0,0,2.84-1.48,26.35,26.35,0,0,1-4.19,5.88C15.39,211.93,12.75,200.32,13.38,187.09Z"/><path class="cls-12" d="M21,195.38l-.1,5.42c-.11,3.25,0,7.59,0,11.92l.2,17.35h1l-.23-17.35c-.06-4.33-.07-8.67-.26-11.92s-.23-5.41-.23-5.41Z"/><polygon class="cls-12" points="23.55 201.12 21.18 205.77 21.8 206.06 23.81 201.24 23.55 201.12"/><path class="cls-12" d="M21.91,209.61a8.82,8.82,0,0,0-1.39-1.82,8.94,8.94,0,0,0-1.79-1.39l-.09.13a8.56,8.56,0,0,1,1.57,1.53,8.38,8.38,0,0,1,1.11,1.86Z"/><path class="cls-13" d="M4.32,193.55c.6-9.54,2.4-33.47,6.87-33.62,2.81.84,3.08,7,5.6,26.51.57,4.44,1.14,8.93.57,13.37S15,208.7,11.46,211.5C4.58,208.5,3.86,200.87,4.32,193.55Z"/><path class="cls-10" d="M4.32,193.55c.6-9.54,2.4-33.47,6.87-33.62a2.07,2.07,0,0,1,.75.42c-3.62,1.14-4.83,22.28-5.22,30.85-.3,6.73,3,16.18,6.33,16.41,1.11.07,2-.68,2.64-1.82a15.06,15.06,0,0,1-4.23,5.71C4.58,208.5,3.86,200.87,4.32,193.55Z"/><path class="cls-14" d="M11.39,189.87s-.11,2.51-.29,6.28-.19,8.79-.2,13.81l0,20.1h1S12,220,12,210c0-5,.06-10-.09-13.81s-.23-6.28-.23-6.28Z"/><polygon class="cls-14" points="8.91 194.71 11.38 200.78 11.99 200.5 9.15 194.6 8.91 194.71"/><polygon class="cls-14" points="14.97 200.13 11.4 207.3 12.01 207.59 15.32 200.3 14.97 200.13"/><path class="cls-13" d="M273.38,208.64c-.45-7.16-1.81-25.13-5.16-25.25-2.11.63-2.32,5.26-4.21,19.91a39.34,39.34,0,0,0-.43,10,13.29,13.29,0,0,0,4.43,8.78C273.18,219.87,273.72,214.14,273.38,208.64Z"/><path class="cls-10" d="M273.38,208.64c-.45-7.16-1.81-25.13-5.16-25.25a1.43,1.43,0,0,0-.56.32c2.72.85,3.62,16.73,3.91,23.17.23,5.05-2.23,12.15-4.75,12.32-.83.06-1.47-.51-2-1.37a11.27,11.27,0,0,0,3.17,4.29C273.18,219.87,273.72,214.14,273.38,208.64Z"/><path class="cls-14" d="M268.07,205.88s.08,1.89.21,4.71.15,6.61.16,10.38v15.09h-.75s-.06-7.55-.11-15.09c0-3.78,0-7.55.07-10.38s.18-4.72.18-4.72Z"/><polygon class="cls-14" points="269.93 209.51 268.08 214.07 267.61 213.86 269.75 209.43 269.93 209.51"/><polygon class="cls-14" points="265.38 213.59 268.06 218.97 267.6 219.18 265.12 213.71 265.38 213.59"/><path class="cls-13" d="M49.52,202.64c-.45-7.16-1.8-25.13-5.16-25.25-2.11.63-2.31,5.26-4.2,19.91a39.8,39.8,0,0,0-.44,10,13.31,13.31,0,0,0,4.44,8.78C49.32,213.87,49.86,208.14,49.52,202.64Z"/><path class="cls-10" d="M49.52,202.64c-.45-7.16-1.8-25.13-5.16-25.25a1.43,1.43,0,0,0-.56.32c2.72.85,3.63,16.73,3.92,23.17C48,205.93,45.49,213,43,213.2a2.23,2.23,0,0,1-2-1.37,11.29,11.29,0,0,0,3.18,4.29C49.32,213.87,49.86,208.14,49.52,202.64Z"/><path class="cls-14" d="M44.21,199.88s.09,1.89.22,4.71.14,6.61.15,10.38l0,15.09h-.76s-.05-7.55-.11-15.09c0-3.78,0-7.55.07-10.38s.18-4.72.18-4.72Z"/><polygon class="cls-14" points="46.08 203.51 44.22 208.07 43.76 207.86 45.89 203.43 46.08 203.51"/><polygon class="cls-14" points="41.52 207.59 44.2 212.97 43.74 213.18 41.26 207.71 41.52 207.59"/><path class="cls-13" d="M293.83,206c-.51-4.14-.79-10.36-1.19-14.51s-.15-20.26-4.17-20.23c-4.55,0-6.34,6.33-7.21,13a126.5,126.5,0,0,0-.78,16.23c-.35,15.43,4.62,18.33,6.57,21.1C290,219.35,295.1,216.44,293.83,206Z"/><path class="cls-10" d="M293.83,206c-.51-4.14-.79-10.36-1.19-14.51s-.15-20.26-4.17-20.23h-.19c2.78,2.43,2.21,14.27,2.46,17.63.28,3.69.37,9.22.74,12.91.94,9.35-3.74,13.75-7.18,13.58a3.66,3.66,0,0,1-1.81-.59c1.51,3.65,3.49,5.23,4.56,6.75C290,219.35,295.1,216.44,293.83,206Z"/><path class="cls-15" d="M287.53,187.5l-.16,2.08c-.11,1.32-.28,3.21-.37,5.48-.28,4.54-.34,10.61-.16,16.68s.46,12.13.66,16.7,0,7.63,0,7.63l-.74,0a74.4,74.4,0,0,0,0-7.56c-.18-4.54-.46-10.62-.6-16.7s-.09-12.18.25-16.73a71,71,0,0,1,.91-7.56Z"/><path class="cls-16" d="M286.54,217.88a31.69,31.69,0,0,1,1.24-4.12,23.36,23.36,0,0,1,1.91-3.86l.23.14a22.42,22.42,0,0,0-1.78,3.85A31,31,0,0,0,287,218Z"/><path class="cls-15" d="M282.83,203.27a31.64,31.64,0,0,1,2.12,3,25.15,25.15,0,0,1,1.72,3.31l-.46.19a25,25,0,0,0-1.59-3.31,33.2,33.2,0,0,0-2-3.08Z"/><path class="cls-15" d="M286.14,201.53a25.85,25.85,0,0,1,1.33-3.22,24.83,24.83,0,0,1,1.74-3l.15.1a24.39,24.39,0,0,0-1.59,3,26.37,26.37,0,0,0-1.16,3.23Z"/><path class="cls-15" d="M284.58,191s.7,1,1.31,2a12.54,12.54,0,0,1,.78,1.45,4.57,4.57,0,0,1,.27.73l-.48.11a4.41,4.41,0,0,0-.2-.67,12.34,12.34,0,0,0-.66-1.46c-.53-1-1.16-2-1.16-2Z"/><path class="cls-10" d="M553.61,181.39c-2.79-.44-3.65,8.54-4.24,11.07-.44,1.88-1.18,3.67-1.73,5.52-1.67,5.66-1.41,12.14,1.9,17a37.89,37.89,0,0,1,3.54,5.74c3.62-3,5.21-3.76,5.66-12.72C559.05,201.71,557.47,182,553.61,181.39Z"/><path class="cls-11" d="M553.61,181.39a1.27,1.27,0,0,0-.28,0c2.8,2.46,3.64,19,3.28,24.56-.55,8.33-3.46,10.38-4.62,10.27-1,.09-2.55-1.26-3.8-3.75a15.68,15.68,0,0,0,1.35,2.52,37.89,37.89,0,0,1,3.54,5.74c3.62-3,5.21-3.76,5.66-12.72C559.05,201.71,557.47,182,553.61,181.39Z"/><path class="cls-12" d="M552.7,204.24s.19,1.81.28,4.54.1,6.35.17,10,.09,7.27.13,10,0,4.55,0,4.55h-.76l-.1-4.55c0-2.72-.07-6.36-.12-10s-.1-7.27-.07-10,.16-4.54.16-4.54Z"/><path class="cls-12" d="M550.82,206.79a10.71,10.71,0,0,1,1.21,1.59,12.42,12.42,0,0,1,.91,1.8l-.47.18a12.77,12.77,0,0,0-.77-1.78,10.07,10.07,0,0,0-1.08-1.62Z"/><path class="cls-12" d="M552.65,216.51a19.25,19.25,0,0,1,1.08-2.23,16.25,16.25,0,0,1,1.4-2l.19.15a16,16,0,0,0-1.26,2.07,19.24,19.24,0,0,0-.94,2.23Z"/><path class="cls-13" d="M534,165.47c-4.48,0-5.5,19.9-6.23,31.83-.38,6.22-.21,12.59,1.81,18.51a12.38,12.38,0,0,0,3.42,4.9c4.66-2.15,8.19-10.89,7.89-21.93C540.68,192,540.24,165.35,534,165.47Z"/><path class="cls-10" d="M540.87,198.78c-.19-6.6-.6-32-6.4-33.25,3.74,5.58,4.08,23.3,4.24,28.45.3,10-4.93,19.84-7.79,19.89-.83,0-1.82-1.29-2.56-2.67a33.59,33.59,0,0,0,1.2,4.61,12.38,12.38,0,0,0,3.42,4.9C537.64,218.56,541.17,209.82,540.87,198.78Z"/><path class="cls-14" d="M533.77,199.41s-.08,2.18-.29,5.41-.41,7.56-.28,11.89c0,2.16.18,4.32.31,6.35.06,1,.15,2,.14,2.95s0,1.81,0,2.62v5.43h-.76l-.1-5.43c0-.81,0-1.69,0-2.62s-.07-1.88-.13-2.91c-.12-2-.25-4.2-.29-6.38a109.5,109.5,0,0,1,.37-12,43.46,43.46,0,0,1,.8-5.39Z"/><path class="cls-14" d="M532.8,205.57a13.25,13.25,0,0,1,1.2-2.11,18,18,0,0,1,1.52-1.86l.09.08a17,17,0,0,0-1.35,1.95,12.83,12.83,0,0,0-1,2.13Z"/><path class="cls-14" d="M529.69,205.75a20.86,20.86,0,0,1,1.83,2.5,21.5,21.5,0,0,1,1.41,2.78l-.48.18a19.27,19.27,0,0,0-1.27-2.75,19.5,19.5,0,0,0-1.71-2.53Z"/><path class="cls-14" d="M532.47,216s.72-1.29,1.56-2.53a22.11,22.11,0,0,1,1.82-2.34l.16.13a22.29,22.29,0,0,0-1.68,2.41c-.76,1.25-1.41,2.57-1.41,2.57Z"/><path class="cls-10" d="M521.91,176.82c-2.49-.48-3.25,9.4-3.78,12.19-.39,2.07-1,4.05-1.54,6.08-1.49,6.24-1.25,13.38,1.7,18.76a43,43,0,0,1,3.14,6.33c3.23-3.35,4.64-4.14,5-14C526.75,199.2,525.35,177.5,521.91,176.82Z"/><path class="cls-11" d="M521.91,176.82a1,1,0,0,0-.25,0c2.49,2.71,3.24,21,2.92,27-.49,9.18-3.08,11.44-4.11,11.32-.87.1-2.28-1.4-3.39-4.14a19.15,19.15,0,0,0,1.21,2.78,43,43,0,0,1,3.14,6.33c3.23-3.35,4.64-4.14,5-14C526.75,199.2,525.35,177.5,521.91,176.82Z"/><path class="cls-12" d="M521.1,202s.17,2,.24,5,.1,7,.16,11l.11,11c0,3,0,5,0,5H521s0-2-.09-5l-.11-11c0-4-.09-8-.06-11s.14-5,.14-5Z"/><path class="cls-12" d="M519.42,204.79a11.62,11.62,0,0,1,1.08,1.76,14.94,14.94,0,0,1,.81,2l-.42.19a14.8,14.8,0,0,0-.69-2,11.81,11.81,0,0,0-1-1.78Z"/><path class="cls-12" d="M521.06,215.5a21.91,21.91,0,0,1,1-2.45,18.58,18.58,0,0,1,1.24-2.25l.17.16a18.75,18.75,0,0,0-1.12,2.28,23.13,23.13,0,0,0-.83,2.46Z"/><rect class="cls-5" x="130.39" y="79.45" width="26.01" height="27.54" rx="3.67" ry="3.67"/><path class="cls-17" d="M153.6,93.22A10.21,10.21,0,1,1,143.39,83,10.22,10.22,0,0,1,153.6,93.22Z"/><path class="cls-18" d="M140.6,90.21v.41a1.06,1.06,0,0,1,0,.29,2.07,2.07,0,0,1-.08.2l-2.86,5.77a.68.68,0,0,1-.18.23.53.53,0,0,1-.32.1h-.66l2.9-5.7a2,2,0,0,1,.29-.45h-3.6a.21.21,0,0,1-.16-.07.2.2,0,0,1-.06-.15v-.63Z"/><path class="cls-18" d="M146.35,93.71a5.75,5.75,0,0,1-.2,1.59,3.28,3.28,0,0,1-.54,1.11,2.32,2.32,0,0,1-.81.66,2.42,2.42,0,0,1-1,.21,2.36,2.36,0,0,1-1-.21,2.32,2.32,0,0,1-.81-.66,3.28,3.28,0,0,1-.54-1.11,5.77,5.77,0,0,1-.19-1.59,5.68,5.68,0,0,1,.19-1.59A3.34,3.34,0,0,1,142,91a2.18,2.18,0,0,1,.81-.65,2.22,2.22,0,0,1,1-.22,2.28,2.28,0,0,1,1,.22,2.18,2.18,0,0,1,.81.65,3.34,3.34,0,0,1,.54,1.12A5.65,5.65,0,0,1,146.35,93.71Zm-1,0a5.53,5.53,0,0,0-.14-1.33,2.37,2.37,0,0,0-.35-.86,1.24,1.24,0,0,0-.5-.47,1.46,1.46,0,0,0-.6-.14,1.39,1.39,0,0,0-.6.14,1.26,1.26,0,0,0-.51.47,2.56,2.56,0,0,0-.35.86,6.87,6.87,0,0,0,0,2.66,2.75,2.75,0,0,0,.35.86,1.3,1.3,0,0,0,.51.46,1.39,1.39,0,0,0,.6.14,1.46,1.46,0,0,0,.6-.14,1.28,1.28,0,0,0,.5-.46,2.53,2.53,0,0,0,.35-.86A5.53,5.53,0,0,0,145.39,93.71Z"/><path class="cls-18" d="M149.21,92.19a1.37,1.37,0,0,1-.08.51,1.12,1.12,0,0,1-.24.38,1.21,1.21,0,0,1-.35.24,1.16,1.16,0,0,1-.42.08,1.22,1.22,0,0,1-.43-.08,1,1,0,0,1-.34-.24,1.1,1.1,0,0,1-.23-.38,1.37,1.37,0,0,1-.08-.51,1.39,1.39,0,0,1,.08-.52,1.15,1.15,0,0,1,.23-.39,1,1,0,0,1,.34-.24,1.22,1.22,0,0,1,.43-.08,1.27,1.27,0,0,1,.44.08,1.16,1.16,0,0,1,.34.24,1,1,0,0,1,.23.39A1.39,1.39,0,0,1,149.21,92.19Zm1.72-1.07A.3.3,0,0,1,151,91a.23.23,0,0,1,.13,0h.47L148,95.79a.34.34,0,0,1-.09.08l-.12,0h-.47Zm-2.22,1.07a1.31,1.31,0,0,0,0-.37.54.54,0,0,0-.13-.25.43.43,0,0,0-.19-.14.68.68,0,0,0-.46,0,.4.4,0,0,0-.18.14.65.65,0,0,0-.12.25,1.27,1.27,0,0,0-.05.37,1.25,1.25,0,0,0,.05.36.83.83,0,0,0,.12.25.46.46,0,0,0,.18.13.68.68,0,0,0,.46,0,.5.5,0,0,0,.19-.13.66.66,0,0,0,.13-.25A1.28,1.28,0,0,0,148.71,92.19Zm3.22,2.55a1.36,1.36,0,0,1-.09.51,1.12,1.12,0,0,1-.24.38.92.92,0,0,1-.35.24,1.16,1.16,0,0,1-.42.08,1.26,1.26,0,0,1-.43-.08.88.88,0,0,1-.34-.24,1.1,1.1,0,0,1-.23-.38,1.6,1.6,0,0,1-.08-.51,1.67,1.67,0,0,1,.08-.52,1.26,1.26,0,0,1,.23-.39,1.16,1.16,0,0,1,.34-.24,1.22,1.22,0,0,1,.87,0,1,1,0,0,1,.34.24,1.09,1.09,0,0,1,.23.39A1.42,1.42,0,0,1,151.93,94.74Zm-.5,0a1.32,1.32,0,0,0-.05-.37.59.59,0,0,0-.13-.25.38.38,0,0,0-.19-.14.56.56,0,0,0-.23,0,.54.54,0,0,0-.22,0,.43.43,0,0,0-.19.14.73.73,0,0,0-.12.25,1.32,1.32,0,0,0-.05.37,1.25,1.25,0,0,0,.05.36.73.73,0,0,0,.12.25.41.41,0,0,0,.19.13.54.54,0,0,0,.22,0,.56.56,0,0,0,.23,0,.36.36,0,0,0,.19-.13.59.59,0,0,0,.13-.25A1.25,1.25,0,0,0,151.43,94.74Z"/><path class="cls-19" d="M493.7,30.7a6.56,6.56,0,1,0-6.56,6.56A6.56,6.56,0,0,0,493.7,30.7Z"/><path class="cls-17" d="M492.71,30.7a6.56,6.56,0,1,0-6.56,6.56A6.56,6.56,0,0,0,492.71,30.7Z"/><path class="cls-20" d="M490.77,30.7a4.62,4.62,0,1,0-4.62,4.62A4.62,4.62,0,0,0,490.77,30.7Z"/><path class="cls-21" d="M485.94,30.91c-.64-.43-1.13-.71-1.13-1.61a1.16,1.16,0,0,1,1.11-1.22v-.41h.45v.41c.71.08,1,.46,1.06.9a2.93,2.93,0,0,1,0,.41h-.76c0-.35-.05-.57-.36-.66V30a1.83,1.83,0,0,1,1.22,1.51c0,.9-.33,1.35-1.19,1.47v.72h-.45V33c-.92-.08-1.22-.72-1.18-1.57h.79c0,.43,0,.79.41.9Zm0-2.18a.45.45,0,0,0-.35.49,1,1,0,0,0,.35.69Zm.4,3.64a.58.58,0,0,0,.39-.62.93.93,0,0,0-.39-.71Z"/><path class="cls-19" d="M488.16,34.91a6.56,6.56,0,1,0-6.56,6.56A6.56,6.56,0,0,0,488.16,34.91Z"/><path class="cls-17" d="M487.17,34.91a6.56,6.56,0,1,0-6.56,6.56A6.56,6.56,0,0,0,487.17,34.91Z"/><path class="cls-20" d="M485.23,34.91a4.62,4.62,0,1,0-4.62,4.62A4.62,4.62,0,0,0,485.23,34.91Z"/><path class="cls-21" d="M480.4,35.12c-.64-.43-1.13-.71-1.13-1.61a1.16,1.16,0,0,1,1.11-1.22v-.42h.45v.42c.71.08,1,.46,1.06.9a2.93,2.93,0,0,1,0,.41h-.76c0-.35-.05-.57-.36-.66v1.31A1.83,1.83,0,0,1,482,35.76c0,.9-.33,1.35-1.19,1.47V38h-.45v-.7c-.92-.08-1.22-.72-1.18-1.57H480c0,.43,0,.79.41.9Zm0-2.18a.45.45,0,0,0-.35.49.91.91,0,0,0,.35.68Zm.4,3.64a.58.58,0,0,0,.39-.62.93.93,0,0,0-.39-.71Z"/><path class="cls-19" d="M494.23,40.73a6.56,6.56,0,1,0-6.56,6.56A6.57,6.57,0,0,0,494.23,40.73Z"/><path class="cls-17" d="M493.24,40.73a6.56,6.56,0,1,0-6.56,6.56A6.57,6.57,0,0,0,493.24,40.73Z"/><path class="cls-20" d="M491.3,40.73a4.62,4.62,0,1,0-4.62,4.62A4.62,4.62,0,0,0,491.3,40.73Z"/><path class="cls-21" d="M486.47,40.93c-.64-.42-1.13-.7-1.13-1.61a1.16,1.16,0,0,1,1.11-1.22v-.41h.44v.41c.72.09,1.05.46,1.07.91,0,.14,0,.27,0,.41h-.76c0-.35-.05-.58-.36-.66v1.3c.68.35,1.22.84,1.22,1.52a1.24,1.24,0,0,1-1.2,1.47v.71h-.44v-.69c-.92-.08-1.23-.72-1.18-1.57h.79c0,.42,0,.78.41.89Zm0-2.17a.45.45,0,0,0-.35.49.91.91,0,0,0,.35.68Zm.4,3.63a.56.56,0,0,0,.39-.61.93.93,0,0,0-.39-.71Z"/><rect class="cls-22" x="267" y="23.08" width="26.01" height="27.54" rx="3.67" ry="3.67"/><path class="cls-23" d="M280,47a10.13,10.13,0,1,0-10.13-10.13A10.14,10.14,0,0,0,280,47Zm3.78-10.49V36.4a24.37,24.37,0,0,0-.15-2.48h2.23a24,24,0,0,1,.21,2.57Zm2.28.71a25.09,25.09,0,0,1-.28,2.55h-2.29c.12-.88.22-1.76.26-2.55Zm-2.52-4c-.1-.79-.22-1.57-.34-2.29h2.16c.12.61.27,1.42.4,2.29Zm-.16,7.25h2.29c-.16.93-.33,1.8-.48,2.48h-2.26C283.09,42.18,283.24,41.33,283.38,40.46Zm-.32-4h-2.72c0-.89,0-1.76,0-2.57h2.53c.09.87.16,1.72.16,2.48A.28.28,0,0,1,283.06,36.49Zm0,.71c0,.79-.14,1.66-.27,2.55h-2.52l.07-2.55Zm-.25,6.46H285c0,.12-.05.23-.07.32a8.91,8.91,0,0,1-2.52,1.22C282.54,44.8,282.66,44.27,282.79,43.66Zm3.42-.72h-.29c.15-.69.32-1.56.47-2.48h1.52A8.55,8.55,0,0,1,286.21,42.94Zm2-3.19h-1.7a22.17,22.17,0,0,0,.27-2.55h1.92A8.94,8.94,0,0,1,288.2,39.75Zm.49-3.26h-1.91a23.69,23.69,0,0,0-.2-2.57h1.61A8.75,8.75,0,0,1,288.69,36.49Zm-.79-3.28h-1.42c-.13-.86-.27-1.66-.4-2.29h.27A8.56,8.56,0,0,1,287.9,33.21Zm-2.76-3.37c0,.06,0,.18.07.37h-2.14c-.11-.63-.23-1.18-.32-1.61A8.62,8.62,0,0,1,285.14,29.84Zm-2.32,3.37h-2.44c0-.83,0-1.6,0-2.29h2.13C282.6,31.63,282.72,32.42,282.82,33.21ZM282,28.38c.09.42.22,1.06.36,1.83h-2c0-.87-.05-1.57-.08-2.05A8.29,8.29,0,0,1,282,28.38Zm-1.75,12.08h2.43c-.14.87-.3,1.72-.46,2.48h-2Zm-.09,3.2h1.92c-.16.74-.3,1.35-.39,1.73a8.22,8.22,0,0,1-1.58.16Zm-6-3.2h2.29c.1.86.23,1.71.35,2.48h-2.15C274.52,42.27,274.33,41.39,274.17,40.46Zm-.12-.71c-.14-.88-.25-1.77-.3-2.55h2.42c0,.78.1,1.66.2,2.55Zm.82,4.12c0-.06,0-.13-.05-.21h2.11c.09.53.18,1,.25,1.42A8.93,8.93,0,0,1,274.87,43.87Zm4.51,1.66A8.36,8.36,0,0,1,278,45.3c-.08-.43-.19-1-.3-1.64h1.78Zm.07-2.59h-1.91c-.13-.77-.25-1.62-.36-2.48h2.34Zm.09-3.19h-2.45c-.1-.9-.18-1.77-.21-2.55h2.73Zm-1.77-11.3a8.61,8.61,0,0,1,1.76-.28c0,.48.06,1.17.08,2h-2.13C277.6,29.41,277.71,28.79,277.77,28.45Zm-.4,2.47h2.26c0,.69,0,1.46,0,2.29h-2.58C277.17,32.41,277.27,31.62,277.37,30.92Zm2.29,3c0,.81,0,1.68,0,2.57h-2.76c0-.79.06-1.68.14-2.57ZM274.61,30A8.64,8.64,0,0,1,277,28.69c-.06.38-.15.9-.24,1.52h-2.19C274.59,30.14,274.6,30.08,274.61,30Zm-.18.89h2.22c-.1.7-.2,1.49-.29,2.29H274C274.16,32.36,274.3,31.55,274.43,30.92Zm-.5,3h2.36c-.08.89-.13,1.77-.13,2.57h-2.43A19.93,19.93,0,0,1,273.93,33.92Zm-.28-3h.05c-.13.64-.27,1.44-.39,2.29H272.1A8.56,8.56,0,0,1,273.65,30.92Zm-1.84,3h1.4a21.63,21.63,0,0,0-.19,2.57h-1.71A8.75,8.75,0,0,1,271.81,33.92Zm-.5,3.28H273a24.31,24.31,0,0,0,.29,2.55H271.8A8.94,8.94,0,0,1,271.31,37.2Zm2.14,3.26c.16.93.33,1.8.48,2.48h-.14a8.55,8.55,0,0,1-1.7-2.48Z"/><rect class="cls-24" x="402.4" y="62.88" width="26.01" height="27.54" rx="3.67" ry="3.67"/><path class="cls-25" d="M419.36,75.76a.78.78,0,0,1-.69-.41l-3.12-5.81-3.63,5.85a.78.78,0,0,1-1.07.26.79.79,0,0,1-.26-1.08l4.35-7a.76.76,0,0,1,.68-.37.8.8,0,0,1,.67.41l3.75,7a.78.78,0,0,1-.32,1.06A.77.77,0,0,1,419.36,75.76Z"/><path class="cls-26" d="M419.15,75.64a.65.65,0,1,0,.64-.65A.64.64,0,0,0,419.15,75.64Z"/><path class="cls-27" d="M425,74.09H405.86a.63.63,0,0,0-.62.63v2a.62.62,0,0,0,.62.62H425a.62.62,0,0,0,.62-.62v-2A.63.63,0,0,0,425,74.09Z"/><path class="cls-28" d="M423.24,75.94H407.57a1.06,1.06,0,0,0-1.07,1.42l1.64,7.33A2.09,2.09,0,0,0,410,86.1h10.75a2.07,2.07,0,0,0,1.88-1.41l1.65-7.33A1.06,1.06,0,0,0,423.24,75.94Zm-12.69,8.9h-.1a.58.58,0,0,1-.56-.47l-1-5.51a.57.57,0,1,1,1.13-.21l1,5.51A.59.59,0,0,1,410.55,84.84Zm2.43,0h-.05a.57.57,0,0,1-.57-.53l-.46-5.51a.58.58,0,1,1,1.15-.09l.45,5.51A.58.58,0,0,1,413,84.85Zm3-.55a.57.57,0,0,1-.57.57h0a.58.58,0,0,1-.58-.57V78.77a.58.58,0,0,1,.58-.58h0a.57.57,0,0,1,.57.58Zm2.47,0a.58.58,0,0,1-.57.53h-.05a.59.59,0,0,1-.53-.62l.46-5.51a.57.57,0,1,1,1.14.09Zm2.47.06a.58.58,0,0,1-.56.47h-.1a.57.57,0,0,1-.47-.67l1-5.51a.56.56,0,0,1,.66-.46.59.59,0,0,1,.47.67Z"/><path class="cls-29" d="M411.66,75.64a.65.65,0,0,1-1.29,0"/><path class="cls-25" d="M411.66,75.72a.65.65,0,1,1-.65-.65A.65.65,0,0,1,411.66,75.72Z"/><path class="cls-25" d="M420.37,75.78a.65.65,0,1,1-.65-.65A.65.65,0,0,1,420.37,75.78Z"/><line class="cls-30" x1="280" y1="54.5" x2="280" y2="56.25"/><line class="cls-31" x1="280" y1="59.77" x2="280" y2="128.49"/><polyline class="cls-30" points="280 130.25 280 132 278.25 132"/><line class="cls-32" x1="274.8" y1="132" x2="241.98" y2="132"/><line class="cls-30" x1="240.25" y1="132" x2="238.5" y2="132"/><line class="cls-33" x1="142.5" y1="110.5" x2="142.5" y2="155.5"/><line class="cls-33" x1="414.5" y1="96.5" x2="414.5" y2="141.5"/><line class="cls-33" x1="484.5" y1="53.5" x2="484.5" y2="98.5"/><rect class="cls-24" x="29.71" y="27.08" width="26.01" height="27.54" rx="3.67" ry="3.67"/><path class="cls-6" d="M42.58,31.84h.28a.45.45,0,0,1,.19.4c0,.14.06.19.2.18h1.19c.28,0,.4.11.4.4s.07.21.22.2h1.2c.33,0,.47.23.31.53l-.39.69a.24.24,0,0,0,0,.29c.14.23.27.46.4.69s0,.53-.33.53H44.66c-.34,0-.44-.08-.46-.42,0-.13-.06-.18-.18-.18h-.78c-.14,0-.19.06-.19.2v1c0,.28,0,.28.29.28h5.79c.42,0,.52.11.52.52v1c0,.29,0,.29.3.29s.55,0,.82,0a.33.33,0,0,1,.37.37V49c0,.26,0,.27.25.27a.37.37,0,0,1,.33.2v.24c-.1.18-.27.19-.45.19H34.05a.31.31,0,1,1,0-.62c.27,0,.27,0,.27-.28v-10c0-.4.09-.5.51-.5h.79a.17.17,0,0,0,.19-.19,3.68,3.68,0,0,1,0-.47c0-.24,0-.47,0-.71s.13-.42.43-.43h5.9c.27,0,.27,0,.27-.26V32.29A.5.5,0,0,1,42.58,31.84Zm.14,9H35.25c-.3,0-.3,0-.3.31V49c0,.21,0,.22.24.22h1.28c.23,0,.23,0,.23-.24V43.87a1.49,1.49,0,0,1,.92-1.44,1.45,1.45,0,0,1,1.62.27,1.52,1.52,0,0,1,.51,1.22V49c0,.24,0,.24.23.24h1c.25,0,.25,0,.25-.25V44a2.6,2.6,0,0,1,0-.4A1.51,1.51,0,0,1,44,43.07a1.75,1.75,0,0,1,.21.87V49c0,.22,0,.22.23.22h.84c.42,0,.38,0,.38-.37v-5a1.53,1.53,0,1,1,3,0V49c0,.22,0,.23.22.23h1.25c.27,0,.28,0,.28-.27V41.13c0-.27,0-.28-.28-.28Zm0-1.79H35.17c-.16,0-.23.06-.22.22s0,.43,0,.65,0,.3.32.3h15c.15,0,.21,0,.21-.21s0-.47,0-.7,0-.26-.27-.26Zm0-1.8h-4c-.7,0-1.4,0-2.09,0-.15,0-.21.05-.21.2s0,.52,0,.78a.15.15,0,0,0,.17.17H48.82c.13,0,.19,0,.19-.19s0-.44,0-.66,0-.3-.28-.3ZM39.1,46.4h0c0-.87,0-1.74,0-2.61a.87.87,0,0,0-1.73,0c0,1.74,0,3.49,0,5.23,0,.15.06.2.2.2h1.32c.21,0,.23,0,.23-.22Zm2.75,0h0V49c0,.22,0,.23.23.23h1.26c.25,0,.26,0,.26-.25V45c0-.4,0-.81,0-1.21a.84.84,0,0,0-.77-.8.86.86,0,0,0-1,.88Zm4.5,0h0V49c0,.24,0,.24.24.24h1.26c.24,0,.25,0,.25-.24V44.3c0-.19,0-.37,0-.56a.85.85,0,0,0-.76-.79.87.87,0,0,0-1,.89Zm-3.3-12.59v.54c0,.13.05.18.18.18H44c.12,0,.18,0,.18-.18,0-.36,0-.72,0-1.09a.15.15,0,0,0-.17-.17h-.82a.14.14,0,0,0-.16.16Zm1.8.6V35c0,.11,0,.16.15.16h.6c.1,0,.14,0,.08-.15l-.21-.36a.4.4,0,0,1,0-.42c.07-.11.13-.23.2-.35s0-.16-.08-.16H45a.15.15,0,0,0-.17.17C44.85,34,44.85,34.2,44.85,34.39Z"/><line class="cls-33" x1="43" y1="59" x2="43" y2="81"/><path class="cls-10" d="M270,240h39.29a1.78,1.78,0,0,0-2.62-1.84c1.2-4.3-4.12-6.41-6.63-3-.33-3.9-4-2.74-5-.81,2.15-7.13-10.22-7.88-10.88-1.36-1.9-2.43-5.62.17-4.78,2.34-2.86-1.26-4.55,1-3.82,3C273.78,236.37,270.36,238.38,270,240Z"/><path class="cls-13" d="M512.81,247h33.27c-.83-2.09-2.47-3-3.93-1.3.11-1.44-.74-3.45-2.13-2.38.3-2.22-2.59-.67-3.11.31.67-1.35.86-3.89-.22-5s-3.93-.66-4.09,1.49c-.73-1.28-3-1.56-3,.57-.74-.45-1.51-.05-1.76.91,0-7.12-6.08-4.58-6-.11-1.76-1.26-3.17,1.21-3,3.22a1.24,1.24,0,0,0-2.35.16,1,1,0,0,0-1.34.18,1.62,1.62,0,0,0-2.49,1.92C512.7,246.86,512.85,247.1,512.81,247Z"/><path class="cls-10" d="M19,243.22H58.31c.12-1.43-1.23-2.08-2.62-1.59,1.2-3.71-4.12-5.53-6.63-2.59-.32-3.37-4-2.38-5-.7,2.15-6.16-10.22-6.81-10.88-1.18-1.9-2.1-5.61.14-4.78,2-2.86-1.09-4.55.87-3.81,2.59C22.82,240.08,19.4,241.82,19,243.22Z"/><path class="cls-13" d="M140.82,247.22h42.76a1.93,1.93,0,0,0-2.85-2c1.31-4.68-4.48-7-7.22-3.27-.35-4.25-4.3-3-5.4-.89,2.35-7.76-11.12-8.58-11.84-1.48-2.06-2.65-6.11.18-5.2,2.54-3.11-1.37-4.95,1.1-4.15,3.27C145,243.27,141.23,245.45,140.82,247.22Z"/><path class="cls-10" d="M173.33,247.21H206.6c-.83-2.09-2.46-3-3.93-1.3.11-1.44-.74-3.45-2.13-2.38.3-2.21-2.59-.67-3.11.31.67-1.35.86-3.88-.22-5s-3.93-.67-4.09,1.48c-.73-1.28-3-1.56-3,.57-.74-.44-1.51-.05-1.76.91,0-7.12-6.08-4.58-6-.11-1.76-1.26-3.17,1.21-3,3.22a1.24,1.24,0,0,0-2.35.16,1,1,0,0,0-1.34.18,1.62,1.62,0,0,0-2.49,1.92C173.22,247.07,173.37,247.31,173.33,247.21Z"/><rect class="cls-34" x="508" y="69" width="19" height="162"/><rect class="cls-34" x="29" y="69" width="19" height="161"/><g class="cls-35"><rect class="cls-36" x="138.88" y="159.57" width="35.06" height="83.82"/><rect class="cls-36" x="138.88" y="159.57" width="35.06" height="4.15"/><path class="cls-37" d="M138.88,168.62h8.85a5.17,5.17,0,0,1,5.17,5.17v4.44a0,0,0,0,1,0,0h-14a0,0,0,0,1,0,0v-9.61A0,0,0,0,1,138.88,168.62Z"/><path class="cls-37" d="M159.69,168.62h13.54a0,0,0,0,1,0,0v9.61a0,0,0,0,1,0,0H154.51a0,0,0,0,1,0,0v-4.44A5.17,5.17,0,0,1,159.69,168.62Z"/><rect class="cls-36" x="138.88" y="177.99" width="35.06" height="4.15"/><path class="cls-37" d="M138.88,184.25h8.85a5.17,5.17,0,0,1,5.17,5.17v4.44a0,0,0,0,1,0,0h-14a0,0,0,0,1,0,0v-9.61A0,0,0,0,1,138.88,184.25Z"/><path class="cls-37" d="M159.69,184.25h13.54a0,0,0,0,1,0,0v9.61a0,0,0,0,1,0,0H154.51a0,0,0,0,1,0,0v-4.44A5.17,5.17,0,0,1,159.69,184.25Z"/><rect class="cls-36" x="138.88" y="193.62" width="35.06" height="4.15"/><path class="cls-37" d="M138.88,199.89h8.85a5.17,5.17,0,0,1,5.17,5.17v4.44a0,0,0,0,1,0,0h-14a0,0,0,0,1,0,0v-9.61A0,0,0,0,1,138.88,199.89Z"/><path class="cls-37" d="M159.69,199.89h13.54a0,0,0,0,1,0,0v9.61a0,0,0,0,1,0,0H154.51a0,0,0,0,1,0,0v-4.44A5.17,5.17,0,0,1,159.69,199.89Z"/><rect class="cls-36" x="138.88" y="209.26" width="35.06" height="4.15"/><path class="cls-37" d="M138.88,215.53h8.85a5.17,5.17,0,0,1,5.17,5.17v4.44a0,0,0,0,1,0,0h-14a0,0,0,0,1,0,0v-9.61A0,0,0,0,1,138.88,215.53Z"/><path class="cls-37" d="M159.69,215.53h13.54a0,0,0,0,1,0,0v9.61a0,0,0,0,1,0,0H154.51a0,0,0,0,1,0,0V220.7A5.17,5.17,0,0,1,159.69,215.53Z"/><rect class="cls-36" x="138.88" y="224.9" width="35.06" height="4.15"/></g><g class="cls-35"><rect class="cls-36" x="116.27" y="134.7" width="26.43" height="110.16"/><rect class="cls-37" x="136.17" y="225.27" width="3.15" height="4.2"/><rect class="cls-37" x="127.51" y="225.27" width="3.15" height="4.2"/><rect class="cls-37" x="118.86" y="225.27" width="3.15" height="4.2"/><rect class="cls-37" x="136.17" y="208.74" width="3.15" height="4.2"/><rect class="cls-37" x="127.51" y="208.74" width="3.15" height="4.2"/><rect class="cls-37" x="118.86" y="208.74" width="3.15" height="4.2"/><rect class="cls-37" x="136.17" y="191.96" width="3.15" height="4.2"/><rect class="cls-37" x="127.51" y="191.96" width="3.15" height="4.2"/><rect class="cls-37" x="118.86" y="191.96" width="3.15" height="4.2"/><rect class="cls-37" x="136.17" y="175.17" width="3.15" height="4.2"/><rect class="cls-37" x="127.51" y="175.17" width="3.15" height="4.2"/><rect class="cls-37" x="118.86" y="175.17" width="3.15" height="4.2"/><rect class="cls-37" x="136.17" y="158.39" width="3.15" height="4.2"/><rect class="cls-37" x="127.51" y="158.39" width="3.15" height="4.2"/><rect class="cls-37" x="118.86" y="158.39" width="3.15" height="4.2"/><rect class="cls-37" x="136.17" y="141.6" width="3.15" height="4.2"/><rect class="cls-37" x="127.51" y="141.6" width="3.15" height="4.2"/><rect class="cls-37" x="118.86" y="141.6" width="3.15" height="4.2"/><rect class="cls-36" x="115.45" y="134.7" width="28.07" height="3.22"/><rect class="cls-36" x="115.45" y="151.23" width="28.07" height="3.22"/><rect class="cls-36" x="115.45" y="167.75" width="28.07" height="3.22"/><rect class="cls-36" x="115.45" y="184.28" width="28.07" height="3.22"/><rect class="cls-36" x="115.45" y="200.8" width="28.07" height="3.22"/><rect class="cls-36" x="115.45" y="217.32" width="28.07" height="3.22"/><rect class="cls-36" x="116.27" y="232.01" width="26.43" height="3.22"/></g><rect id="_Rectangle_3" data-name="&lt;Rectangle&gt;" class="cls-36" x="114.87" y="227.8" width="59.06" height="15.59"/><rect id="_Rectangle_4" data-name="&lt;Rectangle&gt;" class="cls-37" x="114.87" y="227.8" width="23.82" height="15.59"/><rect class="cls-37" x="164.26" y="60.13" width="99.39" height="183.26"/><rect class="cls-36" x="190.52" y="60.13" width="73.12" height="183.26"/><rect class="cls-37" x="207.86" y="225.87" width="55.78" height="17.51"/><rect class="cls-36" x="220.77" y="225.87" width="3.04" height="17.51"/><rect class="cls-36" x="236.43" y="225.87" width="3.04" height="17.51"/><rect class="cls-36" x="252.09" y="225.87" width="3.04" height="17.51"/><line class="cls-38" x1="218.36" y1="225.87" x2="218.36" y2="60.55"/><line class="cls-39" x1="181.04" y1="244.01" x2="181.04" y2="60.55"/><line class="cls-39" x1="172" y1="244.01" x2="172" y2="60.55"/><line class="cls-38" x1="246.13" y1="225.87" x2="246.13" y2="60.55"/><line class="cls-38" x1="190.9" y1="79.35" x2="263.22" y2="79.35"/><line class="cls-38" x1="190.9" y1="103.7" x2="263.22" y2="103.7"/><line class="cls-38" x1="190.9" y1="128.05" x2="263.22" y2="128.05"/><line class="cls-38" x1="190.9" y1="152.4" x2="263.22" y2="152.4"/><line class="cls-38" x1="190.9" y1="176.75" x2="263.22" y2="176.75"/><line class="cls-38" x1="190.9" y1="201.1" x2="263.22" y2="201.1"/><line class="cls-39" x1="190.9" y1="79.35" x2="164.13" y2="79.35"/><line class="cls-39" x1="190.9" y1="103.7" x2="164.13" y2="103.7"/><line class="cls-39" x1="190.9" y1="128.05" x2="164.13" y2="128.05"/><line class="cls-39" x1="190.9" y1="152.4" x2="164.13" y2="152.4"/><line class="cls-39" x1="190.9" y1="176.75" x2="164.13" y2="176.75"/><line class="cls-39" x1="190.9" y1="201.1" x2="164.13" y2="201.1"/><line class="cls-38" x1="164.54" y1="225.45" x2="263.22" y2="225.45"/><rect class="cls-37" x="31.61" y="71.09" width="87.26" height="172.3"/><line class="cls-39" x1="56.65" y1="89.52" x2="32.05" y2="89.52"/><line class="cls-39" x1="56.65" y1="118.8" x2="32.05" y2="118.8"/><line class="cls-39" x1="56.65" y1="149.22" x2="32.05" y2="149.22"/><line class="cls-39" x1="56.65" y1="180.76" x2="32.05" y2="180.76"/><line class="cls-39" x1="56.65" y1="210.05" x2="32.05" y2="210.05"/><rect class="cls-36" x="56.57" y="71.09" width="62.3" height="172.3"/><rect class="cls-37" x="56.57" y="71.09" width="62.3" height="9.69"/><rect class="cls-37" x="56.57" y="101.25" width="62.3" height="9.69"/><rect class="cls-37" x="56.57" y="132.16" width="62.3" height="9.69"/><rect class="cls-37" x="56.57" y="162.32" width="62.3" height="9.69"/><rect class="cls-37" x="56.57" y="224.03" width="62.3" height="8.29"/><rect class="cls-37" x="56.57" y="192.48" width="62.3" height="9.69"/><rect class="cls-37" x="73.81" y="226.44" width="24.9" height="16.95"/><line class="cls-38" x1="68.07" y1="76.38" x2="68.07" y2="225.48"/><line class="cls-38" x1="87.22" y1="76.38" x2="87.22" y2="225.48"/><line class="cls-38" x1="106.38" y1="76.38" x2="106.38" y2="225.48"/><line class="cls-39" x1="38.37" y1="76.38" x2="38.37" y2="225.48"/><line class="cls-39" x1="44.44" y1="76.38" x2="44.44" y2="225.48"/><line class="cls-39" x1="50.51" y1="76.38" x2="50.51" y2="225.48"/><rect class="cls-37" x="28.27" y="69.11" width="93.43" height="8.23"/><rect class="cls-36" x="53.7" y="69.11" width="68" height="8.23"/><rect class="cls-37" x="28.27" y="99.76" width="93.43" height="8.23"/><rect class="cls-36" x="53.7" y="99.76" width="68" height="8.23"/><rect class="cls-37" x="28.27" y="130.41" width="93.43" height="8.23"/><rect class="cls-36" x="53.7" y="130.41" width="68" height="8.23"/><rect class="cls-37" x="28.27" y="161.06" width="93.43" height="8.23"/><rect class="cls-36" x="53.7" y="161.06" width="68" height="8.23"/><rect class="cls-37" x="28.27" y="191.71" width="93.43" height="8.23"/><rect class="cls-36" x="53.7" y="191.71" width="68" height="8.23"/><rect class="cls-37" x="28.27" y="222.36" width="93.43" height="8.23"/><rect class="cls-36" x="53.7" y="222.36" width="68" height="8.23"/><line class="cls-38" x1="56.65" y1="89.52" x2="118.34" y2="89.52"/><line class="cls-38" x1="56.65" y1="118.8" x2="118.34" y2="118.8"/><line class="cls-38" x1="56.65" y1="149.22" x2="118.34" y2="149.22"/><line class="cls-38" x1="56.65" y1="180.76" x2="118.34" y2="180.76"/><line class="cls-38" x1="56.65" y1="210.05" x2="118.34" y2="210.05"/><rect class="cls-40" x="56.82" y="238.96" width="57.75" height="2.04"/><rect class="cls-40" x="56.82" y="241" width="74.8" height="3.05"/><g class="cls-41"><rect class="cls-36" x="382.98" y="159.57" width="35.06" height="83.82" transform="translate(801.02 402.96) rotate(-180)"/><rect class="cls-36" x="382.98" y="159.57" width="35.06" height="4.15" transform="translate(801.02 323.29) rotate(-180)"/><path class="cls-37" d="M404,168.62h14a0,0,0,0,1,0,0v4.44a5.17,5.17,0,0,1-5.17,5.17H404a0,0,0,0,1,0,0v-9.61A0,0,0,0,1,404,168.62Z" transform="translate(822.06 346.85) rotate(-180)"/><path class="cls-37" d="M383.69,168.62H402.4a0,0,0,0,1,0,0v9.61a0,0,0,0,1,0,0H388.86a5.17,5.17,0,0,1-5.17-5.17v-4.44A0,0,0,0,1,383.69,168.62Z" transform="translate(786.09 346.85) rotate(-180)"/><rect class="cls-36" x="382.98" y="177.99" width="35.06" height="4.15" transform="translate(801.02 360.12) rotate(-180)"/><path class="cls-37" d="M404,184.25h14a0,0,0,0,1,0,0v4.44a5.17,5.17,0,0,1-5.17,5.17H404a0,0,0,0,1,0,0v-9.61A0,0,0,0,1,404,184.25Z" transform="translate(822.06 378.12) rotate(-180)"/><path class="cls-37" d="M383.69,184.25H402.4a0,0,0,0,1,0,0v9.61a0,0,0,0,1,0,0H388.86a5.17,5.17,0,0,1-5.17-5.17v-4.44A0,0,0,0,1,383.69,184.25Z" transform="translate(786.09 378.12) rotate(-180)"/><rect class="cls-36" x="382.98" y="193.62" width="35.06" height="4.15" transform="translate(801.02 391.39) rotate(-180)"/><path class="cls-37" d="M404,199.89h14a0,0,0,0,1,0,0v4.44a5.17,5.17,0,0,1-5.17,5.17H404a0,0,0,0,1,0,0v-9.61A0,0,0,0,1,404,199.89Z" transform="translate(822.06 409.4) rotate(-180)"/><path class="cls-37" d="M383.69,199.89H402.4a0,0,0,0,1,0,0v9.61a0,0,0,0,1,0,0H388.86a5.17,5.17,0,0,1-5.17-5.17v-4.44A0,0,0,0,1,383.69,199.89Z" transform="translate(786.09 409.4) rotate(-180)"/><rect class="cls-36" x="382.98" y="209.26" width="35.06" height="4.15" transform="translate(801.02 422.67) rotate(-180)"/><path class="cls-37" d="M404,215.53h14a0,0,0,0,1,0,0V220a5.17,5.17,0,0,1-5.17,5.17H404a0,0,0,0,1,0,0v-9.61a0,0,0,0,1,0,0Z" transform="translate(822.06 440.67) rotate(-180)"/><path class="cls-37" d="M383.69,215.53H402.4a0,0,0,0,1,0,0v9.61a0,0,0,0,1,0,0H388.86a5.17,5.17,0,0,1-5.17-5.17v-4.44A0,0,0,0,1,383.69,215.53Z" transform="translate(786.09 440.67) rotate(-180)"/><rect class="cls-36" x="382.98" y="224.9" width="35.06" height="4.15" transform="translate(801.02 453.94) rotate(-180)"/></g><g class="cls-41"><rect class="cls-36" x="414.22" y="134.7" width="26.43" height="110.16" transform="translate(854.87 379.57) rotate(-180)"/><rect class="cls-37" x="417.6" y="225.27" width="3.15" height="4.2" transform="translate(838.35 454.73) rotate(-180)"/><rect class="cls-37" x="426.26" y="225.27" width="3.15" height="4.2" transform="translate(855.66 454.73) rotate(-180)"/><rect class="cls-37" x="434.91" y="225.27" width="3.15" height="4.2" transform="translate(872.97 454.73) rotate(-180)"/><rect class="cls-37" x="417.6" y="208.74" width="3.15" height="4.2" transform="translate(838.35 421.69) rotate(-180)"/><rect class="cls-37" x="426.26" y="208.74" width="3.15" height="4.2" transform="translate(855.66 421.69) rotate(-180)"/><rect class="cls-37" x="434.91" y="208.74" width="3.15" height="4.2" transform="translate(872.97 421.69) rotate(-180)"/><rect class="cls-37" x="417.6" y="191.96" width="3.15" height="4.2" transform="translate(838.35 388.11) rotate(-180)"/><rect class="cls-37" x="426.26" y="191.96" width="3.15" height="4.2" transform="translate(855.66 388.11) rotate(-180)"/><rect class="cls-37" x="434.91" y="191.96" width="3.15" height="4.2" transform="translate(872.97 388.11) rotate(-180)"/><rect class="cls-37" x="417.6" y="175.17" width="3.15" height="4.2" transform="translate(838.35 354.54) rotate(-180)"/><rect class="cls-37" x="426.26" y="175.17" width="3.15" height="4.2" transform="translate(855.66 354.54) rotate(-180)"/><rect class="cls-37" x="434.91" y="175.17" width="3.15" height="4.2" transform="translate(872.97 354.54) rotate(-180)"/><rect class="cls-37" x="417.6" y="158.39" width="3.15" height="4.2" transform="translate(838.35 320.97) rotate(-180)"/><rect class="cls-37" x="426.26" y="158.39" width="3.15" height="4.2" transform="translate(855.66 320.97) rotate(-180)"/><rect class="cls-37" x="434.91" y="158.39" width="3.15" height="4.2" transform="translate(872.97 320.97) rotate(-180)"/><rect class="cls-37" x="417.6" y="141.6" width="3.15" height="4.2" transform="translate(838.35 287.4) rotate(-180)"/><rect class="cls-37" x="426.26" y="141.6" width="3.15" height="4.2" transform="translate(855.66 287.4) rotate(-180)"/><rect class="cls-37" x="434.91" y="141.6" width="3.15" height="4.2" transform="translate(872.97 287.4) rotate(-180)"/><rect class="cls-36" x="413.4" y="134.7" width="28.07" height="3.22" transform="translate(854.87 272.63) rotate(-180)"/><rect class="cls-36" x="413.4" y="151.23" width="28.07" height="3.22" transform="translate(854.87 305.68) rotate(-180)"/><rect class="cls-36" x="413.4" y="167.75" width="28.07" height="3.22" transform="translate(854.87 338.73) rotate(-180)"/><rect class="cls-36" x="413.4" y="184.28" width="28.07" height="3.22" transform="translate(854.87 371.78) rotate(-180)"/><rect class="cls-36" x="413.4" y="200.8" width="28.07" height="3.22" transform="translate(854.87 404.82) rotate(-180)"/><rect class="cls-36" x="413.4" y="217.32" width="28.07" height="3.22" transform="translate(854.87 437.87) rotate(-180)"/><rect class="cls-36" x="414.22" y="232.01" width="26.43" height="3.22" transform="translate(854.87 467.25) rotate(-180)"/></g><rect id="_Rectangle_5" data-name="&lt;Rectangle&gt;" class="cls-36" x="382.98" y="227.8" width="59.06" height="15.59" transform="translate(825.03 471.19) rotate(-180)"/><rect id="_Rectangle_6" data-name="&lt;Rectangle&gt;" class="cls-37" x="418.22" y="227.8" width="23.82" height="15.59" transform="translate(860.26 471.19) rotate(-180)"/><rect class="cls-37" x="293.27" y="60.13" width="99.39" height="183.26" transform="translate(685.93 303.51) rotate(-180)"/><rect class="cls-36" x="293.27" y="60.13" width="73.12" height="183.26" transform="translate(659.67 303.51) rotate(-180)"/><rect class="cls-37" x="293.27" y="225.87" width="55.78" height="17.51" transform="translate(642.33 469.26) rotate(-180)"/><rect class="cls-36" x="333.12" y="225.87" width="3.04" height="17.51" transform="translate(669.27 469.26) rotate(-180)"/><rect class="cls-36" x="317.45" y="225.87" width="3.04" height="17.51" transform="translate(637.94 469.26) rotate(-180)"/><rect class="cls-36" x="301.79" y="225.87" width="3.04" height="17.51" transform="translate(606.61 469.26) rotate(-180)"/><line class="cls-38" x1="338.55" y1="225.87" x2="338.55" y2="60.55"/><line class="cls-39" x1="375.87" y1="244.01" x2="375.87" y2="60.55"/><line class="cls-39" x1="384.92" y1="244.01" x2="384.92" y2="60.55"/><line class="cls-38" x1="310.79" y1="225.87" x2="310.79" y2="60.55"/><line class="cls-38" x1="366.02" y1="79.35" x2="293.7" y2="79.35"/><line class="cls-38" x1="366.02" y1="103.7" x2="293.7" y2="103.7"/><line class="cls-38" x1="366.02" y1="128.05" x2="293.7" y2="128.05"/><line class="cls-38" x1="366.02" y1="152.4" x2="293.7" y2="152.4"/><line class="cls-38" x1="366.02" y1="176.75" x2="293.7" y2="176.75"/><line class="cls-38" x1="366.02" y1="201.1" x2="293.7" y2="201.1"/><line class="cls-39" x1="366.02" y1="79.35" x2="392.78" y2="79.35"/><line class="cls-39" x1="366.02" y1="103.7" x2="392.78" y2="103.7"/><line class="cls-39" x1="366.02" y1="128.05" x2="392.78" y2="128.05"/><line class="cls-39" x1="366.02" y1="152.4" x2="392.78" y2="152.4"/><line class="cls-39" x1="366.02" y1="176.75" x2="392.78" y2="176.75"/><line class="cls-39" x1="366.02" y1="201.1" x2="392.78" y2="201.1"/><line class="cls-38" x1="392.38" y1="225.45" x2="293.7" y2="225.45"/><rect class="cls-37" x="438.05" y="71.09" width="87.26" height="172.3" transform="translate(963.35 314.48) rotate(-180)"/><line class="cls-39" x1="500.27" y1="89.52" x2="524.87" y2="89.52"/><line class="cls-39" x1="500.27" y1="118.8" x2="524.87" y2="118.8"/><line class="cls-39" x1="500.27" y1="149.22" x2="524.87" y2="149.22"/><line class="cls-39" x1="500.27" y1="180.76" x2="524.87" y2="180.76"/><line class="cls-39" x1="500.27" y1="210.05" x2="524.87" y2="210.05"/><rect class="cls-36" x="438.05" y="71.09" width="62.3" height="172.3" transform="translate(938.39 314.48) rotate(-180)"/><rect class="cls-37" x="438.05" y="71.09" width="62.3" height="9.69" transform="translate(938.39 151.87) rotate(-180)"/><rect class="cls-37" x="438.05" y="101.25" width="62.3" height="9.69" transform="translate(938.39 212.19) rotate(-180)"/><rect class="cls-37" x="438.05" y="132.16" width="62.3" height="9.69" transform="translate(938.39 274.01) rotate(-180)"/><rect class="cls-37" x="438.05" y="162.32" width="62.3" height="9.69" transform="translate(938.39 334.33) rotate(-180)"/><rect class="cls-37" x="438.05" y="224.03" width="62.3" height="8.29" transform="translate(938.39 456.36) rotate(-180)"/><rect class="cls-37" x="438.05" y="192.48" width="62.3" height="9.69" transform="translate(938.39 394.65) rotate(-180)"/><rect class="cls-37" x="458.2" y="226.44" width="24.9" height="16.95" transform="translate(941.3 469.83) rotate(-180)"/><line class="cls-38" x1="488.85" y1="76.38" x2="488.85" y2="225.48"/><line class="cls-38" x1="469.69" y1="76.38" x2="469.69" y2="225.48"/><line class="cls-38" x1="450.54" y1="76.38" x2="450.54" y2="225.48"/><g class="cls-42"><line class="cls-39" x1="518.54" y1="76.38" x2="518.54" y2="225.48"/><line class="cls-39" x1="512.48" y1="76.38" x2="512.48" y2="225.48"/><line class="cls-39" x1="506.41" y1="76.38" x2="506.41" y2="225.48"/></g><rect class="cls-37" x="435.21" y="69.11" width="93.43" height="8.23" transform="translate(963.86 146.45) rotate(-180)"/><rect class="cls-36" x="435.21" y="69.11" width="68" height="8.23" transform="translate(938.43 146.45) rotate(-180)"/><rect class="cls-37" x="435.21" y="99.76" width="93.43" height="8.23" transform="translate(963.86 207.75) rotate(-180)"/><rect class="cls-36" x="435.21" y="99.76" width="68" height="8.23" transform="translate(938.43 207.75) rotate(-180)"/><rect class="cls-37" x="435.21" y="130.41" width="93.43" height="8.23" transform="translate(963.86 269.05) rotate(-180)"/><rect class="cls-36" x="435.21" y="130.41" width="68" height="8.23" transform="translate(938.43 269.05) rotate(-180)"/><rect class="cls-37" x="435.21" y="161.06" width="93.43" height="8.23" transform="translate(963.86 330.35) rotate(-180)"/><rect class="cls-36" x="435.21" y="161.06" width="68" height="8.23" transform="translate(938.43 330.35) rotate(-180)"/><rect class="cls-37" x="435.21" y="191.71" width="93.43" height="8.23" transform="translate(963.86 391.65) rotate(-180)"/><rect class="cls-36" x="435.21" y="191.71" width="68" height="8.23" transform="translate(938.43 391.65) rotate(-180)"/><rect class="cls-37" x="435.21" y="222.36" width="93.43" height="8.23" transform="translate(963.86 452.95) rotate(-180)"/><rect class="cls-36" x="435.21" y="222.36" width="68" height="8.23" transform="translate(938.43 452.95) rotate(-180)"/><line class="cls-38" x1="500.27" y1="89.52" x2="438.57" y2="89.52"/><line class="cls-38" x1="500.27" y1="118.8" x2="438.57" y2="118.8"/><line class="cls-38" x1="500.27" y1="149.22" x2="438.57" y2="149.22"/><line class="cls-38" x1="500.27" y1="180.76" x2="438.57" y2="180.76"/><line class="cls-38" x1="500.27" y1="210.05" x2="438.57" y2="210.05"/><rect class="cls-40" x="442.35" y="238.96" width="57.75" height="2.04" transform="translate(942.44 479.96) rotate(-180)"/><rect class="cls-40" x="425.3" y="241" width="74.8" height="3.05" transform="translate(925.4 485.05) rotate(-180)"/><rect class="cls-34" x="377" y="61" width="19" height="162"/><rect class="cls-34" x="161" y="61" width="19" height="162"/></g></svg>