<svg version="1.1" xmlns="http://www.w3.org/2000/svg" xmlns:xlink="http://www.w3.org/1999/xlink" width="48px" height="48px" viewBox="0,0,256,256"><g fill="none" fill-rule="nonzero" stroke="none" stroke-width="1" stroke-linecap="butt" stroke-linejoin="miter" stroke-miterlimit="10" stroke-dasharray="" stroke-dashoffset="0" font-family="none" font-weight="none" font-size="none" text-anchor="none" style="mix-blend-mode: normal"><g transform="translate(2.32173,263.6796) rotate(-90) scale(5.33333,5.33333)"><path d="M9.875,43.0023c-0.80883,-0.00012 -1.53796,-0.48741 -1.84747,-1.23467c-0.30951,-0.74727 -0.13846,-1.60739 0.43341,-2.17939l10.875,-10.875c0.78096,-0.78096 2.04716,-0.78096 2.82812,0c0.78096,0.78096 0.78096,2.04716 0,2.82812l-10.875,10.875c-0.3746,0.3757 -0.88352,0.58658 -1.41406,0.58594z" fill="#15784a"></path><path d="M41.8907,6.1116l-28.43522,28.43522c-5.94064,-5.94282 -5.94064,-15.57572 0,-21.51854c8.45371,-8.45372 28.43522,-6.91668 28.43522,-6.91668z" fill="#0c854d"></path><path d="M34.974,34.54682c-5.94282,5.94064 -15.57572,5.94064 -21.51854,0l28.43524,-28.43522c0,0 1.53704,19.98151 -6.9167,28.43522z" fill="#15784a"></path></g></g></svg>