<svg id="Layer_1" data-name="Layer 1" xmlns="http://www.w3.org/2000/svg" xmlns:xlink="http://www.w3.org/1999/xlink" viewBox="0 0 560 270"><defs><style>.cls-1{fill:none;}.cls-2{clip-path:url(#clip-path);}.cls-3{fill:#b4e3e3;}.cls-4{opacity:0.74;}.cls-40,.cls-5{fill:#a4c9a7;}.cls-6{fill:#91d3b6;}.cls-7{opacity:0.71;}.cls-8{fill:#c9f7df;}.cls-9{fill:#3a6867;}.cls-10{opacity:0.66;}.cls-11{fill:#de3427;}.cls-12{fill:#548c4b;}.cls-13{fill:#8eb03a;}.cls-14{fill:#f4767a;}.cls-15{fill:#ae0406;}.cls-16{opacity:0.98;}.cls-17{fill:#efb014;}.cls-18{fill:#d99604;}.cls-19{fill:#f2a805;}.cls-20{fill:#fbbf10;}.cls-21{fill:url(#linear-gradient);}.cls-22{fill:url(#linear-gradient-2);}.cls-23{fill:url(#linear-gradient-3);}.cls-24{fill:url(#linear-gradient-4);}.cls-25{fill:url(#linear-gradient-5);}.cls-26{fill:url(#linear-gradient-6);}.cls-27{fill:url(#linear-gradient-7);}.cls-28{fill:url(#linear-gradient-8);}.cls-29{fill:url(#linear-gradient-9);}.cls-30{fill:url(#New_Gradient_Swatch_2);}.cls-31{fill:#3d7776;}.cls-32{fill:#549898;}.cls-33{fill:#64afad;}.cls-34{fill:#285b59;}.cls-35{fill:#4c8987;}.cls-36{fill:#392c27;}.cls-37{fill:#fff;}.cls-38{fill:#54413b;}.cls-39{clip-path:url(#clip-path-2);}.cls-40{opacity:0.75;}</style><clipPath id="clip-path"><rect class="cls-1" x="-583" y="-3" width="1727" height="277"/></clipPath><linearGradient id="linear-gradient" x1="441.37" y1="877.35" x2="446.9" y2="932.13" gradientTransform="translate(-754.9 643.67) rotate(-90)" gradientUnits="userSpaceOnUse"><stop offset="0" stop-color="#8eb03a"/><stop offset="1" stop-color="#548c4b"/></linearGradient><linearGradient id="linear-gradient-2" x1="505.9" y1="970.91" x2="419.46" y2="900.94" xlink:href="#linear-gradient"/><linearGradient id="linear-gradient-3" x1="428.56" y1="886.33" x2="487.08" y2="886.33" xlink:href="#linear-gradient"/><linearGradient id="linear-gradient-4" x1="415.21" y1="913.86" x2="369.79" y2="869.47" xlink:href="#linear-gradient"/><linearGradient id="linear-gradient-5" x1="419.64" y1="780.26" x2="419.18" y2="852.52" xlink:href="#linear-gradient"/><linearGradient id="linear-gradient-6" x1="424.05" y1="906.36" x2="476.64" y2="835.47" xlink:href="#linear-gradient"/><linearGradient id="linear-gradient-7" x1="358.05" y1="842.77" x2="432.52" y2="927.25" xlink:href="#linear-gradient"/><linearGradient id="linear-gradient-8" x1="431.02" y1="895.31" x2="484.33" y2="895.31" xlink:href="#linear-gradient"/><linearGradient id="linear-gradient-9" x1="385.85" y1="862.92" x2="446.86" y2="862.92" xlink:href="#linear-gradient"/><linearGradient id="New_Gradient_Swatch_2" x1="1747.37" y1="2844.31" x2="1746.49" y2="2898.93" gradientTransform="translate(-754.25 3465.4) rotate(-131.68)" gradientUnits="userSpaceOnUse"><stop offset="0" stop-color="#ab8d25"/><stop offset="1" stop-color="#36707c"/></linearGradient><clipPath id="clip-path-2"><rect class="cls-1" x="-583.5" y="-16" width="567" height="290"/></clipPath></defs><title>harvest-illustratioons 2</title><g class="cls-2"><rect class="cls-3" x="-2.5" y="-6" width="565" height="264"/><g class="cls-4"><path class="cls-5" d="M213.46,178.9V132.6h2.46v-9.27H184.44v9.27h2.45v46.31a49.25,49.25,0,0,0-18,85.44h62.66a49.26,49.26,0,0,0-18-85.45Z"/><path class="cls-6" d="M150.24,165v8.21h-2.17v82.54a11.77,11.77,0,0,1-11.77,11.77h0a11.77,11.77,0,0,1-11.76-11.77V173.2h-2.17V165Z"/><path class="cls-5" d="M121.49,247.75,83.36,179.88V104.93h3.15V93H46.07v11.92h3.15v74.95L11.09,247.75a10.39,10.39,0,0,0,9.06,15.48h92.28A10.39,10.39,0,0,0,121.49,247.75Z"/></g><g class="cls-7"><path class="cls-8" d="M518.46,172.9V126.6h2.46v-9.27H489.44v9.27h2.45v46.31a49.25,49.25,0,0,0-18,85.44h62.66a49.26,49.26,0,0,0-18-85.45Z"/><path class="cls-8" d="M455.24,159v8.21h-2.17v82.54a11.77,11.77,0,0,1-11.77,11.77h0a11.77,11.77,0,0,1-11.76-11.77V167.2h-2.17V159Z"/><path class="cls-8" d="M448.49,241.75l-38.13-67.87V98.93h3.15V87H373.07V98.93h3.15v74.95l-38.13,67.87a10.39,10.39,0,0,0,9.06,15.48h92.28A10.39,10.39,0,0,0,448.49,241.75Z"/></g><rect class="cls-9" x="-3" y="254" width="567.5" height="20"/><g class="cls-10"><circle class="cls-8" cx="492.2" cy="38.44" r="5.62"/><circle class="cls-8" cx="429.45" cy="30.79" r="16.45"/><path class="cls-8" d="M505.6,102.13a5.61,5.61,0,1,1-5.6-5.6A5.6,5.6,0,0,1,505.6,102.13Z"/><circle class="cls-8" cx="360.85" cy="46.97" r="6.35"/></g><g class="cls-10"><circle class="cls-8" cx="173.58" cy="116.05" r="8.08"/><circle class="cls-8" cx="91.64" cy="46.6" r="6.55" transform="translate(-8.58 23.7) rotate(-14.08)"/><circle class="cls-8" cx="190.72" cy="36.99" r="16.96"/><path class="cls-8" d="M210,90.63a4.11,4.11,0,1,1-5-3A4.1,4.1,0,0,1,210,90.63Z"/><path class="cls-8" d="M157.89,70.83A3.93,3.93,0,1,1,153.12,68,3.94,3.94,0,0,1,157.89,70.83Z"/><circle class="cls-8" cx="31.82" cy="38.13" r="7.81" transform="translate(-3.13 2.85) rotate(-4.89)"/><circle class="cls-8" cx="250.09" cy="63.07" r="8.17" transform="translate(-4.79 23.58) rotate(-5.35)"/><circle class="cls-8" cx="110.72" cy="115.54" r="8.52" transform="translate(-45.45 150.49) rotate(-58.83)"/></g><path class="cls-11" d="M173.71,241.26c6.34,19.25,30.17,24.16,47.6,22.44A34,34,0,0,0,246.21,250a37.62,37.62,0,0,0,7.55-26.6c-.95-10.28-5.88-19.85-20.09-27.88-11-6-25.66-7.19-37.61-3.22A30.89,30.89,0,0,0,183.43,200a38.21,38.21,0,0,0-8,12.79C172,221.66,170.66,232,173.71,241.26Z"/><path class="cls-12" d="M232.7,205.37a19.67,19.67,0,0,0-10.58-4.17c-8.26-.6-10.93,2.81-10.93,2.81s-1-1.37,5.12-7.94S219.22,181,219.22,181s-1.65,6.37-4.4,10.4-7.29,3.34-9.08,9.48c0,0-3.62-4-2.41-7.81s-.46-9.54-.46-9.54a22.84,22.84,0,0,1-4.49,9c-3.78,4.92.36,10.95,1.68,12.67,0,0-3.61-2.63-9.26.39s-14.73-3.34-14.73-3.34,4.39,6.66,9.45,7.44C195.91,212.1,201,209,201,209s1.85,1.31-4.69,6.39.24,13.07.24,13.07.06-7.75,4.8-11.35S208,211.7,208,211.7s11.36,1.8,10.21,9.29a33,33,0,0,1-3.89,9.22s9.49-3.61,9-10.4-9-11.53-9-11.53a21.53,21.53,0,0,1,8.17-3.15A45.32,45.32,0,0,1,232.7,205.37Z"/><path class="cls-13" d="M208,206.46s-10.08-17-22.79-20.2c-3.28,1.51-2.5,5.31-2.5,5.31s15.33,6.92,20.78,15.66C205.69,210.54,208,206.46,208,206.46Z"/><path class="cls-14" d="M231.14,208.13s6.32-.73,8.28,3.49-2.26,5.59-5.26,4.3S227.77,209.42,231.14,208.13Z"/><path class="cls-15" d="M251.86,214.85s-34.47,40.61-75.06,32.88c0,0,15.93,25.13,57.29,12.47C234.09,260.2,261.12,247.19,251.86,214.85Z"/><path class="cls-11" d="M329.71,220.26c6.34,19.25,30.17,24.16,47.6,22.44A34,34,0,0,0,402.21,229a37.62,37.62,0,0,0,7.55-26.6c-.95-10.28-5.88-19.85-20.09-27.88-11-6-25.66-7.19-37.61-3.22A30.89,30.89,0,0,0,339.43,179a38.21,38.21,0,0,0-8,12.79C328,200.66,326.66,211,329.71,220.26Z"/><path class="cls-12" d="M388.7,184.37a19.67,19.67,0,0,0-10.58-4.17c-8.26-.6-10.93,2.81-10.93,2.81s-1-1.37,5.12-7.94S375.22,160,375.22,160s-1.65,6.37-4.4,10.4-7.29,3.34-9.08,9.48c0,0-3.62-4-2.41-7.81s-.46-9.54-.46-9.54a22.84,22.84,0,0,1-4.49,9c-3.78,4.92.36,10.95,1.68,12.67,0,0-3.61-2.63-9.26.39s-14.73-3.34-14.73-3.34,4.39,6.66,9.45,7.44C351.91,191.1,357,188,357,188s1.85,1.31-4.69,6.39.24,13.07.24,13.07.06-7.75,4.8-11.35S364,190.7,364,190.7s11.36,1.8,10.21,9.29a33,33,0,0,1-3.89,9.22s9.49-3.61,9-10.4-9-11.53-9-11.53a21.53,21.53,0,0,1,8.17-3.15A45.32,45.32,0,0,1,388.7,184.37Z"/><path class="cls-13" d="M364,185.46s-10.08-17-22.79-20.2c-3.28,1.51-2.5,5.31-2.5,5.31s15.33,6.92,20.78,15.66C361.69,189.54,364,185.46,364,185.46Z"/><path class="cls-14" d="M387.14,187.13s6.32-.73,8.28,3.49-2.26,5.59-5.26,4.3S383.77,188.42,387.14,187.13Z"/><path class="cls-15" d="M407.86,193.85s-34.47,40.61-75.06,32.88c0,0,15.93,25.13,57.29,12.47C390.09,239.2,417.12,226.19,407.86,193.85Z"/><g class="cls-16"><path class="cls-12" d="M462.09,208.23s26.05-12.59,31.46-15.32,14.74,2.67,3.79,10.19-31.42,10.48-31.42,10.48Z"/><path class="cls-13" d="M466,212.44s23.32-8,29.81-9.86,15.4,5.93,3.06,12.46-32.9,1.72-32.9,1.72Z"/><path class="cls-13" d="M461.53,205.64s20.26-20.06,27.27-22.07,11.31,4.65,2.44,13.34-26.57,14-26.57,14Z"/><path class="cls-17" d="M326.31,253.92a1.93,1.93,0,0,0,.93,3.71c29.46-3.5,110.26-13.09,123.25-14.53,15.95-1.77,24.47-18.41,18.13-33.32s-19.25-15.4-39-6.94C413.76,209.62,350.79,241.48,326.31,253.92Z"/><g class="cls-10"><path class="cls-18" d="M441.07,201.36c-2.17,1.11-2.59,1.34.44,6.09s6,10.47,8.49,9.16S444.1,199.81,441.07,201.36Z"/><path class="cls-18" d="M436,217.83c1.83,2.53,5.34,8.22,5,14.2a3.19,3.19,0,0,1-2.84,2.93h0a2.7,2.7,0,0,1-3-2,60,60,0,0,0-4.27-11.88,3.07,3.07,0,0,1,2.32-4.32h0A2.77,2.77,0,0,1,436,217.83Z"/><path class="cls-18" d="M415.5,213.08l.52-.22a1.76,1.76,0,0,1,1.93.32c2.87,2.8,4.51,6.64,4.69,11.71a1.9,1.9,0,0,1-1.35,1.86l-.06,0a1.66,1.66,0,0,1-2.21-1.44,14.38,14.38,0,0,0-4.21-9.39A1.78,1.78,0,0,1,415.5,213.08Z"/><path class="cls-18" d="M410.23,230.12l.46-.08a1.41,1.41,0,0,1,1.46.66c1.66,2.89,2.13,6.38,1.18,10.59a1.63,1.63,0,0,1-1.47,1.24h-.05a1.36,1.36,0,0,1-1.44-1.64,12.46,12.46,0,0,0-1.3-8.58A1.53,1.53,0,0,1,410.23,230.12Z"/></g><path class="cls-19" d="M398,222.34l.26-.19a1,1,0,0,1,1.11-.1,9.14,9.14,0,0,1,4.26,5.6,1,1,0,0,1-.49,1.18l0,0a1,1,0,0,1-1.43-.47A8,8,0,0,0,398,224,1,1,0,0,1,398,222.34Z"/><path class="cls-19" d="M390.9,231.79l.49-.1a1.52,1.52,0,0,1,1.59.66c1.88,3,2.49,6.75,1.61,11.28a1.74,1.74,0,0,1-1.54,1.37H393a1.45,1.45,0,0,1-1.59-1.71,13.24,13.24,0,0,0-1.68-9.12A1.64,1.64,0,0,1,390.9,231.79Z"/><path class="cls-19" d="M377.33,233.74c.91,1.26,2.67,4.11,2.5,7.1a1.59,1.59,0,0,1-1.42,1.46h0a1.35,1.35,0,0,1-1.49-1,30.17,30.17,0,0,0-2.14-5.94,1.54,1.54,0,0,1,1.16-2.16h0A1.39,1.39,0,0,1,377.33,233.74Z"/><path class="cls-19" d="M359.74,242.12c.92,1.27,2.67,4.11,2.5,7.1a1.6,1.6,0,0,1-1.42,1.47h0a1.36,1.36,0,0,1-1.5-1,29.53,29.53,0,0,0-2.14-5.94,1.54,1.54,0,0,1,1.16-2.16h0A1.39,1.39,0,0,1,359.74,242.12Z"/><path class="cls-19" d="M369.81,243.62a6.69,6.69,0,0,1,1.41,4,.91.91,0,0,1-.8.83h0a.78.78,0,0,1-.85-.57,17.43,17.43,0,0,0-1.2-3.35.86.86,0,0,1,.65-1.22h0A.78.78,0,0,1,369.81,243.62Z"/><path class="cls-12" d="M459.53,235.79s24.84-6.85,30-8.38,12.49,4.71,1.69,9.54S462,241.1,462,241.1Z"/><path class="cls-13" d="M462.25,240.1s21.72-3.29,27.7-3.86,12.54,7.67.68,11.41-29.1-3.77-29.1-3.77Z"/><path class="cls-13" d="M459.46,233.43s21-14.32,27.43-15,9.16,5.89,0,12.08-25.54,8-25.54,8Z"/><path class="cls-20" d="M333.23,254a1.72,1.72,0,0,0,.22,3.41c26.38,1.65,98.71,6.21,110.33,7,14.25,1,24.38-12.21,21.23-26.28s-14.4-16.58-33.09-12.34C417,229.26,356.67,247.08,333.23,254Z"/><g class="cls-10"><path class="cls-18" d="M442.21,226.4c-2.08.62-2.48.76-.59,5.4s3.57,10.14,6,9.4S445.12,225.53,442.21,226.4Z"/><path class="cls-18" d="M435.16,240c1.2,2.51,3.36,8.06,2.1,13.25a2.85,2.85,0,0,1-3,2.11h0a2.42,2.42,0,0,1-2.3-2.23,54,54,0,0,0-1.83-11.09,2.73,2.73,0,0,1,2.72-3.41h0A2.49,2.49,0,0,1,435.16,240Z"/><path class="cls-18" d="M417.93,232.57l.49-.11a1.57,1.57,0,0,1,1.64.59c2.06,2.91,2.89,6.54,2.23,11a1.71,1.71,0,0,1-1.48,1.42h-.05a1.47,1.47,0,0,1-1.71-1.61,12.75,12.75,0,0,0-2.19-8.9A1.59,1.59,0,0,1,417.93,232.57Z"/><path class="cls-18" d="M410.58,246.65H411a1.24,1.24,0,0,1,1.17.81,12.7,12.7,0,0,1-.67,9.47,1.44,1.44,0,0,1-1.49.85h0a1.22,1.22,0,0,1-1-1.67,11.08,11.08,0,0,0,.24-7.72A1.37,1.37,0,0,1,410.58,246.65Z"/></g><path class="cls-19" d="M401.08,237.87l.25-.13a.93.93,0,0,1,1,.1,8.1,8.1,0,0,1,2.83,5.59.91.91,0,0,1-.61.95h0a.85.85,0,0,1-1.17-.64,7.13,7.13,0,0,0-2.5-4.46A.85.85,0,0,1,401.08,237.87Z"/><path class="cls-19" d="M393.38,245h.44a1.33,1.33,0,0,1,1.28.83c1.16,3,1.11,6.32-.4,10.14a1.55,1.55,0,0,1-1.57,1h0a1.31,1.31,0,0,1-1.13-1.76,11.74,11.74,0,0,0,0-8.26A1.47,1.47,0,0,1,393.38,245Z"/><path class="cls-19" d="M381.17,244.55a10.62,10.62,0,0,1,1.05,6.62,1.42,1.42,0,0,1-1.48,1.06h0a1.22,1.22,0,0,1-1.15-1.12,27.3,27.3,0,0,0-.92-5.54,1.37,1.37,0,0,1,1.36-1.71h0A1.23,1.23,0,0,1,381.17,244.55Z"/><path class="cls-19" d="M364.42,249.07c.59,1.26,1.67,4,1.05,6.63a1.43,1.43,0,0,1-1.49,1.05h0a1.2,1.2,0,0,1-1.15-1.11,26.05,26.05,0,0,0-.92-5.55,1.37,1.37,0,0,1,1.36-1.71h0A1.27,1.27,0,0,1,364.42,249.07Z"/><path class="cls-19" d="M373,252a6,6,0,0,1,.59,3.74.81.81,0,0,1-.84.59h0a.68.68,0,0,1-.65-.62,14.64,14.64,0,0,0-.51-3.13.77.77,0,0,1,.76-1h0A.72.72,0,0,1,373,252Z"/></g><path class="cls-21" d="M151.57,174.31a9.59,9.59,0,0,0-1.59,1.33c-.48.51-.88,1.12-1.41,1.58a3.2,3.2,0,0,1-1.69.6,7.75,7.75,0,0,0-5.25,3.21,13.42,13.42,0,0,0-2.75,7.13,13.21,13.21,0,0,0,.19,3.56c.26,1.26.91,2.5.83,3.83a27.71,27.71,0,0,1-.85,3.52,6.19,6.19,0,0,0,.48,3.76c.52,1.15,1.32,2.14,1.83,3.3a5.52,5.52,0,0,1,.16,3.15c-.37,2.42-.57,4.74,1.38,6.39.9.77,2.06,1.25,2.57,2.37a17.75,17.75,0,0,0,1.67,3.35c2.75,3.75,8.08,5,12.63,3.2a1.12,1.12,0,0,0,.62-.57,4.11,4.11,0,0,0,.6.08,8.26,8.26,0,0,0,6.28-2.4,13.81,13.81,0,0,0,3.53-6.77,3.27,3.27,0,0,1,2.4-2.87,9.49,9.49,0,0,0,3.43-2.1,9.38,9.38,0,0,0,1.79-3.37c.47-1.45.88-2.93,1.32-4.39s.89-2.93,1.33-4.41a13.27,13.27,0,0,0,.7-3.82,5.41,5.41,0,0,0-1.25-3.58,9,9,0,0,1-1.38-1.65,5.41,5.41,0,0,1-.36-1.88,9.12,9.12,0,0,0-3.55-6.53c-.87-.65-2.29-.94-2.95-1.8a8.09,8.09,0,0,1-.74-1.88,7.4,7.4,0,0,0-.92-1.53c-1.67-2.18-4.27-2.69-7-2.88a25.92,25.92,0,0,0-8.32.42A11.53,11.53,0,0,0,151.57,174.31Z"/><path class="cls-22" d="M115.26,284.85c5.63-.54,10-4.6,13.58-8.83,2-2.45,3.61-5,3.22-8.18a29.68,29.68,0,0,0-2.05-7.63c-2-4.84-5.59-9.19-10.75-10.85a14.06,14.06,0,0,0-4.19-.72c-.19,0-.43,0-.64,0a11.54,11.54,0,0,0-.24-1.22,4.88,4.88,0,0,0-3.53-3.51,1.21,1.21,0,0,0-1.63-.26h-.48a2.23,2.23,0,0,0-1.82,1.41A27.39,27.39,0,0,0,99,251.77a17,17,0,0,0-2.53,5.12c-.56,1.82-.84,3.72-1.56,5.5-.79,1.94-2.4,3.29-3.38,5.12a7.18,7.18,0,0,0-.75,4.48,8.36,8.36,0,0,0,5.79,6.63,14.07,14.07,0,0,0,8.12-.25C105.8,282.78,110.62,285.3,115.26,284.85Z"/><path class="cls-23" d="M146.67,212.21a15.63,15.63,0,0,0,7.66-10.05,11.68,11.68,0,0,0-1.11-8.59A16.32,16.32,0,0,0,159,182.43a14.11,14.11,0,0,0-5.52-12.11,20.65,20.65,0,0,1-5-4.59,57.13,57.13,0,0,0-3.75-5.36,10.63,10.63,0,0,0-11.72-3.15,11.59,11.59,0,0,0-7.14,7.55,17.68,17.68,0,0,0-19.92,10,16.38,16.38,0,0,0-.63,11.21c-1.9,4.45-2.4,9.34.5,13.24a8.66,8.66,0,0,0,9.76,2.79,14,14,0,0,0,5.2,8.63C127.37,215.82,138.85,216.69,146.67,212.21Z"/><path class="cls-24" d="M154.59,271.12a14.4,14.4,0,0,0,4.83-10.85,10.64,10.64,0,0,0-3.06-7.5,14.84,14.84,0,0,0,2.81-11.41,13.19,13.19,0,0,0-8-9.67,19.84,19.84,0,0,1-5.73-3,55.08,55.08,0,0,0-4.78-4,10.57,10.57,0,0,0-11.73-.14A10.76,10.76,0,0,0,124,233c-7.64.17-15,5.72-16.35,13.64a14.87,14.87,0,0,0,2,10.28c-.73,4.46,0,9,3.58,11.85a8.67,8.67,0,0,0,9.82.27,13.24,13.24,0,0,0,6.9,6.6C137.33,278.84,148.31,277,154.59,271.12Z"/><path class="cls-25" d="M164.66,240.1c2.75-3,4.62-7.44,3.61-10.68,2.42-3,2-5.11,3-8.65,1.87-6.55,2.14-11.14-1.68-15.06-3.52-3.6-11.49-2.57-13.13-4.91s-3.79-11.47-5.42-14.73c-3.7-7.37-10.72-11.06-19.25-10.8-6.7.2-12.2,6.31-13.88,7s-11.68-4.15-17.28-3.4a22.92,22.92,0,0,0-16,10.41c-1.77,2.92-2.43,6.56-2.78,9.67-.09.88-.08,1.71-.13,2.57s-.27.85-.91,1.27a28,28,0,0,0-4.35,3.41C71,211.45,67.85,218,68,224.7c.13,5.71,3.55,11.09,4.92,13.33s-2.78,6.55-.13,12.76,8.2,5.52,9.63,7.87C85,271,94.64,274,101,274c8,0,10.42-4.23,11.71-4.87,2.63-.67,5.49,2.72,7.27,3.83,4.15,2.57,10.94.8,15.89-3.5,3.41-3,4.7-7.24,6.51-8.79s8.93-1.45,12.47-5.19c3.36-3.55,5.26-10,5.59-12.28S163.42,241.44,164.66,240.1Z"/><path class="cls-26" d="M155.48,208.51C173.69,229.83,231.22,243,231.22,243l-13.39,22c-33.31-26.48-55.57-9.72-64.89-9.26-2.27.12-3.91-2.29,0-3.84a151.48,151.48,0,0,1,23.87-7.54c-18.14-7.71-30.79-7.2-45.07-6.45,0,0-3.47-1.51.53-3,2.11-.79,10.65-2.25,20.13-1.48-10.15-6.1-19-4.41-21.77-6.59-.92-.74-.65-3-.65-3a170.61,170.61,0,0,1,49.94,12.72S154.69,223.86,149,216.15c-1-1.44.28-2.58,2.7-1.53a70.7,70.7,0,0,0,11.77,7c-6.31-6.81-7.83-7.92-10-10.32S153.07,207.51,155.48,208.51Z"/><path class="cls-27" d="M135.52,268a14.94,14.94,0,0,0,2.33-6.58,8,8,0,0,0-.54-3.45,7.51,7.51,0,0,0-.93-1.6c-.38-.52-1.09-1.09-1.28-1.73-.32-1.11.16-2.6,0-3.79a9,9,0,0,0-1-3,9.8,9.8,0,0,0-5.38-4.52,11.71,11.71,0,0,0-3.6-.45c-1.3,0-1.47-1.15-2.3-1.94-2-1.92-5.1-2.1-7.86-1.71-3.86.54-8.67,2.89-10.07,6.78-2.81.22-5.32,2.72-6,5.52a11.76,11.76,0,0,0-.33,3.44,6.67,6.67,0,0,0-2.18,5.34,6,6,0,0,0,3.65,5c-1.48,6.6,1.14,13.42,7,16.66a15.26,15.26,0,0,0,10.84,1.66c3-.74,5.72-3,6.38-5.88C129,276.7,133.05,272.15,135.52,268Z"/><path class="cls-28" d="M119.15,206.76a9.33,9.33,0,0,0,2.11.76,21.35,21.35,0,0,1,2.28.44,3.05,3.05,0,0,1,1.41,1.32,7.38,7.38,0,0,0,5.75,3.27,15.16,15.16,0,0,0,8.58-1.68,16.6,16.6,0,0,0,3.54-2.4c1.16-1,2.12-2.46,3.51-3.21a34.72,34.72,0,0,1,4-1.33,8.21,8.21,0,0,0,3.62-2.82c.93-1.24,1.56-2.66,2.5-3.89a7.32,7.32,0,0,1,3.14-2.11c2.64-1.14,5.11-2.38,5.88-5.36.35-1.38.3-2.84,1.2-4.05a25.69,25.69,0,0,0,2.64-3.76,12.33,12.33,0,0,0-2.68-14.66,1.21,1.21,0,0,0-.88-.27c-.06-.22-.12-.43-.2-.65a7.94,7.94,0,0,0-5.41-4.81,14.94,14.94,0,0,0-8.57.67,5,5,0,0,1-2.17.38,4.34,4.34,0,0,1-1.89-1,9.09,9.09,0,0,0-3.77-2.14,9.85,9.85,0,0,0-4.27.31c-1.71.43-3.41.93-5.11,1.39s-3.42.93-5.12,1.41a16.79,16.79,0,0,0-4.24,1.67,7.59,7.59,0,0,0-3.07,3.49,12.49,12.49,0,0,1-1,2.41,7.55,7.55,0,0,1-1.75,1.53,12.6,12.6,0,0,0-5,7.62c-.26,1.27.12,2.88-.45,4.07a11,11,0,0,1-1.57,1.92,9.6,9.6,0,0,0-1.13,1.87c-1.44,3-.73,6,.34,8.76a26.49,26.49,0,0,0,4.34,8.1A11.32,11.32,0,0,0,119.15,206.76Z"/><path class="cls-29" d="M96.39,257.13a15.24,15.24,0,0,0,12.68-1.67,14.05,14.05,0,0,0,6-7.28,16.77,16.77,0,0,0,12.33-3.92A17,17,0,0,0,133.29,231a23.43,23.43,0,0,1,.43-7.22,69.75,69.75,0,0,0,1.79-6.89c.72-4.59-.94-9.11-5-11.31a10.91,10.91,0,0,0-10.4.19A15.94,15.94,0,0,0,99.71,198a18.94,18.94,0,0,0-9.12,7.91c-4.67,1.89-8.79,5.16-10,10.3a8.68,8.68,0,0,0,4,9.55,16.75,16.75,0,0,0-3.41,10.43C81.34,245.08,88,254.5,96.39,257.13Z"/><path class="cls-30" d="M217.83,265c-2.47-2.78,6-22.11,13.39-22S222.71,270.44,217.83,265Z"/><path class="cls-31" d="M353.67,207.71h-47c9.39-18.77,16.87-40.83,13-59-8.57-40.35-43-37.08-43-37.08V74.55s71,6.15,81.33,78.69A129.2,129.2,0,0,1,353.67,207.71Z"/><rect class="cls-32" x="253.75" y="37.22" width="34.3" height="104.91" transform="translate(21.93 -49.76) rotate(10.94)"/><path class="cls-33" d="M250.1,135.24c1.12-5.85,2-11.74,3.07-17.61.94-5.32,2.63-11,2.76-16.38a.32.32,0,0,0-.62-.08c-1.95,5.45-2.38,11.85-3.35,17.55-.94,5.46-1.89,10.93-2.6,16.42-.05.42.66.51.74.1Z"/><path class="cls-33" d="M260.51,76c1.61-5.85,3-11.76,4.19-17.7,1.12-5.48,2.48-11.11,2.91-16.69,0-.39-.58-.46-.67-.09-1.39,5.64-2.08,11.5-3.24,17.2s-2.48,11.42-3.78,17.11a.31.31,0,0,0,.59.17Z"/><rect class="cls-31" x="267.74" y="38.56" width="20.17" height="104.91" transform="translate(22.31 -51.06) rotate(10.94)"/><path class="cls-34" d="M297.19,30l-28.48-5.51a2.66,2.66,0,0,0-3.1,2.1l-1.6,8.3,33.67,6.5,1.61-8.29A2.64,2.64,0,0,0,297.19,30Z"/><path class="cls-35" d="M274.31,16.28H293.7a2.66,2.66,0,0,1,2.66,2.66v8.44a0,0,0,0,1,0,0H271.65a0,0,0,0,1,0,0V18.94a2.66,2.66,0,0,1,2.66-2.66Z" transform="translate(9.3 -53.48) rotate(10.94)"/><rect class="cls-35" x="227.74" y="141.05" width="63.8" height="13.76" transform="translate(32.78 -46.57) rotate(10.94)"/><rect class="cls-34" x="238.88" y="152.33" width="13.3" height="13.3" transform="translate(34.62 -43.69) rotate(10.94)"/><rect class="cls-34" x="261.03" y="156.61" width="13.3" height="13.3" transform="translate(35.83 -47.82) rotate(10.94)"/><circle class="cls-36" cx="276.66" cy="93.09" r="18.54"/><circle class="cls-35" cx="276.66" cy="93.09" r="10.34"/><circle class="cls-37" cx="276.66" cy="93.09" r="4.29"/><path class="cls-36" d="M382.45,248.56H214.24a5.54,5.54,0,0,0-5.54,5.55v12.75H388V254.11A5.54,5.54,0,0,0,382.45,248.56Z"/><path class="cls-38" d="M221.12,256.76c13.58.18,27.41.8,41,0a.52.52,0,0,0,0-1c-13.55-.81-27.38-.19-41,0a.53.53,0,0,0,0,1.06Z"/><path class="cls-36" d="M217.93,192.83a2.3,2.3,0,0,0-2.3,2.3v5.42a2.3,2.3,0,0,0,2.3,2.3H340.34v-10Z"/><path class="cls-38" d="M221.82,197.6c11.1.2,22.21.2,33.32.19s22.26.46,33.32-.18a.39.39,0,0,0,0-.77c-11.06-.64-22.25-.18-33.32-.18s-22.22,0-33.32.19a.38.38,0,0,0,0,.75Z"/><path class="cls-32" d="M360.54,192.83H299.48v44.38H363v-42A2.43,2.43,0,0,0,360.54,192.83Z"/><rect class="cls-35" x="300.18" y="229.16" width="62.79" height="7.3"/><rect class="cls-34" x="288.95" y="192.83" width="11.22" height="44.38"/><circle class="cls-36" cx="356.48" cy="213.76" r="13.11"/><circle class="cls-35" cx="356.48" cy="213.76" r="6.49"/><path class="cls-37" d="M359.19,213.76a2.72,2.72,0,1,1-2.71-2.71A2.71,2.71,0,0,1,359.19,213.76Z"/><path class="cls-31" d="M256.79,236.46H363.11a6.48,6.48,0,0,1,6.48,6.48v5.63a0,0,0,0,1,0,0H250.31a0,0,0,0,1,0,0v-5.63A6.48,6.48,0,0,1,256.79,236.46Z"/><g class="cls-39"><path class="cls-40" d="M-1.18,272.13c-12.26,0-31.32-.91-31.58-.6H-96.08l-18.53,0H-280.54l-48.46,0H-456.75l-53.36,0H-606.6l-.48-.75,0-.06a.3.3,0,0,1,0-.1c-.22-.25-81.33-111.59,50.89-160.45,51.73-19.12-1-54.74,75.53-77.86C-382,2.4-326.39,69.8-211.85,44.92-104.42,21.59-40.84,59.65-48,102.74c-3.34,20.24,2.63,50.4,25.06,54.48,35,6.39,42.85,44.33,37.75,77.37C11.7,255-.75,272.13-1.18,272.13Z"/></g></g></svg>