<?xml version="1.0" encoding="utf-8"?>
<svg viewBox="222.974 12.526 357.197 374.734" xmlns="http://www.w3.org/2000/svg">
  <path class="cls-2" d="M 653.062 186.772 C 653.062 328.851 537.888 444.025 395.809 444.025 C 253.73 444.025 138.567 328.851 138.567 186.772 C 138.567 44.693 253.739 -70.472 395.809 -70.472 C 464.042 -70.472 529.466 -43.369 577.714 4.87 C 625.961 53.117 653.062 118.55 653.062 186.772 L 653.062 186.772 Z M 653.062 186.772" style="stroke-width: 0px; fill: rgba(229, 229, 229, 0);" transform="matrix(1, 0, 0, 1, 0, -2.2737367544323206e-13)"/>
  <circle class="cls-4" cx="397.37" cy="188.867" r="84.737" style="fill: rgb(255, 255, 255); stroke-width: 0px;" transform="matrix(1, 0, 0, 1, 0, -2.2737367544323206e-13)"/>
  <ellipse class="cls-6" cx="395.815" cy="346.057" rx="142.244" ry="24.378" style="stroke-width: 0px; fill: rgb(251, 191, 16);" transform="matrix(1, 0, 0, 1, 0, -2.2737367544323206e-13)"/>
  <path class="cls-8" d="M 434.608 53.36 C 427.828 48.628 426.161 39.26 430.894 32.48 C 435.627 25.7 444.994 24.033 451.774 28.766 C 458.554 33.498 460.221 42.866 455.488 49.646 C 450.755 56.426 441.388 58.093 434.608 53.36 Z M 446.87 35.792 C 443.963 33.763 439.95 34.477 437.921 37.384 C 435.892 40.291 436.606 44.304 439.513 46.333 C 442.42 48.362 446.433 47.648 448.462 44.741 C 450.491 41.834 449.777 37.821 446.87 35.792 L 446.87 35.792 Z" style="fill: rgb(40, 40, 40); stroke-width: 0px;" transform="matrix(1, 0, 0, 1, 0, -2.2737367544323206e-13)"/>
  <circle class="cls-8" cx="415.289" cy="58.212" r="4.58" style="fill: rgb(40, 40, 40); stroke-width: 0px;" transform="matrix(1, 0, 0, 1, 0, -2.2737367544323206e-13)"/>
  <path class="cls-8" d="M 232.164 247.754 C 232.198 245.386 234.144 243.497 236.51 243.532 L 253.647 243.779 C 256.013 243.813 257.904 245.757 257.869 248.125 C 257.835 250.493 255.889 252.382 253.523 252.347 L 236.386 252.1 C 234.02 252.066 232.129 250.122 232.164 247.754 Z" style="fill: rgb(40, 40, 40); stroke-width: 0px;" transform="matrix(1, 0, 0, 1, 0, -2.2737367544323206e-13)"/>
  <path class="cls-8" d="M 240.609 256.446 L 240.856 239.309 C 240.89 236.941 242.836 235.052 245.202 235.087 C 247.568 235.122 249.459 237.065 249.424 239.433 L 249.177 256.57 C 249.143 258.938 247.197 260.827 244.831 260.792 C 242.465 260.757 240.574 258.814 240.609 256.446 Z" style="fill: rgb(40, 40, 40); stroke-width: 0px;" transform="matrix(1, 0, 0, 1, 0, -2.2737367544323206e-13)"/>
  <path class="cls-7" d="M 338.87 188.793 L 356.87 170.793 L 383.87 152.793 L 419.87 161.793 L 437.87 170.793 L 455.87 188.793 L 446.87 197.793 L 419.87 215.793 L 406.928 220.107 C 397.927 223.107 388.102 222.409 379.615 218.166 L 356.869 206.793 L 338.869 188.793 L 338.87 188.793 Z" style="fill: rgb(214, 211, 140); stroke-width: 0px;" transform="matrix(1, 0, 0, 1, 0, -2.2737367544323206e-13)"/>
  <circle class="cls-4" cx="397.37" cy="186.301" r="14.782" style="fill: rgb(255, 255, 255); stroke-width: 0px;" transform="matrix(1, 0, 0, 1, 0, -2.2737367544323206e-13)"/>
  <circle class="cls-5" cx="271.645" cy="76.202" r="14.782" style="fill: rgb(227, 133, 35); stroke-width: 0px;" transform="matrix(1, 0, 0, 1, 0, -2.2737367544323206e-13)"/>
  <circle class="cls-1" cx="272.303" cy="135.289" r="14.782" style="fill: rgb(251, 191, 16); stroke-width: 0px;" transform="matrix(1, 0, 0, 1, 0, -2.2737367544323206e-13)"/>
  <circle class="cls-3" cx="272.303" cy="193.684" r="14.782" style="fill: rgb(164, 201, 167); stroke-width: 0px;" transform="matrix(1, 0, 0, 1, 0, -2.2737367544323206e-13)"/>
  <rect class="cls-3" x="291.402" y="269.027" width="17.771" height="42.894" style="fill: rgb(164, 201, 167); stroke-width: 0px;" transform="matrix(1, 0, 0, 1, 0, -2.2737367544323206e-13)"/>
  <rect class="cls-5" x="256.645" y="294.149" width="17.771" height="17.771" style="fill: rgb(227, 133, 35); stroke-width: 0px;" transform="matrix(1, 0, 0, 1, 0, -2.2737367544323206e-13)"/>
  <rect class="cls-1" x="325.705" y="284.686" width="17.771" height="27.234" style="fill: rgb(251, 191, 16); stroke-width: 0px;" transform="matrix(1, 0, 0, 1, 0, -2.2737367544323206e-13)"/>
  <path class="cls-3" d="M 467.827 231.92 C 467.827 231.92 443.572 259.494 443.572 260.26 C 443.572 261.026 491.827 305.707 491.827 305.707 L 506.185 292.409 L 513.062 278.899 L 467.827 231.92 L 467.827 231.92 Z" style="fill: rgb(164, 201, 167); stroke-width: 0px;" transform="matrix(1, 0, 0, 1, 0, -2.2737367544323206e-13)"/>
  <path class="cls-8" d="M 500.528 258.768 C 498.846 257.088 496.122 257.088 494.44 258.768 C 492.759 260.45 492.759 263.174 494.44 264.856 L 508.582 278.998 C 509.806 280.279 510.533 282.918 508.582 285.085 L 495.083 298.585 C 493.404 300.263 490.673 300.263 488.996 298.585 L 448.611 258.2 C 452.356 255.492 455.899 252.485 459.191 249.193 C 462.523 245.861 465.526 242.323 468.208 238.624 L 480.696 251.112 C 481.537 251.952 482.639 252.372 483.74 252.372 C 484.841 252.372 485.943 251.951 486.784 251.112 C 488.465 249.43 488.465 246.706 486.784 245.024 L 473.008 231.248 C 492.503 197.686 487.901 153.863 459.191 125.152 C 424.993 90.953 369.348 90.954 335.15 125.152 C 318.913 141.39 309.792 162.974 309.469 185.93 C 309.146 208.839 317.606 230.625 333.29 247.277 C 334.921 249.007 337.644 249.087 339.375 247.459 C 341.105 245.828 341.187 243.105 339.557 241.374 C 310.059 210.056 310.796 161.679 341.237 131.239 C 372.079 100.396 422.262 100.396 453.102 131.239 C 483.943 162.08 483.943 212.264 453.102 243.104 C 427.138 269.068 385.822 273.663 354.862 254.029 C 352.855 252.756 350.196 253.351 348.922 255.359 C 347.649 257.366 348.244 260.026 350.252 261.299 C 364.253 270.177 380.656 274.876 397.245 274.876 C 400.276 274.876 403.314 274.719 406.344 274.403 C 418.684 273.112 430.587 269.177 441.231 262.996 L 482.907 304.672 C 485.425 307.189 488.731 308.448 492.037 308.447 C 495.343 308.447 498.651 307.188 501.169 304.672 L 514.669 291.172 C 519.703 286.137 519.703 277.945 514.669 272.91 L 500.528 258.769 L 500.528 258.768 Z" style="fill: rgb(40, 40, 40); stroke-width: 0px;" transform="matrix(1, 0, 0, 1, 0, -2.2737367544323206e-13)"/>
  <path class="cls-8" d="M 426.062 162.542 C 427.019 160.366 426.031 157.827 423.855 156.869 C 414.842 152.905 405.887 150.895 397.24 150.895 C 372.148 150.895 350.7 167.699 340.149 177.716 C 337.457 180.271 335.914 183.868 335.914 187.582 C 335.914 191.296 337.457 194.892 340.149 197.448 C 350.7 207.465 372.149 224.269 397.24 224.269 C 422.331 224.269 443.78 207.465 454.332 197.448 C 457.024 194.893 458.567 191.296 458.567 187.582 C 458.567 183.868 457.024 180.272 454.331 177.716 C 450.554 174.13 446.563 170.788 442.468 167.78 C 440.553 166.373 437.859 166.785 436.451 168.701 C 435.044 170.617 435.456 173.311 437.372 174.718 C 441.176 177.513 444.888 180.622 448.404 183.959 C 449.407 184.91 449.958 186.197 449.958 187.582 C 449.958 188.967 449.407 190.254 448.404 191.205 C 438.783 200.339 419.342 215.661 397.239 215.661 C 375.136 215.661 355.696 200.339 346.075 191.205 C 345.073 190.254 344.521 188.967 344.521 187.582 C 344.521 186.197 345.073 184.91 346.075 183.959 C 355.696 174.825 375.137 159.503 397.239 159.503 C 404.686 159.503 412.474 161.268 420.388 164.749 C 422.564 165.707 425.105 164.719 426.061 162.542 L 426.062 162.542 Z" style="fill: rgb(40, 40, 40); stroke-width: 0px;" transform="matrix(1, 0, 0, 1, 0, -2.2737367544323206e-13)"/>
  <path class="cls-8" d="M 376.117 187.582 C 376.117 199.229 385.593 208.704 397.239 208.704 C 408.885 208.704 418.362 199.228 418.362 187.582 C 418.362 175.936 408.886 166.459 397.239 166.459 C 385.592 166.459 376.117 175.935 376.117 187.582 Z M 409.754 187.582 C 409.754 194.482 404.14 200.096 397.24 200.096 C 390.34 200.096 384.726 194.483 384.726 187.582 C 384.726 180.681 390.339 175.068 397.24 175.068 C 404.141 175.068 409.754 180.682 409.754 187.582 Z" style="fill: rgb(40, 40, 40); stroke-width: 0px;" transform="matrix(1, 0, 0, 1, 0, -2.2737367544323206e-13)"/>
  <path class="cls-8" d="M 471.683 110.121 C 472.785 110.121 473.886 109.7 474.727 108.861 L 493.509 90.079 L 501.618 98.188 C 504.12 100.688 508.191 100.688 510.696 98.188 L 533.473 75.411 L 533.473 81.19 C 533.473 83.568 535.4 85.494 537.777 85.494 C 540.154 85.494 542.081 83.567 542.081 81.19 L 542.081 65.243 C 542.081 62.865 540.154 60.939 537.777 60.939 L 521.83 60.939 C 519.452 60.939 517.526 62.866 517.526 65.243 C 517.526 67.62 519.453 69.547 521.83 69.547 L 527.162 69.547 L 506.157 90.553 L 498.048 82.444 C 495.545 79.942 491.473 79.943 488.97 82.444 L 468.64 102.774 C 466.959 104.456 466.959 107.18 468.64 108.862 C 469.481 109.702 470.583 110.122 471.684 110.122 L 471.683 110.121 Z" style="fill: rgb(40, 40, 40); stroke-width: 0px;" transform="matrix(1, 0, 0, 1, 0, -2.2737367544323206e-13)"/>
  <path class="cls-8" d="M 271.645 98.368 C 283.867 98.368 293.811 88.425 293.811 76.202 C 293.811 63.979 283.867 54.036 271.645 54.036 C 259.423 54.036 249.479 63.979 249.479 76.202 C 249.479 88.425 259.422 98.368 271.645 98.368 Z M 271.645 62.646 C 279.12 62.646 285.202 68.728 285.202 76.203 C 285.202 83.678 279.12 89.76 271.645 89.76 C 264.17 89.76 258.088 83.678 258.088 76.203 C 258.088 68.728 264.17 62.646 271.645 62.646 Z" style="fill: rgb(40, 40, 40); stroke-width: 0px;" transform="matrix(1, 0, 0, 1, 0, -2.2737367544323206e-13)"/>
  <path class="cls-8" d="M 272.303 113.123 C 260.081 113.123 250.137 123.066 250.137 135.289 C 250.137 147.512 260.08 157.455 272.303 157.455 C 284.526 157.455 294.469 147.512 294.469 135.289 C 294.469 123.066 284.526 113.123 272.303 113.123 Z M 272.303 148.845 C 264.828 148.845 258.746 142.763 258.746 135.288 C 258.746 127.813 264.828 121.731 272.303 121.731 C 279.778 121.731 285.86 127.813 285.86 135.288 C 285.86 142.763 279.779 148.845 272.303 148.845 Z" style="fill: rgb(40, 40, 40); stroke-width: 0px;" transform="matrix(1, 0, 0, 1, 0, -2.2737367544323206e-13)"/>
  <path class="cls-8" d="M 272.303 171.519 C 260.081 171.519 250.137 181.462 250.137 193.685 C 250.137 205.908 260.08 215.851 272.303 215.851 C 284.526 215.851 294.469 205.908 294.469 193.685 C 294.469 181.462 284.526 171.519 272.303 171.519 Z M 272.303 207.241 C 264.828 207.241 258.746 201.159 258.746 193.684 C 258.746 186.209 264.828 180.127 272.303 180.127 C 279.778 180.127 285.86 186.209 285.86 193.684 C 285.86 201.159 279.779 207.241 272.303 207.241 Z" style="fill: rgb(40, 40, 40); stroke-width: 0px;" transform="matrix(1, 0, 0, 1, 0, -2.2737367544323206e-13)"/>
  <path class="cls-8" d="M 311.298 69.515 L 349.391 69.515 C 351.769 69.515 353.695 67.588 353.695 65.211 C 353.695 62.834 351.768 60.907 349.391 60.907 L 311.298 60.907 C 308.92 60.907 306.994 62.834 306.994 65.211 C 306.994 67.588 308.921 69.515 311.298 69.515 Z" style="fill: rgb(40, 40, 40); stroke-width: 0px;" transform="matrix(1, 0, 0, 1, 0, -2.2737367544323206e-13)"/>
  <path class="cls-8" d="M 311.298 87.857 L 330.345 87.857 C 332.723 87.857 334.649 85.93 334.649 83.553 C 334.649 81.176 332.722 79.249 330.345 79.249 L 311.298 79.249 C 308.92 79.249 306.994 81.176 306.994 83.553 C 306.994 85.93 308.921 87.857 311.298 87.857 Z" style="fill: rgb(40, 40, 40); stroke-width: 0px;" transform="matrix(1, 0, 0, 1, 0, -2.2737367544323206e-13)"/>
  <path class="cls-8" d="M 538.386 121.816 L 517.367 121.816 C 514.989 121.816 513.063 123.743 513.063 126.12 C 513.063 128.497 514.99 130.424 517.367 130.424 L 538.386 130.424 C 540.764 130.424 542.69 128.497 542.69 126.12 C 542.69 123.743 540.763 121.816 538.386 121.816 Z" style="fill: rgb(40, 40, 40); stroke-width: 0px;" transform="matrix(1, 0, 0, 1, 0, -2.2737367544323206e-13)"/>
  <circle class="cls-8" cx="501.405" cy="126.232" r="4.781" style="fill: rgb(40, 40, 40); stroke-width: 0px;" transform="matrix(1, 0, 0, 1, 0, -2.2737367544323206e-13)"/>
  <path class="cls-8" d="M 538.386 139.361 L 517.367 139.361 C 514.989 139.361 513.063 141.288 513.063 143.665 C 513.063 146.042 514.99 147.969 517.367 147.969 L 538.386 147.969 C 540.764 147.969 542.69 146.042 542.69 143.665 C 542.69 141.288 540.763 139.361 538.386 139.361 Z" style="fill: rgb(40, 40, 40); stroke-width: 0px;" transform="matrix(1, 0, 0, 1, 0, -2.2737367544323206e-13)"/>
  <circle class="cls-8" cx="501.405" cy="143.777" r="4.781" style="fill: rgb(40, 40, 40); stroke-width: 0px;" transform="matrix(1, 0, 0, 1, 0, -2.2737367544323206e-13)"/>
  <path class="cls-8" d="M 424.609 292.774 L 403.59 292.774 C 401.212 292.774 399.286 294.701 399.286 297.078 C 399.286 299.455 401.213 301.382 403.59 301.382 L 424.609 301.382 C 426.987 301.382 428.913 299.455 428.913 297.078 C 428.913 294.701 426.986 292.774 424.609 292.774 Z" style="fill: rgb(40, 40, 40); stroke-width: 0px;" transform="matrix(1, 0, 0, 1, 0, -2.2737367544323206e-13)"/>
  <path class="cls-8" d="M 387.628 292.409 C 384.988 292.409 382.847 294.55 382.847 297.19 C 382.847 299.83 384.988 301.971 387.628 301.971 C 390.268 301.971 392.409 299.83 392.409 297.19 C 392.409 294.55 390.268 292.409 387.628 292.409 L 387.628 292.409 Z" style="fill: rgb(40, 40, 40); stroke-width: 0px;" transform="matrix(1, 0, 0, 1, 0, -2.2737367544323206e-13)"/>
  <path class="cls-8" d="M 424.609 310.32 L 403.59 310.32 C 401.212 310.32 399.286 312.247 399.286 314.624 C 399.286 317.001 401.213 318.928 403.59 318.928 L 424.609 318.928 C 426.987 318.928 428.913 317.001 428.913 314.624 C 428.913 312.247 426.986 310.32 424.609 310.32 Z" style="fill: rgb(40, 40, 40); stroke-width: 0px;" transform="matrix(1, 0, 0, 1, 0, -2.2737367544323206e-13)"/>
  <circle class="cls-8" cx="387.628" cy="314.736" r="4.781" style="fill: rgb(40, 40, 40); stroke-width: 0px;" transform="matrix(1, 0, 0, 1, 0, -2.2737367544323206e-13)"/>
  <path class="cls-8" d="M 538.386 156.943 L 517.367 156.943 C 514.989 156.943 513.063 158.87 513.063 161.247 C 513.063 163.624 514.99 165.551 517.367 165.551 L 538.386 165.551 C 540.764 165.551 542.69 163.624 542.69 161.247 C 542.69 158.87 540.763 156.943 538.386 156.943 Z" style="fill: rgb(40, 40, 40); stroke-width: 0px;" transform="matrix(1, 0, 0, 1, 0, -2.2737367544323206e-13)"/>
  <path class="cls-8" d="M 538.386 174.489 L 517.367 174.489 C 514.989 174.489 513.063 176.416 513.063 178.793 C 513.063 181.17 514.99 183.097 517.367 183.097 L 538.386 183.097 C 540.764 183.097 542.69 181.17 542.69 178.793 C 542.69 176.416 540.763 174.489 538.386 174.489 Z" style="fill: rgb(40, 40, 40); stroke-width: 0px;" transform="matrix(1, 0, 0, 1, 0, -2.2737367544323206e-13)"/>
  <circle class="cls-8" cx="501.405" cy="178.905" r="4.781" style="fill: rgb(40, 40, 40); stroke-width: 0px;" transform="matrix(1, 0, 0, 1, 0, -2.2737367544323206e-13)"/>
  <path class="cls-8" d="M 538.386 192.035 L 517.367 192.035 C 514.989 192.035 513.063 193.962 513.063 196.339 C 513.063 198.716 514.99 200.643 517.367 200.643 L 538.386 200.643 C 540.764 200.643 542.69 198.716 542.69 196.339 C 542.69 193.962 540.763 192.035 538.386 192.035 Z" style="fill: rgb(40, 40, 40); stroke-width: 0px;" transform="matrix(1, 0, 0, 1, 0, -2.2737367544323206e-13)"/>
  <path class="cls-8" d="M 538.386 209.58 L 517.367 209.58 C 514.989 209.58 513.063 211.507 513.063 213.884 C 513.063 216.261 514.99 218.188 517.367 218.188 L 538.386 218.188 C 540.764 218.188 542.69 216.261 542.69 213.884 C 542.69 211.507 540.763 209.58 538.386 209.58 Z" style="fill: rgb(40, 40, 40); stroke-width: 0px;" transform="matrix(1, 0, 0, 1, 0, -2.2737367544323206e-13)"/>
  <path class="cls-8" d="M 501.405 209.215 C 498.765 209.215 496.624 211.356 496.624 213.996 C 496.624 216.636 498.765 218.777 501.405 218.777 C 504.045 218.777 506.186 216.636 506.186 213.996 C 506.186 211.356 504.045 209.215 501.405 209.215 Z" style="fill: rgb(40, 40, 40); stroke-width: 0px;" transform="matrix(1, 0, 0, 1, 0, -2.2737367544323206e-13)"/>
  <path class="cls-8" d="M 365.102 310.351 L 348.997 310.351 L 348.997 285.741 C 348.997 282.102 346.036 279.141 342.397 279.141 L 326.786 279.141 C 323.147 279.141 320.186 282.102 320.186 285.741 L 320.186 310.351 L 314.049 310.351 L 314.049 270.333 C 314.049 266.694 311.088 263.733 307.449 263.733 L 291.838 263.733 C 288.199 263.733 285.238 266.694 285.238 270.333 L 285.238 310.351 L 279.938 310.351 L 279.938 296.748 C 279.938 293.109 276.977 290.148 273.338 290.148 L 257.727 290.148 C 254.088 290.148 251.127 293.109 251.127 296.748 L 251.127 310.912 C 249.823 311.651 248.942 313.049 248.942 314.656 C 248.942 317.034 250.869 318.96 253.246 318.96 L 365.104 318.96 C 367.482 318.96 369.408 317.033 369.408 314.656 C 369.408 312.279 367.481 310.352 365.104 310.352 L 365.102 310.351 Z M 328.794 287.75 L 340.388 287.75 L 340.388 310.351 L 328.794 310.351 L 328.794 287.75 Z M 293.846 272.342 L 305.44 272.342 L 305.44 310.351 L 293.846 310.351 L 293.846 272.342 Z M 259.734 298.756 L 271.329 298.756 L 271.329 310.351 L 259.734 310.351 L 259.734 298.756 Z" style="fill: rgb(40, 40, 40); stroke-width: 0px;" transform="matrix(1, 0, 0, 1, 0, -2.2737367544323206e-13)"/>
</svg>