<?xml version="1.0" encoding="utf-8"?>
<svg viewBox="83.911 89.675 292.466 351.396" xmlns="http://www.w3.org/2000/svg">
  <path class="cls-2" d="M 484.318 251.331 C 484.318 393.41 369.144 508.584 227.065 508.584 C 84.986 508.584 -30.177 393.41 -30.177 251.331 C -30.177 109.252 84.995 -5.913 227.065 -5.913 C 295.298 -5.913 360.722 21.19 408.97 69.429 C 457.217 117.676 484.318 183.109 484.318 251.331 L 484.318 251.331 Z M 484.318 251.331" style="stroke-width: 0px; fill: rgba(229, 229, 229, 0);" transform="matrix(0.9999999999999999, 0, 0, 0.9999999999999999, 0, 0)"/>
  <ellipse class="cls-6" cx="227.071" cy="410.616" rx="142.244" ry="24.378" style="stroke-width: 0px; fill: rgb(251, 191, 16);" transform="matrix(0.9999999999999999, 0, 0, 0.9999999999999999, 0, 0)"/>
  <path class="cls-7" d="M 274.474 122.249 C 268.44 118.037 266.957 109.7 271.168 103.666 C 275.38 97.632 283.717 96.149 289.751 100.36 C 295.785 104.571 297.268 112.909 293.057 118.943 C 288.846 124.977 280.508 126.46 274.474 122.249 L 274.474 122.249 Z M 285.387 106.614 C 282.8 104.809 279.228 105.444 277.423 108.031 C 275.618 110.618 276.253 114.19 278.84 115.995 C 281.427 117.8 284.999 117.165 286.804 114.578 C 288.609 111.991 287.974 108.419 285.387 106.614 Z" style="fill: rgb(40, 40, 40); stroke-width: 0px;" transform="matrix(0.9999999999999999, 0, 0, 0.9999999999999999, 0, 0)"/>
  <circle class="cls-7" cx="162.859" cy="298.89" r="4.58" style="fill: rgb(40, 40, 40); stroke-width: 0px;" transform="matrix(0.9999999999999999, 0, 0, 0.9999999999999999, 0, 0)"/>
  <circle class="cls-7" cx="294.533" cy="350.429" r="4.58" style="fill: rgb(40, 40, 40); stroke-width: 0px;" transform="matrix(0.9999999999999999, 0, 0, 0.9999999999999999, 0, 0)"/>
  <path class="cls-7" d="M 127.684 331.35 C 126.71 331.406 125.714 331.09 124.928 330.389 L 112.85 319.624 C 111.278 318.223 111.139 315.813 112.541 314.241 C 113.943 312.669 116.352 312.53 117.924 313.932 L 130.002 324.697 C 131.574 326.098 131.713 328.508 130.311 330.08 C 129.61 330.866 128.658 331.294 127.684 331.35 L 127.684 331.35 Z" style="fill: rgb(40, 40, 40); stroke-width: 0px;" transform="matrix(0.9999999999999999, 0, 0, 0.9999999999999999, 0, 0)"/>
  <path class="cls-7" d="M 116.262 332.007 C 115.288 332.063 114.292 331.747 113.506 331.046 C 111.934 329.645 111.795 327.235 113.197 325.663 L 123.962 313.585 C 125.363 312.013 127.773 311.874 129.345 313.276 C 130.917 314.678 131.056 317.087 129.654 318.659 L 118.889 330.737 C 118.188 331.523 117.236 331.951 116.262 332.007 L 116.262 332.007 Z" style="fill: rgb(40, 40, 40); stroke-width: 0px;" transform="matrix(0.9999999999999999, 0, 0, 0.9999999999999999, 0, 0)"/>
  <path class="cls-7" d="M 125.077 262.665 C 118.297 257.933 116.63 248.565 121.363 241.785 C 126.096 235.005 135.463 233.338 142.243 238.071 C 149.023 242.803 150.69 252.171 145.957 258.951 C 141.225 265.731 131.857 267.398 125.077 262.665 Z M 137.339 245.097 C 134.432 243.068 130.419 243.782 128.39 246.689 C 126.361 249.596 127.075 253.609 129.982 255.638 C 132.889 257.667 136.902 256.953 138.931 254.046 C 140.96 251.139 140.246 247.126 137.339 245.097 Z" style="fill: rgb(40, 40, 40); stroke-width: 0px;" transform="matrix(0.9999999999999999, 0, 0, 0.9999999999999999, 0, 0)"/>
  <path id="path5634-9" class="cls-4" d="M 165.434 383.785 L 280.171 383.785 L 280.117 379.782 L 177.249 360 L 165.434 379.805 L 165.434 383.785 Z" style="fill: rgb(164, 201, 167); stroke-width: 0px;" transform="matrix(0.9999999999999999, 0, 0, 0.9999999999999999, 0, 0)"/>
  <path id="path5577-0" class="cls-5" d="M 208.955 253.254 L 208.955 276.985 C 208.955 281.367 212.484 284.898 216.868 284.898 L 240.607 284.898 C 244.991 284.898 248.52 281.368 248.52 276.985 L 248.52 253.254 C 235.332 253.209 222.144 253.233 208.956 253.254 L 208.955 253.254 Z" style="fill: rgb(255, 255, 255); stroke-width: 0px;" transform="matrix(0.9999999999999999, 0, 0, 0.9999999999999999, 0, 0)"/>
  <path id="path5535-9" class="cls-1" d="M 181.26 197.338 C 181.26 227.446 207.657 240.35 207.657 253.254 C 221.711 253.209 235.764 253.233 249.818 253.254 C 249.818 240.351 276.215 227.446 276.215 197.338 C 276.215 171.208 256.384 150.355 228.738 150.355 C 201.092 150.355 181.261 171.208 181.261 197.338 L 181.26 197.338 Z" style="fill: rgb(251, 191, 16); stroke-width: 0px;" transform="matrix(0.9999999999999999, 0, 0, 0.9999999999999999, 0, 0)"/>
  <path id="path5617-9" class="cls-3" d="M 290.387 221.579 C 286.2 221.897 282.251 225.043 282.018 230.11 L 280.712 274.11 L 263.82 240.349 C 261.78 236.596 258.127 234.968 254.555 235.133 C 248.601 235.407 242.865 240.651 245.174 249.266 L 257.87 288.83 C 261.283 298.943 237.864 315.47 226.729 322.661 C 222.374 309.976 217.726 297.4 212.912 284.874 C 208.479 271.894 193.13 276.034 193.13 288.83 L 193.13 312.569 C 193.13 328.197 185.217 344.22 185.217 361.53 L 185.241 361.538 L 273.225 378.453 C 282.811 364.967 327.649 334.073 327.649 312.569 C 327.815 296.743 318.214 246.878 318.214 246.878 C 316.205 236.409 305.972 235.308 300.696 240.155 L 300.186 230.009 C 299.004 223.768 294.575 221.261 290.388 221.578 L 290.387 221.579 Z M 259.918 379.782 C 263.295 379.825 267.313 379.828 272.259 379.828 C 272.267 379.814 272.281 379.795 272.29 379.782 L 259.918 379.782 Z" style="fill: rgb(255, 243, 218); stroke-width: 0px;" transform="matrix(0.9999999999999999, 0, 0, 0.9999999999999999, 0, 0)"/>
  <path id="path5677-0" class="cls-8" d="M 259.917 379.782 C 263.294 379.825 267.312 379.828 272.258 379.828 C 272.264 379.819 272.273 379.809 272.282 379.797 C 270.884 379.79 269.049 379.797 267.831 379.782 L 259.917 379.782 L 259.917 379.782 Z" style="fill: rgb(245, 249, 251); stroke-width: 0px;" transform="matrix(0.9999999999999999, 0, 0, 0.9999999999999999, 0, 0)"/>
  <path id="path5464-1" class="cls-7" d="M 228.033 146.412 C 199.203 146.412 177.455 169.258 177.455 197.439 C 177.455 213.678 184.691 225.432 191.495 234.303 C 194.897 238.738 198.179 242.525 200.473 245.765 C 201.617 247.381 202.472 248.823 203.043 250.099 C 201.943 250.8 201.214 252.033 201.209 253.435 C 201.2 255.636 202.986 257.43 205.187 257.421 L 205.187 273.403 C 203.67 273.173 202.134 273.224 200.652 273.566 C 194.389 275.01 189.329 281.105 189.329 289.099 L 189.329 312.86 C 189.329 325.934 182.738 340.579 181.589 357.146 L 178.129 356.48 C 176.488 356.166 174.824 356.916 173.973 358.353 L 162.155 378.166 C 161.029 380.048 161.648 382.486 163.533 383.607 C 165.415 384.733 167.853 384.114 168.974 382.229 L 179.361 364.784 L 279.666 384.102 C 281.824 384.522 283.912 383.106 284.317 380.944 C 284.72 378.805 283.318 376.743 281.182 376.323 L 280.996 376.277 C 282.73 374.475 284.722 372.499 287.002 370.372 C 292.488 365.255 299.23 359.309 305.786 352.997 C 312.341 346.685 318.735 340.036 323.603 333.338 C 328.47 326.641 331.993 319.856 331.993 312.859 C 332.078 304.078 329.677 287.896 327.287 273.387 C 324.893 258.856 322.458 246.322 322.458 246.322 C 321.153 239.522 316.445 235.057 311.282 233.923 C 309.097 233.443 306.867 233.479 304.75 233.985 C 304.674 232.482 304.523 230.878 304.409 229.419 C 302.8 221.113 296.374 217.318 290.4 217.771 C 284.427 218.224 278.696 223.03 278.373 230.085 L 277.158 257.762 L 267.607 238.692 C 266.849 237.289 265.948 236.137 264.929 235.17 C 272.372 226.267 280.486 214.448 280.486 197.757 C 280.486 169.39 256.898 146.412 228.035 146.413 L 228.033 146.412 Z M 228.033 154.337 C 252.708 154.337 272.551 173.771 272.551 197.756 C 272.551 212.748 265.044 222.883 257.598 231.562 C 254.988 231.131 252.295 231.412 249.882 232.367 C 244.039 234.679 239.403 241.103 241.43 249.479 L 232.916 249.479 L 232.916 227.344 L 243.651 216.571 C 245.187 215.025 245.187 212.521 243.651 210.975 C 242.102 209.419 239.581 209.419 238.032 210.975 L 228.969 220.084 L 219.867 210.975 C 217.929 209.245 215.733 209.67 214.279 210.975 C 212.743 212.521 212.743 215.025 214.279 216.571 L 224.991 227.314 L 224.991 249.48 L 211.222 249.48 C 210.409 246.533 208.804 243.836 206.942 241.206 C 204.279 237.444 200.994 233.686 197.786 229.504 C 191.371 221.14 185.379 211.361 185.379 197.439 C 185.379 173.269 203.324 154.337 228.032 154.337 L 228.033 154.337 Z M 228.969 162.27 C 216.234 162.27 204.448 169.05 198.08 180.079 C 195.425 184.66 202.297 188.646 204.953 184.065 C 209.911 175.477 219.053 170.196 228.969 170.196 C 234.141 170.327 234.509 162.634 229.348 162.271 C 229.222 162.265 229.095 162.265 228.969 162.271 L 228.969 162.27 Z M 304.105 162.285 C 303.151 162.333 302.246 162.751 301.45 163.407 L 297.472 167.385 C 295.936 168.931 295.936 171.435 297.472 172.981 C 299.021 174.537 301.542 174.537 303.091 172.981 L 307.038 169.034 C 308.594 167.485 308.594 164.957 307.038 163.407 C 306.063 162.559 305.059 162.237 304.105 162.285 Z M 153.415 166.263 C 152.433 166.335 151.537 166.777 150.861 167.385 C 149.325 168.931 149.325 171.435 150.861 172.981 L 154.839 176.959 C 156.385 178.496 158.881 178.496 160.427 176.959 C 161.983 175.41 161.983 172.889 160.427 171.34 L 156.48 167.385 C 155.465 166.49 154.397 166.191 153.415 166.263 L 153.415 166.263 Z M 307.905 182.075 C 305.774 182.136 304.066 183.886 304.058 186.03 C 304.049 188.22 305.816 190.001 308.005 190.008 L 312.13 190.008 C 314.319 190 316.086 188.22 316.077 186.03 C 316.069 183.852 314.308 182.083 312.13 182.075 L 308.005 182.075 C 307.971 182.075 307.937 182.075 307.904 182.075 L 307.905 182.075 Z M 145.761 186.03 C 143.656 186.129 141.774 187.868 141.783 190 C 141.791 192.19 143.556 193.971 145.746 193.963 L 149.709 193.963 C 151.898 193.972 153.664 192.19 153.672 190 C 153.681 187.799 151.91 186.029 149.709 186.037 L 145.762 186.029 L 145.761 186.03 Z M 197.299 201.888 C 199.481 201.867 201.236 200.085 201.223 197.902 C 201.21 195.716 199.43 193.954 197.245 193.963 C 195.063 193.972 193.298 195.743 193.298 197.949 C 193.323 200.158 195.114 201.91 197.299 201.888 L 197.299 201.888 Z M 300.05 197.949 C 299.062 198.016 298.155 198.47 297.473 199.102 C 295.937 200.648 295.937 203.144 297.473 204.69 L 301.451 208.668 C 302.997 210.205 305.493 210.205 307.039 208.668 C 308.595 207.119 308.595 204.598 307.039 203.049 L 303.092 199.102 C 302.106 198.199 301.038 197.881 300.05 197.949 L 300.05 197.949 Z M 157.425 201.919 C 156.415 201.982 155.474 202.423 154.84 203.049 L 150.862 206.996 C 149.306 208.545 149.306 211.073 150.862 212.623 C 152.411 214.179 154.932 214.179 156.481 212.623 L 160.428 208.668 C 161.984 207.119 161.984 204.598 160.428 203.049 C 159.515 202.17 158.435 201.856 157.425 201.919 L 157.425 201.919 Z M 291.01 225.672 C 293.178 225.524 295.77 226.592 296.598 230.881 L 300.282 285.383 C 300.43 287.575 302.332 289.227 304.523 289.067 C 306.703 288.919 308.35 287.037 308.207 284.857 L 305.305 242.181 C 306.631 241.557 308.182 241.331 309.585 241.639 C 311.847 242.136 313.858 243.546 314.678 247.815 C 314.678 247.815 317.072 260.263 319.446 274.671 C 321.819 289.08 324.141 305.745 324.067 312.843 C 324.067 317 321.583 322.646 317.194 328.686 C 312.805 334.725 306.68 341.132 300.283 347.292 C 293.886 353.452 287.227 359.355 281.623 364.582 C 277.674 368.265 274.333 371.471 271.832 374.512 L 189.444 358.654 C 190.377 343.632 197.261 328.703 197.261 312.859 L 197.261 289.098 C 197.261 284.273 200.042 281.868 202.439 281.289 C 205.585 280.606 208.181 282.776 209.397 286.552 C 214.937 300.973 220.332 315.385 225.193 329.971 C 225.881 332.061 228.139 333.19 230.224 332.486 C 232.302 331.786 233.422 329.532 232.716 327.455 C 232.319 326.263 231.912 325.076 231.509 323.887 C 232.444 323.366 239.994 319.135 247.692 312.974 C 251.784 309.699 255.798 305.99 258.69 301.883 C 261.57 297.793 263.559 292.84 261.91 287.851 C 257.695 274.684 253.478 261.539 249.271 248.395 C 247.879 243.115 250.451 240.722 252.777 239.742 C 255.193 238.708 258.851 239.154 260.617 242.404 L 286.274 293.686 C 289.2 299.535 290.051 301.717 290.167 303.848 C 290.282 305.98 289.524 309.17 288.441 316.216 C 288.1 318.392 289.591 320.429 291.769 320.751 C 293.934 321.074 295.958 319.581 296.281 317.415 C 297.325 310.619 298.273 307.315 298.061 303.406 C 297.849 299.498 296.351 296.104 293.355 290.117 L 284.462 272.347 L 286.304 230.437 C 286.446 227.339 288.809 225.852 291.01 225.669 L 291.01 225.672 Z M 213.111 257.42 L 243.829 257.42 L 244.82 260.516 L 244.82 277.218 C 244.82 279.48 243.106 281.173 240.842 281.173 L 215.735 281.173 C 215.007 279.815 214.078 278.417 213.096 277.396 C 213.136 275.975 213.111 274.69 213.111 273.24 L 232.917 273.24 C 235.118 273.249 236.904 271.463 236.895 269.262 C 236.887 267.072 235.106 265.306 232.917 265.315 L 213.111 265.315 L 213.111 257.421 L 213.111 257.42 Z M 251.708 282.04 L 254.37 290.329 C 254.921 291.943 254.389 294.245 252.226 297.318 C 250.062 300.391 246.503 303.769 242.745 306.776 C 236.596 311.696 231.067 314.964 228.868 316.234 C 225.666 307.128 222.306 298.099 218.876 289.099 L 240.841 289.099 C 245.644 289.099 249.836 286.182 251.707 282.041 L 251.708 282.04 Z" vector-effect="none" style="fill: rgb(40, 40, 40); stroke-width: 0px;" transform="matrix(0.9999999999999999, 0, 0, 0.9999999999999999, 0, 0)"/>
</svg>