<?xml version="1.0" encoding="utf-8"?>
<svg viewBox="0 177.849 217.1 322.151" xmlns="http://www.w3.org/2000/svg">
  <path class="cls-1" d="M 86.699 226.804 L 127.409 226.804 C 131.783 226.8 135.503 223.608 136.169 219.284 L 140.249 192.784 C 141.076 187.409 136.917 182.562 131.479 182.564 L 82.219 182.564 C 76.73 182.568 72.56 187.501 73.469 192.914 L 77.959 219.414 C 78.68 223.679 82.373 226.801 86.699 226.804 Z" style="fill: rgb(251, 191, 16);" transform="matrix(0.9999999999999999, 0, 0, 0.9999999999999999, 0, -5.684341886080802e-14)"/>
  <path class="cls-2" d="M 18.349 492.564 L 195.349 492.564 C 204.653 492.56 211.678 484.125 209.999 474.974 L 168.529 250.214 C 167.223 243.139 161.043 238.011 153.849 238.034 L 62.849 238.034 C 55.738 238.032 49.619 243.058 48.239 250.034 L 3.739 474.784 C 1.917 483.99 8.963 492.566 18.349 492.564 Z" style="fill: rgb(223, 234, 239);" transform="matrix(0.9999999999999999, 0, 0, 0.9999999999999999, 0, -5.684341886080802e-14)"/>
  <rect class="cls-2" x="71.97" y="215.574" width="69.76" height="27.22" style="fill: rgb(223, 234, 239);" transform="matrix(0.9999999999999999, 0, 0, 0.9999999999999999, 0, -5.684341886080802e-14)"/>
  <path class="cls-3" d="M 40.709 337.054 L 16.209 475.214 L 196.559 475.214 L 171.379 337.054 C 171.379 337.054 72.699 351.344 40.709 337.054 Z" style="fill: rgb(171, 141, 37); opacity: 0.74;" transform="matrix(0.9999999999999999, 0, 0, 0.9999999999999999, 0, -5.684341886080802e-14)"/>
  <line class="cls-4" x1="52.278" y1="334.334" x2="37.989" y2="443.904" style="fill: none; opacity: 0.67; stroke: rgb(255, 249, 230); stroke-linecap: round; stroke-miterlimit: 10; stroke-width: 5.79px;" transform="matrix(0.9999999999999999, 0, 0, 0.9999999999999999, 0, -5.684341886080802e-14)"/>
  <path class="cls-5" d="M 124.269 414.954 C 122.695 411.163 120.801 407.513 118.609 404.044 C 115.179 398.364 111.349 392.944 107.679 387.424 C 106.89 386.101 104.966 386.128 104.215 387.472 C 104.213 387.476 104.211 387.48 104.209 387.484 C 103.469 388.584 102.759 389.704 102.009 390.804 C 98.889 395.394 95.749 399.984 92.919 404.804 C 90.85 408.119 89.077 411.609 87.619 415.234 C 86.599 417.59 86.092 420.136 86.129 422.704 C 86.239 425.668 87.033 428.567 88.449 431.174 C 91.057 436.066 95.606 439.634 100.979 441.004 C 101.979 441.284 102.979 441.374 104.029 441.604 L 107.849 441.604 C 108.849 441.394 109.929 441.304 110.959 441.014 C 117.24 439.399 122.336 434.818 124.609 428.744 C 125.478 426.555 125.916 424.219 125.899 421.864 C 125.8 419.478 125.246 417.132 124.269 414.954 Z" style="fill: rgb(214, 211, 140);" transform="matrix(0.9999999999999999, 0, 0, 0.9999999999999999, 0, -5.684341886080802e-14)"/>
</svg>