<?xml version="1.0" encoding="UTF-8"?><svg id="Layer_1" xmlns="http://www.w3.org/2000/svg" viewBox="0 0 1080 1080"><defs><style>.cls-1{fill:#fece01;stroke-width:0px;}</style></defs><path class="cls-1" d="m539.991,70.593c-54.4-.007-64.885-18.171-92.084,28.941-27.201,47.113,48.18,90.634,20.98,137.747-27.199,47.111-102.581,3.589-129.78,50.701-27.201,47.113,48.18,90.634,20.98,137.747-27.199,47.111-102.581,3.589-129.78,50.7-27.199,47.112,48.181,90.633,20.982,137.743-27.201,47.114-102.582,3.593-129.783,50.705-27.199,47.112,48.181,90.633,20.982,137.745-27.205,47.119-102.585,3.597-129.789,50.715-27.204,47.119-6.222,47.121,20.976,94.242,27.194,47.115,16.706,65.277,71.107,65.277s54.401-87.042,108.801-87.042,54.4,87.042,108.798,87.042,54.402-87.042,108.804-87.042,54.401,87.042,108.801,87.042,54.399-87.042,108.797-87.042,54.402,87.042,108.804,87.042,54.402-87.042,108.805-87.042,54.406,87.042,108.811,87.042,43.915-18.171,71.122-65.285c27.204-47.109,48.179-47.109,20.979-94.221-27.2-47.113-102.581-3.59-129.781-50.703-27.2-47.112,48.181-90.633,20.982-137.743-27.201-47.114-102.582-3.593-129.783-50.705-27.199-47.111,48.182-90.632,20.983-137.742-27.199-47.111-102.581-3.589-129.78-50.701-27.201-47.113,48.18-90.634,20.979-137.748-27.199-47.112-102.581-3.59-129.781-50.702-27.204-47.118,43.15-80.356,24.028-131.293-14.654-39.035-40.75-35.413-95.158-35.419Z"/></svg>